<svg xmlns="http://www.w3.org/2000/svg" xmlns:xlink="http://www.w3.org/1999/xlink" fill="none" version="1.1" width="32" height="32" viewBox="0 0 32 32"><defs><clipPath id="master_svg0_33_925"><rect x="32" y="0" width="32" height="32" rx="0"/></clipPath></defs><g transform="matrix(-1,0,0,1,64,0)" clip-path="url(#master_svg0_33_925)"><rect x="32" y="0" width="32" height="32" rx="0" fill="#FFFFFF" fill-opacity="1"/><g transform="matrix(-1,0,0,1,106,0)"><path d="M55,27.608L54.104,27.608L53.891998,28.4L53.191998,28.4L54.004,25.6L55.104,25.6L55.916,28.4L55.212,28.4L55,27.608ZM54.872,27.128L54.556,25.956L54.548,25.956L54.232,27.128L54.872,27.128ZM57.108,28.451999999999998Q56.812,28.451999999999998,56.588,28.31Q56.364,28.168,56.244,27.912Q56.124,27.656,56.124,27.328Q56.124,26.996,56.246,26.738Q56.368,26.48,56.59,26.336Q56.812,26.192,57.108,26.192Q57.244,26.192,57.382,26.24Q57.519999999999996,26.288,57.64,26.38L57.64,25.324L58.28,25.324L58.28,27.9Q58.28,28.22,58.36,28.4L57.76,28.4Q57.732,28.344,57.712,28.256Q57.46,28.451999999999998,57.108,28.451999999999998ZM56.736,27.328Q56.736,27.512,56.81,27.664Q56.884,27.816,57.006,27.906Q57.128,27.996,57.264,27.996Q57.372,27.996,57.502,27.944Q57.632,27.892,57.716,27.728L57.716,26.924Q57.632,26.756,57.502,26.704Q57.372,26.652,57.264,26.652Q57.128,26.652,57.006,26.74Q56.884,26.828,56.81,26.984Q56.736,27.14,56.736,27.328ZM59.6,28.451999999999998Q59.296,28.451999999999998,59.07,28.308Q58.844,28.164,58.722,27.912Q58.6,27.66,58.6,27.323999999999998Q58.6,26.992,58.722,26.734Q58.844,26.476,59.066,26.332Q59.288,26.188,59.584,26.188Q59.72,26.188,59.858,26.238Q59.996,26.288,60.116,26.376L60.116,26.24L60.756,26.24L60.756,27.896Q60.756,28.22,60.836,28.4L60.236,28.4Q60.208,28.344,60.188,28.256Q59.94,28.451999999999998,59.6,28.451999999999998ZM59.212,27.323999999999998Q59.212,27.508,59.286,27.66Q59.36,27.812,59.482,27.902Q59.604,27.992,59.74,27.992Q59.836,27.992,59.956,27.95Q60.076,27.908,60.164,27.768L60.164,26.872Q60.076,26.732,59.958,26.692Q59.84,26.652,59.74,26.652Q59.604,26.652,59.482,26.74Q59.36,26.828,59.286,26.982Q59.212,27.136,59.212,27.323999999999998ZM61.076,29.312Q61.124,29.176000000000002,61.14,28.932Q61.156,28.688,61.156,28.488L61.156,26.24L61.796,26.24L61.796,26.44Q61.928,26.32,62.086,26.254Q62.244,26.188,62.403999999999996,26.188Q62.7,26.188,62.922,26.332Q63.144,26.476,63.266,26.734Q63.388,26.992,63.388,27.323999999999998Q63.388,27.656,63.268,27.91Q63.147999999999996,28.164,62.924,28.308Q62.7,28.451999999999998,62.403999999999996,28.451999999999998Q62.044,28.451999999999998,61.796,28.244L61.796,28.488Q61.796,28.7,61.774,28.942Q61.752,29.184,61.716,29.312L61.076,29.312ZM61.796,27.724Q61.88,27.887999999999998,62.01,27.94Q62.14,27.992,62.248,27.992Q62.384,27.992,62.506,27.902Q62.628,27.812,62.702,27.66Q62.775999999999996,27.508,62.775999999999996,27.323999999999998Q62.775999999999996,27.136,62.702,26.982Q62.628,26.828,62.506,26.74Q62.384,26.652,62.248,26.652Q62.14,26.652,62.01,26.704Q61.88,26.756,61.796,26.92L61.796,27.724ZM64.472,27.744L64.472,28.4L63.816,28.4L63.816,27.744L64.472,27.744ZM65.044,25.6L67.012,25.6L67.012,26.144L65.70400000000001,26.144L65.70400000000001,26.744L66.84,26.744L66.84,27.252L65.70400000000001,27.252L65.70400000000001,27.856L67.012,27.856L67.012,28.4L65.044,28.4L65.044,25.6ZM68.924,29.312Q68.888,29.184,68.866,28.942Q68.844,28.7,68.844,28.488L68.844,28.244Q68.596,28.451999999999998,68.236,28.451999999999998Q67.94,28.451999999999998,67.716,28.308Q67.492,28.164,67.372,27.91Q67.252,27.656,67.252,27.323999999999998Q67.252,26.992,67.374,26.734Q67.496,26.476,67.718,26.332Q67.94,26.188,68.236,26.188Q68.396,26.188,68.554,26.254Q68.712,26.32,68.844,26.44L68.844,26.24L69.48400000000001,26.24L69.48400000000001,28.488Q69.48400000000001,28.688,69.5,28.932Q69.51599999999999,29.176000000000002,69.564,29.312L68.924,29.312ZM67.864,27.323999999999998Q67.864,27.508,67.938,27.66Q68.012,27.812,68.134,27.902Q68.256,27.992,68.392,27.992Q68.5,27.992,68.63,27.94Q68.76,27.887999999999998,68.844,27.724L68.844,26.92Q68.76,26.756,68.63,26.704Q68.5,26.652,68.392,26.652Q68.256,26.652,68.134,26.74Q68.012,26.828,67.938,26.982Q67.864,27.136,67.864,27.323999999999998ZM70.668,27.744L70.668,28.4L70.012,28.4L70.012,27.744L70.668,27.744Z" fill="#000000" fill-opacity="1"/></g><g transform="matrix(-1,0,0,1,121,0)"><path d="M61,4L63,4L63,3L60,3L60,5.09091L61,5.09091L61,4ZM65.04546,4L69.13636,4L69.13636,3L65.04546,3L65.04546,4ZM71.1818,4L75.2727,4L75.2727,3L71.1818,3L71.1818,4ZM77.3182,4L81.4091,4L81.4091,3L77.3182,3L77.3182,4ZM81.5,4.95455L81.5,7L82.5,7L82.5,4.95455L81.5,4.95455ZM61,11.22727L61,7.13636L60,7.13636L60,11.22727L61,11.22727ZM61,17.363599999999998L61,13.27273L60,13.27273L60,17.363599999999998L61,17.363599999999998ZM61,23.5L61,19.409100000000002L60,19.409100000000002L60,23.5L61,23.5ZM65.63636,24L61.54545,24L61.54545,25L65.63636,25L65.63636,24ZM71.7727,24L67.68182,24L67.68182,25L71.7727,25L71.7727,24ZM77.9091,24L73.8182,24L73.8182,25L77.9091,25L77.9091,24ZM82,24L79.9545,24L79.9545,25L82,25L82,24Z" fill-rule="evenodd" fill="#409EFF" fill-opacity="1"/></g><g transform="matrix(-1,0,0,1,114,0)"><rect x="57.5" y="7.5" width="21" height="17" rx="0" fill-opacity="0" stroke-opacity="1" stroke="#000000" fill="none" stroke-width="1"/></g><g transform="matrix(0,0.9999244809150696,0.9999244809150696,0,31.50110951066017,-31.49638957246134)"><path d="M46.99993896484375,22.49939L47.99993896484375,22.49939L48.00005896484375,15.5L47.00006103484375,15.5L46.99993896484375,22.49939Z" fill="#000000" fill-opacity="1"/></g><g transform="matrix(0,0.9999244809150696,0.9999244809150696,0,22.50110951066017,-22.497069244225713)"><path d="M37.99993896484375,15.5L38.00006103484375,22.00055L39.00005896484375,22.00055L38.99993896484375,15.5L37.99993896484375,15.5Z" fill="#000000" fill-opacity="1"/></g><g transform="matrix(0,0.9999244809150696,0.9999244809150696,0,22.501548141241074,-22.496752679347992)"><path d="M43,31.4996L44,31.4996L44.00006,20.5L43.0000610352,20.5L43,31.4996Z" fill="#000000" fill-opacity="1"/></g><g transform="matrix(0,0.9999244809150696,0.9999244809150696,0,17.502768844366074,-17.49835088571126)"><path d="M38.001281738325,22.99896L39.001280703125,22.99896L39.001280703125,20.5L38.001281738325,20.5L38.001281738325,22.99896Z" fill="#000000" fill-opacity="1"/></g><g transform="matrix(-1,0,0,1,96,0)"><path d="M52,16Q52,16.09825,51.99037,16.19603Q51.98074,16.29381,51.96157,16.39018Q51.9424,16.48655,51.91388,16.58057Q51.88536,16.67459,51.84776,16.76537Q51.81016,16.85614,51.76384,16.94279Q51.71753,17.02945,51.66294,17.11114Q51.60835,17.19284,51.54602,17.26879Q51.48369,17.34474,51.41421,17.41421Q51.34474,17.48369,51.26879,17.54602Q51.19284,17.60835,51.11114,17.66294Q51.02945,17.71753,50.94279,17.763840000000002Q50.856139999999996,17.81016,50.76537,17.84776Q50.67459,17.88536,50.58057,17.91388Q50.48655,17.9424,50.39018,17.961570000000002Q50.29381,17.98074,50.19603,17.99037Q50.09825,18,50,18Q49.90175,18,49.80397,17.99037Q49.70619,17.98074,49.60982,17.961570000000002Q49.51345,17.9424,49.41943,17.91388Q49.32541,17.88536,49.23463,17.84776Q49.143860000000004,17.81016,49.05721,17.763840000000002Q48.970554,17.71753,48.888859,17.66294Q48.807164,17.60835,48.731213,17.54602Q48.655262,17.48369,48.585786,17.41421Q48.516311,17.34474,48.453979,17.26879Q48.391648,17.19284,48.337061,17.11114Q48.282474,17.02945,48.236157,16.94279Q48.189841,16.85614,48.152241,16.76537Q48.114641,16.67459,48.0861193,16.58057Q48.0575978,16.48655,48.0384294,16.39018Q48.0192611,16.29381,48.00963055,16.19603Q48,16.09825,48,16Q48,15.90175,48.00963055,15.80397Q48.0192611,15.70619,48.0384294,15.60982Q48.0575978,15.51345,48.0861193,15.41943Q48.114641,15.32541,48.152241,15.23463Q48.189841,15.14386,48.236157,15.05721Q48.282474,14.970554,48.337061,14.888859Q48.391648,14.807164,48.453979,14.731213Q48.516311,14.655262,48.585786,14.585786Q48.655262,14.516311,48.731213,14.453979Q48.807164,14.391648,48.888859,14.337061Q48.970554,14.282474,49.05721,14.236157Q49.143860000000004,14.189841,49.23463,14.152241Q49.32541,14.114641,49.41943,14.0861193Q49.51345,14.0575978,49.60982,14.0384294Q49.70619,14.0192611,49.80397,14.00963055Q49.90175,14,50,14Q50.09825,14,50.19603,14.00963055Q50.29381,14.0192611,50.39018,14.0384294Q50.48655,14.0575978,50.58057,14.0861193Q50.67459,14.114641,50.76537,14.152241Q50.856139999999996,14.189841,50.94279,14.236157Q51.02945,14.282474,51.11114,14.337061Q51.19284,14.391648,51.26879,14.453979Q51.34474,14.516311,51.41421,14.585786Q51.48369,14.655262,51.54602,14.731213Q51.60835,14.807164,51.66294,14.888859Q51.71753,14.970554,51.76384,15.05721Q51.81016,15.14386,51.84776,15.23463Q51.88536,15.32541,51.91388,15.41943Q51.9424,15.51345,51.96157,15.60982Q51.98074,15.70619,51.99037,15.80397Q52,15.90175,52,16ZM51,16Q51,15.58579,50.70711,15.29289Q50.41421,15,50,15Q49.58579,15,49.29289,15.29289Q49,15.58579,49,16Q49,16.41421,49.29289,16.70711Q49.58579,17,50,17Q50.41421,17,50.70711,16.70711Q51,16.41421,51,16Z" fill-rule="evenodd" fill="#409EFF" fill-opacity="1"/></g><g transform="matrix(-1,0,0,1,87,0)"><path d="M47.5,21Q47.5,21.09825,47.49037,21.19603Q47.48074,21.29381,47.46157,21.39018Q47.4424,21.48655,47.41388,21.58057Q47.38536,21.67459,47.34776,21.76537Q47.31016,21.85614,47.26384,21.94279Q47.21753,22.02945,47.16294,22.11114Q47.10835,22.19284,47.04602,22.26879Q46.98369,22.34474,46.91421,22.41421Q46.84474,22.48369,46.76879,22.54602Q46.69284,22.60835,46.61114,22.66294Q46.52945,22.71753,46.44279,22.763840000000002Q46.356139999999996,22.81016,46.26537,22.84776Q46.17459,22.88536,46.08057,22.91388Q45.98655,22.9424,45.89018,22.961570000000002Q45.79381,22.98074,45.69603,22.99037Q45.59825,23,45.5,23Q45.40175,23,45.30397,22.99037Q45.20619,22.98074,45.10982,22.961570000000002Q45.01345,22.9424,44.91943,22.91388Q44.82541,22.88536,44.73463,22.84776Q44.643860000000004,22.81016,44.55721,22.763840000000002Q44.470554,22.71753,44.388859,22.66294Q44.307164,22.60835,44.231213,22.54602Q44.155262,22.48369,44.085786,22.41421Q44.016311,22.34474,43.953979,22.26879Q43.891648,22.19284,43.837061,22.11114Q43.782474,22.02945,43.736157,21.94279Q43.689841,21.85614,43.652241,21.76537Q43.614641,21.67459,43.5861193,21.58057Q43.5575978,21.48655,43.5384294,21.39018Q43.5192611,21.29381,43.50963055,21.19603Q43.5,21.09825,43.5,21Q43.5,20.90175,43.50963055,20.80397Q43.5192611,20.70619,43.5384294,20.60982Q43.5575978,20.51345,43.5861193,20.41943Q43.614641,20.32541,43.652241,20.23463Q43.689841,20.14386,43.736157,20.05721Q43.782474,19.970554,43.837061,19.888859Q43.891648,19.807164,43.953979,19.731213Q44.016311,19.655262,44.085786,19.585786Q44.155262,19.516311,44.231213,19.453979Q44.307164,19.391648,44.388859,19.337061Q44.470554,19.282474,44.55721,19.236157Q44.643860000000004,19.189841,44.73463,19.152241Q44.82541,19.114641,44.91943,19.0861193Q45.01345,19.0575978,45.10982,19.0384294Q45.20619,19.0192611,45.30397,19.00963055Q45.40175,19,45.5,19Q45.59825,19,45.69603,19.00963055Q45.79381,19.0192611,45.89018,19.0384294Q45.98655,19.0575978,46.08057,19.0861193Q46.17459,19.114641,46.26537,19.152241Q46.356139999999996,19.189841,46.44279,19.236157Q46.52945,19.282474,46.61114,19.337061Q46.69284,19.391648,46.76879,19.453979Q46.84474,19.516311,46.91421,19.585786Q46.98369,19.655262,47.04602,19.731213Q47.10835,19.807164,47.16294,19.888859Q47.21753,19.970554,47.26384,20.05721Q47.31016,20.14386,47.34776,20.23463Q47.38536,20.32541,47.41388,20.41943Q47.4424,20.51345,47.46157,20.60982Q47.48074,20.70619,47.49037,20.80397Q47.5,20.90175,47.5,21ZM46.5,21Q46.5,20.58579,46.20711,20.29289Q45.91421,20,45.5,20Q45.08579,20,44.79289,20.29289Q44.5,20.58579,44.5,21Q44.5,21.41421,44.79289,21.70711Q45.08579,22,45.5,22Q45.91421,22,46.20711,21.70711Q46.5,21.41421,46.5,21Z" fill-rule="evenodd" fill="#409EFF" fill-opacity="1"/></g><g><g transform="matrix(0,0.9999244809150696,-0.9999244809150696,0,59.499229937791824,-38.49632245129351)"><path d="M49.000022888183594,21.4996L50.000022888183594,21.4996L50.00008288818359,10.5L49.00008392338359,10.5L49.000022888183594,21.4996Z" fill="#000000" fill-opacity="1"/></g><g transform="matrix(0,0.9999244809150696,-0.9999244809150696,0,64.49800923466682,-43.49472424493024)"><path d="M53.99886322025859,10.5L53.9989242550586,12.99902L54.998922185058596,12.99902L54.99886218505859,10.5L53.99886322025859,10.5Z" fill="#000000" fill-opacity="1"/></g><g><path d="M52.5,11Q52.5,11.09825,52.49037,11.19603Q52.48074,11.29381,52.46157,11.39018Q52.4424,11.48655,52.41388,11.58057Q52.38536,11.67459,52.34776,11.76537Q52.31016,11.85614,52.26384,11.94279Q52.21753,12.02945,52.16294,12.111139999999999Q52.10835,12.19284,52.04602,12.26879Q51.98369,12.34474,51.91421,12.41421Q51.84474,12.48369,51.76879,12.54602Q51.69284,12.60835,51.61114,12.662939999999999Q51.52945,12.71753,51.44279,12.76384Q51.356139999999996,12.81016,51.26537,12.847760000000001Q51.17459,12.88536,51.08057,12.913879999999999Q50.98655,12.9424,50.89018,12.96157Q50.79381,12.98074,50.69603,12.99037Q50.59825,13,50.5,13Q50.40175,13,50.30397,12.99037Q50.20619,12.98074,50.10982,12.96157Q50.01345,12.9424,49.91943,12.913879999999999Q49.82541,12.88536,49.73463,12.847760000000001Q49.643860000000004,12.81016,49.55721,12.76384Q49.470554,12.71753,49.388859,12.662939999999999Q49.307164,12.60835,49.231213,12.54602Q49.155262,12.48369,49.085786,12.41421Q49.016311,12.34474,48.953979,12.26879Q48.891648,12.19284,48.837061,12.111139999999999Q48.782474,12.02945,48.736157,11.94279Q48.689841,11.85614,48.652241,11.76537Q48.614641,11.67459,48.5861193,11.58057Q48.5575978,11.48655,48.5384294,11.39018Q48.5192611,11.29381,48.50963055,11.19603Q48.5,11.09825,48.5,11Q48.5,10.90175,48.50963055,10.80397Q48.5192611,10.70619,48.5384294,10.60982Q48.5575978,10.51345,48.5861193,10.41943Q48.614641,10.32541,48.652241,10.23463Q48.689841,10.14386,48.736157,10.05721Q48.782474,9.970554,48.837061,9.888859Q48.891648,9.807164,48.953979,9.731213Q49.016311,9.655262,49.085786,9.585786Q49.155262,9.516311,49.231213,9.453979Q49.307164,9.391648,49.388859,9.337061Q49.470554,9.282474,49.55721,9.236157Q49.643860000000004,9.189841,49.73463,9.152241Q49.82541,9.114641,49.91943,9.0861193Q50.01345,9.0575978,50.10982,9.0384294Q50.20619,9.0192611,50.30397,9.00963055Q50.40175,9,50.5,9Q50.59825,9,50.69603,9.00963055Q50.79381,9.0192611,50.89018,9.0384294Q50.98655,9.0575978,51.08057,9.0861193Q51.17459,9.114641,51.26537,9.152241Q51.356139999999996,9.189841,51.44279,9.236157Q51.52945,9.282474,51.61114,9.337061Q51.69284,9.391648,51.76879,9.453979Q51.84474,9.516311,51.91421,9.585786Q51.98369,9.655262,52.04602,9.731213Q52.10835,9.807164,52.16294,9.888859Q52.21753,9.970554,52.26384,10.05721Q52.31016,10.14386,52.34776,10.23463Q52.38536,10.32541,52.41388,10.41943Q52.4424,10.51345,52.46157,10.60982Q52.48074,10.70619,52.49037,10.80397Q52.5,10.90175,52.5,11ZM51.5,11Q51.5,10.58579,51.20711,10.29289Q50.91421,10,50.5,10Q50.08579,10,49.79289,10.29289Q49.5,10.58579,49.5,11Q49.5,11.41421,49.79289,11.70711Q50.08579,12,50.5,12Q50.91421,12,51.20711,11.70711Q51.5,11.41421,51.5,11Z" fill-rule="evenodd" fill="#409EFF" fill-opacity="1"/></g></g></g></svg>