<svg xmlns="http://www.w3.org/2000/svg" xmlns:xlink="http://www.w3.org/1999/xlink" fill="none" version="1.1" width="32" height="32" viewBox="0 0 32 32"><defs><clipPath id="master_svg0_33_739"><rect x="32" y="0" width="32" height="32" rx="0"/></clipPath></defs><g transform="matrix(-1,0,0,1,64,0)" clip-path="url(#master_svg0_33_739)"><rect x="32" y="0" width="32" height="32" rx="0" fill="#FFFFFF" fill-opacity="1"/><g transform="matrix(-1,0,0,1,116,0)"><path d="M60.184,27.608L59.288,27.608L59.076,28.4L58.376,28.4L59.188,25.6L60.288,25.6L61.1,28.4L60.396,28.4L60.184,27.608ZM60.056,27.128L59.74,25.956L59.732,25.956L59.416,27.128L60.056,27.128ZM61.308,25.6L62.372,25.6Q63.032,25.6,63.376,25.972Q63.72,26.344,63.72,27.004Q63.72,27.688,63.376,28.044Q63.032,28.4,62.356,28.4L61.308,28.4L61.308,25.6ZM62.38,27.904Q62.548,27.904,62.7,27.796Q62.852000000000004,27.688,62.946,27.484Q63.04,27.28,63.04,27.008Q63.04,26.748,62.95,26.542Q62.86,26.336,62.708,26.216Q62.556,26.096,62.38,26.096L61.968,26.096L61.968,27.904L62.38,27.904ZM65.488,28.451999999999998Q65.032,28.451999999999998,64.678,28.284Q64.324,28.116,64.122,27.796Q63.92,27.476,63.92,27.036Q63.92,26.572,64.116,26.238Q64.312,25.904,64.664,25.726Q65.016,25.548000000000002,65.468,25.548000000000002Q65.69200000000001,25.548000000000002,65.92,25.592Q66.148,25.636,66.29599999999999,25.704L66.29599999999999,26.2Q65.892,26.052,65.544,26.052Q65.128,26.052,64.87,26.296Q64.612,26.54,64.612,27.036Q64.612,27.3,64.74,27.502Q64.868,27.704,65.076,27.816Q65.284,27.928,65.524,27.944L65.612,27.948Q65.796,27.948,65.976,27.896Q66.156,27.844,66.29599999999999,27.756L66.29599999999999,28.308Q66.124,28.387999999999998,65.93,28.42Q65.736,28.451999999999998,65.488,28.451999999999998ZM68.208,26.224L68.184,26.224L68.184,28.4L67.536,28.4L67.536,25.6L68.588,25.6L69.256,27.812L69.30799999999999,27.812L69.30799999999999,25.6L69.956,25.6L69.956,28.4L68.88,28.4L68.208,26.224ZM71.332,28.451999999999998Q70.992,28.451999999999998,70.734,28.312Q70.476,28.172,70.336,27.914Q70.196,27.656,70.196,27.304Q70.196,26.764,70.5,26.476Q70.804,26.188,71.332,26.188Q71.856,26.188,72.16,26.476Q72.464,26.764,72.464,27.304Q72.464,27.656,72.324,27.914Q72.184,28.172,71.928,28.312Q71.672,28.451999999999998,71.332,28.451999999999998ZM70.828,27.304Q70.828,27.612000000000002,70.968,27.8Q71.108,27.988,71.332,27.988Q71.556,27.988,71.694,27.8Q71.832,27.612000000000002,71.832,27.304Q71.832,26.984,71.69800000000001,26.818Q71.564,26.652,71.332,26.652Q71.1,26.652,70.964,26.818Q70.828,26.984,70.828,27.304ZM73.356,26.24L73.356,28.4L72.716,28.4L72.716,26.24L73.356,26.24ZM72.716,25.324L73.356,25.324L73.356,25.964L72.716,25.964L72.716,25.324ZM74.556,28.448Q74.312,28.46,74.062,28.41Q73.812,28.36,73.628,28.256L73.628,27.68Q73.792,27.8,74.02199999999999,27.878Q74.252,27.956,74.428,27.944Q74.55199999999999,27.936,74.608,27.89Q74.664,27.844,74.672,27.796Q74.69200000000001,27.672,74.612,27.608Q74.532,27.544,74.312,27.484Q74.068,27.416,73.924,27.326Q73.78,27.236,73.706,27.122Q73.632,27.008,73.632,26.832Q73.632,26.648,73.728,26.502Q73.824,26.356,74.032,26.272Q74.24,26.188,74.48,26.188Q74.66,26.188,74.844,26.222Q75.02799999999999,26.256,75.152,26.312L75.152,26.828Q75.024,26.764,74.85,26.714Q74.676,26.664,74.548,26.664Q74.276,26.664,74.252,26.808Q74.24,26.892,74.33,26.956Q74.42,27.02,74.588,27.072Q74.828,27.148,74.982,27.228Q75.136,27.308,75.224,27.436Q75.312,27.564,75.312,27.764Q75.312,28.06,75.1,28.246Q74.888,28.432,74.556,28.448ZM77.44800000000001,28.284Q77.29599999999999,28.376,77.094,28.42Q76.892,28.464,76.70400000000001,28.464Q76.064,28.464,75.73400000000001,28.16Q75.404,27.856,75.404,27.308Q75.404,26.764,75.69800000000001,26.474Q75.992,26.184,76.5,26.184Q77.004,26.184,77.298,26.474Q77.592,26.764,77.592,27.308Q77.592,27.368,77.584,27.48L76.02799999999999,27.48Q76.116,27.996,76.70400000000001,27.996Q77.116,27.996,77.44800000000001,27.752L77.44800000000001,28.284ZM76.988,27.032Q76.936,26.832,76.80799999999999,26.736Q76.68,26.64,76.5,26.64Q76.332,26.64,76.214,26.74Q76.096,26.84,76.048,27.032L76.988,27.032Z" fill="#000000" fill-opacity="1"/></g><g transform="matrix(-1,0,0,1,119.794921875,0)"></g><g transform="matrix(-1,0,0,1,115.91845703125,0)"><path d="M57.968837695625,13.49986765625Q58.496367515625,13.48972765625,59.006888515625,13.49083065625L59.009058515625,12.49083365625Q58.487833515625,12.48970665625,57.949619335625,12.50005165625L57.968837695625,13.49986765625ZM59.512908515625,13.49474165625Q60.537328515625,13.50845965625,61.490788515625,13.56899165625L61.554148515625,12.57100165625Q60.575728515625,12.50888465625,59.526298515625,12.49483165625L59.512908515625,13.49474165625ZM62.003548515625,13.60533365625Q63.022638515625,13.68524165625,63.956898515625,13.82083765625L64.100528515625,12.83120665625Q63.133658515625,12.69087765625,62.081728515625,12.60839365625L62.003548515625,13.60533365625ZM64.467848515625,13.90021065625Q65.479508515625,14.06796265625,66.385898515625,14.30433265625L66.638238515625,13.33669665625Q65.687898515625,13.08886235625,64.631428515625,12.91368145625L64.467848515625,13.90021065625ZM68.394728515625,14.964472656249999Q68.556628515625,15.03042265625,68.720528515625,15.09398265625L69.082028515625,14.16162265625Q68.926028515625,14.10114265625,68.772028515625,14.03837265625Q68.010628515625,13.72817965625,67.158948515625,13.48025665625L66.879448515625,14.44040265625Q67.681348515625,14.67383265625,68.394728515625,14.964472656249999ZM69.202228515625,15.27404265625Q70.159228515625,15.61857265625,71.181428515625,15.88382265625L71.432628515625,14.91587265625Q70.45472851562499,14.66215265625,69.541028515625,14.33316265625L69.202228515625,15.27404265625ZM71.681128515625,16.00783265625Q72.664828515625,16.240952656250002,73.707128515625,16.40288265625L73.860628515625,15.414732656249999Q72.85712851562499,15.25884265625,71.911728515625,15.03478265625L71.681128515625,16.00783265625ZM74.216828515625,16.47733265625Q75.21412851562499,16.61387265625,76.263728515625,16.68697265625L76.333228515625,15.68939265625Q75.316828515625,15.618602656250001,74.35242851562501,15.48657265625L74.216828515625,16.47733265625ZM76.777028515625,16.71876265625Q77.293128515625,16.74679265625,77.82162851562501,16.75984265625L77.846328515625,15.76015265625Q77.332628515625,15.74746265625,76.831228515625,15.72023265625L76.777028515625,16.71876265625Z" fill-rule="evenodd" fill="#000000" fill-opacity="1"/></g><g transform="matrix(-1,0,0,1,119.91845703125,0)"><rect x="59.959228515625" y="11" width="1" height="6" rx="0" fill="#409EFF" fill-opacity="1"/></g><g><path d="M51.29248046875,7L52.29248046875,7L52.29248046875,12.61571Q51.78125746875,12.680769999999999,51.29248046875,12.76122L51.29248046875,7ZM51.29248046875,14.078700000000001L51.29248046875,19L52.29248046875,19L52.29248046875,13.92575Q51.77989846875,13.99404,51.29248046875,14.078700000000001Z" fill-rule="evenodd" fill="#409EFF" fill-opacity="1"/></g><g transform="matrix(-1,0,0,1,73.91845703125,0)"><rect x="36.959228515625" y="14" width="1" height="6" rx="0" fill="#409EFF" fill-opacity="1"/></g><g><path d="M55.1258544921875,9L56.1258544921875,9L56.1258544921875,12.349260000000001Q55.6175044921875,12.35913,55.1258544921875,12.38045L55.1258544921875,9ZM55.1258544921875,13.68132L55.1258544921875,17L56.1258544921875,17L56.1258544921875,13.649329999999999Q55.6167934921875,13.65942,55.1258544921875,13.68132Z" fill-rule="evenodd" fill="#409EFF" fill-opacity="1"/></g><g><path d="M47.4591064453125,5L48.4591064453125,5L48.4591064453125,13.4137Q47.9419864453125,13.57243,47.4591064453125,13.75464L47.4591064453125,5ZM47.4591064453125,15.1523L47.4591064453125,21L48.4591064453125,21L48.4591064453125,14.77849Q48.0040304453125,14.93076,47.5802844453125,15.1034Q47.5198173453125,15.128,47.4591064453125,15.1523Z" fill-rule="evenodd" fill="#409EFF" fill-opacity="1"/></g><g><path d="M43.625732421875,8L44.625732421875,8L44.625732421875,14.72386Q44.134015421875,14.85571,43.625732421875,14.9682L43.625732421875,8ZM43.625732421875,16.29796L43.625732421875,20L44.625732421875,20L44.625732421875,16.067149999999998Q44.133158421875,16.19163,43.625732421875,16.29796Z" fill-rule="evenodd" fill="#409EFF" fill-opacity="1"/></g><g><path d="M39.7923583984375,10L40.7923583984375,10L40.7923583984375,15.43085Q40.2989653984375,15.48508,39.7923583984375,15.523869999999999L39.7923583984375,10ZM39.7923583984375,16.82751L39.7923583984375,18L40.7923583984375,18L40.7923583984375,16.73832Q40.2984033984375,16.790300000000002,39.7923583984375,16.82751Z" fill-rule="evenodd" fill="#409EFF" fill-opacity="1"/></g><g transform="matrix(-1,0,0,1,113.506591796875,0)"><path d="M60.8829258984375,23.0011658203125Q58.7512158984375,22.0995258203125,57.1068488984375,20.4551628203125L56.3997428984375,21.1622688203125Q58.1820258984375,22.9445558203125,60.4933758984375,23.9221758203125Q62.8867558984375,24.9344858203125,65.50667589843749,24.9344858203125Q68.1265958984375,24.9344858203125,70.5199958984375,23.9221758203125Q72.8312958984375,22.9445558203125,74.6135958984375,21.1622698203125L73.9064958984375,20.4551618203125Q72.26209589843751,22.0995358203125,70.1303958984375,23.0011658203125Q67.9237958984375,23.9344858203125,65.50667589843749,23.9344858203125Q63.089535898437504,23.9344858203125,60.8829258984375,23.0011658203125Z" fill-rule="evenodd" fill="#000000" fill-opacity="1"/></g></g></svg>