<svg xmlns="http://www.w3.org/2000/svg" xmlns:xlink="http://www.w3.org/1999/xlink" fill="none" version="1.1" width="32" height="32" viewBox="0 0 32 32"><defs><clipPath id="master_svg0_33_906"><rect x="32" y="0" width="32" height="32" rx="0"/></clipPath></defs><g transform="matrix(-1,0,0,1,64,0)" clip-path="url(#master_svg0_33_906)"><rect x="32" y="0" width="32" height="32" rx="0" fill="#FFFFFF" fill-opacity="1"/><g transform="matrix(-1,0,0,1,120,0)"><path d="M60.252,14.6L60.912,14.6L60.912,17.4L60.252,17.4L60.252,14.6ZM62.648,17.451999999999998Q62.212,17.451999999999998,61.882,17.276Q61.552,17.1,61.378,16.778Q61.204,16.456,61.204,16.02Q61.204,15.592,61.382,15.256Q61.56,14.92,61.89,14.734Q62.22,14.548,62.648,14.548Q63.056,14.548,63.39,14.732Q63.724000000000004,14.916,63.906,15.252Q64.088,15.588000000000001,64.088,16.02Q64.088,16.488,63.89,16.818Q63.692,17.148,63.332,17.308Q63.428,17.496,63.536,17.752L62.944,17.752Q62.856,17.56,62.796,17.444Q62.704,17.451999999999998,62.648,17.451999999999998ZM61.836,16.02Q61.836,16.3,61.938,16.509999999999998Q62.04,16.72,62.22,16.838Q62.4,16.956,62.648,16.956Q62.892,16.956,63.07,16.838Q63.248,16.72,63.35,16.509999999999998Q63.452,16.3,63.452,16.02Q63.452,15.764,63.354,15.542Q63.256,15.32,63.074,15.176Q62.892,15.032,62.64,15.032Q62.403999999999996,15.032,62.224000000000004,15.17Q62.044,15.308,61.94,15.53Q61.836,15.752,61.836,16.02ZM65.3,14.6L65.96,14.6L65.96,17.4L65.3,17.4L65.3,14.6ZM66.932,15.236L66.932,15.464Q67.076,15.348,67.252,15.284Q67.428,15.22,67.608,15.22Q67.788,15.22,67.92,15.286Q68.05199999999999,15.352,68.128,15.468Q68.276,15.348,68.452,15.284Q68.628,15.22,68.80799999999999,15.22Q69.112,15.22,69.276,15.4Q69.44,15.58,69.44,15.868L69.44,17.4L68.8,17.4L68.8,15.975999999999999Q68.8,15.86,68.722,15.786Q68.644,15.712,68.516,15.712Q68.46000000000001,15.712,68.384,15.736Q68.30799999999999,15.76,68.236,15.8Q68.236,15.824,68.236,15.868L68.236,17.4L67.6,17.4L67.6,15.975999999999999Q67.6,15.86,67.522,15.786Q67.444,15.712,67.316,15.712Q67.24,15.712,67.128,15.756Q67.016,15.8,66.932,15.872L66.932,17.4L66.292,17.4L66.292,15.236L66.932,15.236ZM70.892,17.451999999999998Q70.53999999999999,17.451999999999998,70.288,17.256Q70.268,17.344,70.24,17.4L69.64,17.4Q69.72,17.22,69.72,16.9L69.72,14.324L70.36,14.324L70.36,15.379999999999999Q70.48,15.288,70.618,15.24Q70.756,15.192,70.892,15.192Q71.188,15.192,71.41,15.336Q71.632,15.48,71.754,15.738Q71.876,15.996,71.876,16.328Q71.876,16.656,71.756,16.912Q71.636,17.168,71.412,17.31Q71.188,17.451999999999998,70.892,17.451999999999998ZM70.292,16.740000000000002Q70.376,16.9,70.504,16.948Q70.632,16.996,70.736,16.996Q70.872,16.996,70.994,16.906Q71.116,16.816,71.19,16.664Q71.264,16.512,71.264,16.328Q71.264,16.14,71.19,15.984Q71.116,15.828,70.994,15.74Q70.872,15.652,70.736,15.652Q70.632,15.652,70.504,15.702Q70.376,15.752,70.292,15.908L70.292,16.740000000000002ZM72.996,17.451999999999998Q72.69200000000001,17.451999999999998,72.466,17.308Q72.24,17.164,72.118,16.912Q71.996,16.66,71.996,16.323999999999998Q71.996,15.992,72.118,15.734Q72.24,15.475999999999999,72.462,15.332Q72.684,15.188,72.98,15.188Q73.116,15.188,73.254,15.238Q73.392,15.288,73.512,15.376L73.512,15.24L74.152,15.24L74.152,16.896Q74.152,17.22,74.232,17.4L73.632,17.4Q73.604,17.344,73.584,17.256Q73.336,17.451999999999998,72.996,17.451999999999998ZM72.608,16.323999999999998Q72.608,16.508,72.682,16.66Q72.756,16.812,72.878,16.902Q73,16.992,73.136,16.992Q73.232,16.992,73.352,16.95Q73.472,16.908,73.56,16.768L73.56,15.872Q73.472,15.732,73.354,15.692Q73.236,15.652,73.136,15.652Q73,15.652,72.878,15.74Q72.756,15.828,72.682,15.982Q72.608,16.136,72.608,16.323999999999998ZM75.16,17.432Q74.8,17.432,74.616,17.23Q74.432,17.028,74.432,16.636L74.432,14.324L75.072,14.324L75.072,16.476Q75.072,16.636,75.096,16.72Q75.12,16.804,75.176,16.848Q75.22,16.884,75.274,16.894Q75.328,16.904,75.464,16.904L75.464,17.432L75.16,17.432ZM76.504,17.451999999999998Q76.2,17.451999999999998,75.974,17.308Q75.748,17.164,75.626,16.912Q75.504,16.66,75.504,16.323999999999998Q75.504,15.992,75.626,15.734Q75.748,15.475999999999999,75.97,15.332Q76.19200000000001,15.188,76.488,15.188Q76.624,15.188,76.762,15.238Q76.9,15.288,77.02,15.376L77.02,15.24L77.66,15.24L77.66,16.896Q77.66,17.22,77.74,17.4L77.14,17.4Q77.112,17.344,77.092,17.256Q76.844,17.451999999999998,76.504,17.451999999999998ZM76.116,16.323999999999998Q76.116,16.508,76.19,16.66Q76.264,16.812,76.386,16.902Q76.508,16.992,76.644,16.992Q76.74,16.992,76.86,16.95Q76.98,16.908,77.068,16.768L77.068,15.872Q76.98,15.732,76.862,15.692Q76.744,15.652,76.644,15.652Q76.508,15.652,76.386,15.74Q76.264,15.828,76.19,15.982Q76.116,16.136,76.116,16.323999999999998ZM78.58,15.232L78.58,15.492Q78.72800000000001,15.364,78.918,15.292Q79.108,15.22,79.29599999999999,15.22Q79.604,15.22,79.786,15.4Q79.968,15.58,79.968,15.868L79.968,17.392L79.328,17.392L79.328,15.975999999999999Q79.328,15.86,79.232,15.786Q79.136,15.712,79.004,15.712Q78.92,15.712,78.794,15.768Q78.668,15.824,78.58,15.904L78.58,17.392L77.94,17.392L77.94,15.232L78.58,15.232ZM82.048,17.328Q81.74,17.451999999999998,81.416,17.451999999999998Q81.076,17.451999999999998,80.78999999999999,17.314Q80.504,17.176000000000002,80.336,16.922Q80.168,16.668,80.168,16.336Q80.168,15.988,80.328,15.728Q80.488,15.468,80.76599999999999,15.33Q81.044,15.192,81.388,15.192Q81.7,15.192,82.02,15.304L82.02,15.796Q81.776,15.692,81.52,15.692Q81.20400000000001,15.692,80.996,15.842Q80.788,15.992,80.788,16.336Q80.788,16.532,80.896,16.668Q81.004,16.804,81.176,16.874Q81.348,16.944,81.53999999999999,16.944Q81.688,16.944,81.822,16.902Q81.956,16.86,82.048,16.784L82.048,17.328ZM84.212,17.284Q84.06,17.376,83.858,17.42Q83.656,17.464,83.468,17.464Q82.828,17.464,82.498,17.16Q82.168,16.856,82.168,16.308Q82.168,15.764,82.462,15.474Q82.756,15.184,83.264,15.184Q83.768,15.184,84.062,15.474Q84.356,15.764,84.356,16.308Q84.356,16.368,84.348,16.48L82.792,16.48Q82.88,16.996,83.468,16.996Q83.88,16.996,84.212,16.752L84.212,17.284ZM83.752,16.032Q83.7,15.832,83.572,15.736Q83.444,15.64,83.264,15.64Q83.096,15.64,82.97800000000001,15.74Q82.86,15.84,82.812,16.032L83.752,16.032Z" fill="#000000" fill-opacity="1"/></g><g transform="matrix(-1,0,0,1,122,0)"><path d="M86.5,24L86.5,19L85.5,19L85.5,23L84,23L84,18.5L77.5,18.5L77.5,26.5L76,26.5L76,18.5L70.5,18.5L70.5,23.5L68.5,23.5L68.5,28.5L67,28.5L67,18.5L62.5,18.5L62.5,25.5L61,25.5L61,26.5L63.5,26.5L63.5,19.5L66,19.5L66,29.5L69.5,29.5L69.5,24.5L71.5,24.5L71.5,19.5L75,19.5L75,27.5L78.5,27.5L78.5,19.5L83,19.5L83,24L86.5,24Z" fill-rule="evenodd" fill="#409EFF" fill-opacity="1"/></g><g transform="matrix(1,0,0,-1,0,26)"><path d="M61.5,18L61.5,13L60.5,13L60.5,17L59,17L59,12.5L52.5,12.5L52.5,20.5L51,20.5L51,12.5L45.5,12.5L45.5,17.5L43.5,17.5L43.5,22.5L42,22.5L42,12.5L37.5,12.5L37.5,19.5L36,19.5L36,20.5L38.5,20.5L38.5,13.5L41,13.5L41,23.5L44.5,23.5L44.5,18.5L46.5,18.5L46.5,13.5L50,13.5L50,21.5L53.5,21.5L53.5,13.5L58,13.5L58,18L61.5,18Z" fill-rule="evenodd" fill="#409EFF" fill-opacity="1"/></g><g transform="matrix(-1,0,0,1,124,0)"><path d="M62,13.5L90,13.5L90,12.5L62,12.5L62,13.5ZM90,18.5L62,18.5L62,19.5L90,19.5L90,18.5Z" fill-rule="evenodd" fill="#000000" fill-opacity="1"/></g></g></svg>