<svg xmlns="http://www.w3.org/2000/svg" xmlns:xlink="http://www.w3.org/1999/xlink" fill="none" version="1.1" width="32" height="32" viewBox="0 0 32 32"><defs><clipPath id="master_svg0_33_705"><rect x="32" y="0" width="32" height="32" rx="0"/></clipPath></defs><g transform="matrix(-1,0,0,1,64,0)" clip-path="url(#master_svg0_33_705)"><rect x="32" y="0" width="32" height="32" rx="0" fill="#FFFFFF" fill-opacity="1"/><g transform="matrix(-1,0,0,1,126,0)"><path d="M65.258,28.608L64.362,28.608L64.15,29.4L63.45,29.4L64.262,26.6L65.362,26.6L66.174,29.4L65.47,29.4L65.258,28.608ZM65.13,28.128L64.814,26.956L64.806,26.956L64.49,28.128L65.13,28.128ZM67.366,29.451999999999998Q67.07,29.451999999999998,66.846,29.31Q66.622,29.168,66.502,28.912Q66.382,28.656,66.382,28.328Q66.382,27.996,66.504,27.738Q66.626,27.48,66.848,27.336Q67.07,27.192,67.366,27.192Q67.502,27.192,67.64,27.24Q67.778,27.288,67.898,27.38L67.898,26.324L68.538,26.324L68.538,28.9Q68.538,29.22,68.618,29.4L68.018,29.4Q67.99,29.344,67.97,29.256Q67.718,29.451999999999998,67.366,29.451999999999998ZM66.994,28.328Q66.994,28.512,67.068,28.664Q67.142,28.816,67.264,28.906Q67.386,28.996,67.522,28.996Q67.63,28.996,67.76,28.944Q67.89,28.892,67.974,28.728L67.974,27.924Q67.89,27.756,67.76,27.704Q67.63,27.652,67.522,27.652Q67.386,27.652,67.264,27.74Q67.142,27.828,67.068,27.984Q66.994,28.14,66.994,28.328ZM69.842,29.451999999999998Q69.546,29.451999999999998,69.322,29.31Q69.098,29.168,68.978,28.912Q68.858,28.656,68.858,28.328Q68.858,27.996,68.98,27.738Q69.102,27.48,69.324,27.336Q69.546,27.192,69.842,27.192Q69.978,27.192,70.116,27.24Q70.254,27.288,70.374,27.38L70.374,26.324L71.014,26.324L71.014,28.9Q71.014,29.22,71.094,29.4L70.494,29.4Q70.466,29.344,70.446,29.256Q70.194,29.451999999999998,69.842,29.451999999999998ZM69.47,28.328Q69.47,28.512,69.544,28.664Q69.618,28.816,69.74,28.906Q69.862,28.996,69.998,28.996Q70.106,28.996,70.236,28.944Q70.366,28.892,70.45,28.728L70.45,27.924Q70.366,27.756,70.236,27.704Q70.106,27.652,69.998,27.652Q69.862,27.652,69.74,27.74Q69.618,27.828,69.544,27.984Q69.47,28.14,69.47,28.328ZM72.494,26.6L73.55799999999999,26.6Q74.218,26.6,74.562,26.972Q74.906,27.344,74.906,28.004Q74.906,28.688,74.562,29.044Q74.218,29.4,73.542,29.4L72.494,29.4L72.494,26.6ZM73.566,28.904Q73.734,28.904,73.886,28.796Q74.038,28.688,74.132,28.484Q74.226,28.28,74.226,28.008Q74.226,27.748,74.136,27.542Q74.04599999999999,27.336,73.894,27.216Q73.742,27.096,73.566,27.096L73.154,27.096L73.154,28.904L73.566,28.904ZM76.962,28.608L76.066,28.608L75.854,29.4L75.154,29.4L75.966,26.6L77.066,26.6L77.878,29.4L77.174,29.4L76.962,28.608ZM76.834,28.128L76.518,26.956L76.51,26.956L76.194,28.128L76.834,28.128ZM79.694,29.451999999999998Q79.238,29.451999999999998,78.884,29.284Q78.53,29.116,78.328,28.796Q78.126,28.476,78.126,28.036Q78.126,27.572,78.322,27.238Q78.518,26.904,78.87,26.726Q79.22200000000001,26.548000000000002,79.674,26.548000000000002Q79.898,26.548000000000002,80.126,26.592Q80.354,26.636,80.502,26.704L80.502,27.2Q80.098,27.052,79.75,27.052Q79.334,27.052,79.076,27.296Q78.818,27.54,78.818,28.036Q78.818,28.3,78.946,28.502Q79.074,28.704,79.282,28.816Q79.49,28.928,79.73,28.944L79.818,28.948Q80.002,28.948,80.182,28.896Q80.362,28.844,80.502,28.756L80.502,29.308Q80.33,29.387999999999998,80.136,29.42Q79.94200000000001,29.451999999999998,79.694,29.451999999999998ZM82.654,27.224L82.63,27.224L82.63,29.4L81.982,29.4L81.982,26.6L83.03399999999999,26.6L83.702,28.812L83.754,28.812L83.754,26.6L84.402,26.6L84.402,29.4L83.326,29.4L82.654,27.224ZM85.898,29.451999999999998Q85.55799999999999,29.451999999999998,85.3,29.312Q85.042,29.172,84.902,28.914Q84.762,28.656,84.762,28.304Q84.762,27.764,85.066,27.476Q85.37,27.188,85.898,27.188Q86.422,27.188,86.726,27.476Q87.03,27.764,87.03,28.304Q87.03,28.656,86.89,28.914Q86.75,29.172,86.494,29.312Q86.238,29.451999999999998,85.898,29.451999999999998ZM85.394,28.304Q85.394,28.612000000000002,85.53399999999999,28.8Q85.674,28.988,85.898,28.988Q86.122,28.988,86.26,28.8Q86.398,28.612000000000002,86.398,28.304Q86.398,27.984,86.264,27.818Q86.13,27.652,85.898,27.652Q85.666,27.652,85.53,27.818Q85.394,27.984,85.394,28.304ZM88.042,27.24L88.042,29.4L87.402,29.4L87.402,27.24L88.042,27.24ZM87.402,26.324L88.042,26.324L88.042,26.964L87.402,26.964L87.402,26.324ZM89.362,29.448Q89.118,29.46,88.868,29.41Q88.618,29.36,88.434,29.256L88.434,28.68Q88.598,28.8,88.828,28.878Q89.05799999999999,28.956,89.23400000000001,28.944Q89.358,28.936,89.414,28.89Q89.47,28.844,89.47800000000001,28.796Q89.498,28.672,89.418,28.608Q89.338,28.544,89.118,28.484Q88.874,28.416,88.73,28.326Q88.586,28.236,88.512,28.122Q88.438,28.008,88.438,27.832Q88.438,27.648,88.53399999999999,27.502Q88.63,27.356,88.838,27.272Q89.04599999999999,27.188,89.286,27.188Q89.46600000000001,27.188,89.65,27.222Q89.834,27.256,89.958,27.312L89.958,27.828Q89.83,27.764,89.656,27.714Q89.482,27.664,89.354,27.664Q89.082,27.664,89.05799999999999,27.808Q89.04599999999999,27.892,89.136,27.956Q89.226,28.02,89.394,28.072Q89.634,28.148,89.788,28.228Q89.94200000000001,28.308,90.03,28.436Q90.118,28.564,90.118,28.764Q90.118,29.06,89.906,29.246Q89.694,29.432,89.362,29.448ZM92.374,29.284Q92.22200000000001,29.376,92.02,29.42Q91.818,29.464,91.63,29.464Q90.99,29.464,90.66,29.16Q90.33,28.856,90.33,28.308Q90.33,27.764,90.624,27.474Q90.918,27.184,91.426,27.184Q91.93,27.184,92.224,27.474Q92.518,27.764,92.518,28.308Q92.518,28.368,92.51,28.48L90.95400000000001,28.48Q91.042,28.996,91.63,28.996Q92.042,28.996,92.374,28.752L92.374,29.284ZM91.914,28.032Q91.862,27.832,91.73400000000001,27.736Q91.606,27.64,91.426,27.64Q91.258,27.64,91.14,27.74Q91.02199999999999,27.84,90.974,28.032L91.914,28.032Z" fill="#000000" fill-opacity="1"/></g><g transform="matrix(-1,0,0,1,117.5,0)"><path d="M58.25,8Q58.25,7.9507543,58.259607,7.9024549Q58.269215,7.854155,58.28806,7.808658Q58.306906,7.763161,58.334265,7.722215Q58.361625,7.681269,58.396447,7.646447Q58.431269,7.611625,58.472215,7.584265Q58.513161,7.556906,58.558658,7.53806Q58.604155,7.519215,58.6524549,7.509607Q58.7007543,7.5,58.75,7.5Q58.7992457,7.5,58.8475451,7.509607Q58.895845,7.519215,58.941342,7.53806Q58.986839,7.556906,59.027785,7.584265Q59.068731,7.611625,59.103553,7.646447Q59.138375,7.681269,59.165735,7.722215Q59.193094,7.763161,59.21194,7.808658Q59.230785,7.854155,59.240393,7.9024549Q59.25,7.9507543,59.25,8L59.25,18Q59.25,18.0492,59.240393,18.0975Q59.230785,18.1458,59.21194,18.1913Q59.193094,18.236800000000002,59.165735,18.2778Q59.138375,18.3187,59.103553,18.3536Q59.068731,18.3884,59.027785,18.4157Q58.986839,18.4431,58.941342,18.4619Q58.895845,18.480800000000002,58.8475451,18.4904Q58.7992457,18.5,58.75,18.5Q58.7007543,18.5,58.6524549,18.4904Q58.604155,18.480800000000002,58.558658,18.4619Q58.513161,18.4431,58.472215,18.4157Q58.431269,18.3884,58.396447,18.3536Q58.361625,18.3187,58.334265,18.2778Q58.306906,18.236800000000002,58.28806,18.1913Q58.269215,18.1458,58.259607,18.0975Q58.25,18.0492,58.25,18L58.25,8Z" fill-rule="evenodd" fill="#000000" fill-opacity="1"/></g><g transform="matrix(-1,0,0,1,79,0)"><path d="M39,14Q39,13.9507543,39.009607,13.9024549Q39.019215,13.854155,39.03806,13.808658Q39.056906,13.763161,39.084265,13.722215Q39.111625,13.681269,39.146447,13.646447Q39.181269,13.611625,39.222215,13.584265Q39.263161,13.556906,39.308658,13.53806Q39.354155,13.519214999999999,39.4024549,13.509607Q39.4507543,13.5,39.5,13.5Q39.5492457,13.5,39.5975451,13.509607Q39.645845,13.519214999999999,39.691342,13.53806Q39.736839,13.556906,39.777785,13.584265Q39.818731,13.611625,39.853553,13.646447Q39.888375,13.681269,39.915735,13.722215Q39.943094,13.763161,39.96194,13.808658Q39.980785,13.854155,39.990393,13.9024549Q40,13.9507543,40,14L40,20Q40,20.04925,39.990393,20.09755Q39.980785,20.14584,39.96194,20.19134Q39.943094,20.23684,39.915735,20.27778Q39.888375,20.318730000000002,39.853553,20.35355Q39.818731,20.388370000000002,39.777785,20.41573Q39.736839,20.443089999999998,39.691342,20.46194Q39.645845,20.48078,39.5975451,20.490389999999998Q39.5492457,20.5,39.5,20.5Q39.4507543,20.5,39.4024549,20.490389999999998Q39.354155,20.48078,39.308658,20.46194Q39.263161,20.443089999999998,39.222215,20.41573Q39.181269,20.388370000000002,39.146447,20.35355Q39.111625,20.318730000000002,39.084265,20.27778Q39.056906,20.23684,39.03806,20.19134Q39.019215,20.14584,39.009607,20.09755Q39,20.04925,39,20L39,14Z" fill-rule="evenodd" fill="#409EFF" fill-opacity="1"/></g><g transform="matrix(0,1,-1,0,59.5,-25.5)"><path d="M42,17Q42,16.9507543,42.009607,16.9024549Q42.019215,16.854155,42.03806,16.808658Q42.056906,16.763161,42.084265,16.722215Q42.111625,16.681269,42.146447,16.646447Q42.181269,16.611625,42.222215,16.584265Q42.263161,16.556906,42.308658,16.53806Q42.354155,16.519215,42.4024549,16.509607Q42.4507543,16.5,42.5,16.5Q42.5492457,16.5,42.5975451,16.509607Q42.645845,16.519215,42.691342,16.53806Q42.736839,16.556906,42.777785,16.584265Q42.818731,16.611625,42.853553,16.646447Q42.888375,16.681269,42.915735,16.722215Q42.943094,16.763161,42.96194,16.808658Q42.980785,16.854155,42.990393,16.9024549Q43,16.9507543,43,17L43,23Q43,23.04925,42.990393,23.09755Q42.980785,23.14584,42.96194,23.19134Q42.943094,23.23684,42.915735,23.27778Q42.888375,23.318730000000002,42.853553,23.35355Q42.818731,23.388370000000002,42.777785,23.41573Q42.736839,23.443089999999998,42.691342,23.46194Q42.645845,23.48078,42.5975451,23.490389999999998Q42.5492457,23.5,42.5,23.5Q42.4507543,23.5,42.4024549,23.490389999999998Q42.354155,23.48078,42.308658,23.46194Q42.263161,23.443089999999998,42.222215,23.41573Q42.181269,23.388370000000002,42.146447,23.35355Q42.111625,23.318730000000002,42.084265,23.27778Q42.056906,23.23684,42.03806,23.19134Q42.019215,23.14584,42.009607,23.09755Q42,23.04925,42,23L42,17Z" fill-rule="evenodd" fill="#409EFF" fill-opacity="1"/></g><g transform="matrix(-1,0,0,1,110.333251953125,0)"><path d="M54.6666259765625,11Q54.6666259765625,10.9507543,54.6762329765625,10.9024549Q54.6858409765625,10.854155,54.7046859765625,10.808658Q54.7235319765625,10.763161,54.7508909765625,10.722215Q54.7782509765625,10.681269,54.8130729765625,10.646447Q54.8478949765625,10.611625,54.8888409765625,10.584265Q54.9297869765625,10.556906,54.9752839765625,10.53806Q55.0207809765625,10.519214999999999,55.0690808765625,10.509607Q55.1173802765625,10.5,55.1666259765625,10.5Q55.2158716765625,10.5,55.2641710765625,10.509607Q55.3124709765625,10.519214999999999,55.3579679765625,10.53806Q55.4034649765625,10.556906,55.4444109765625,10.584265Q55.4853569765625,10.611625,55.5201789765625,10.646447Q55.5550009765625,10.681269,55.5823609765625,10.722215Q55.6097199765625,10.763161,55.6285659765625,10.808658Q55.6474109765625,10.854155,55.6570189765625,10.9024549Q55.6666259765625,10.9507543,55.6666259765625,11L55.6666259765625,18Q55.6666259765625,18.04925,55.6570189765625,18.097540000000002Q55.6474109765625,18.14584,55.6285659765625,18.19134Q55.6097199765625,18.23684,55.5823609765625,18.27778Q55.5550009765625,18.318730000000002,55.5201789765625,18.35355Q55.4853569765625,18.388370000000002,55.4444109765625,18.41573Q55.4034649765625,18.443089999999998,55.3579679765625,18.46194Q55.3124709765625,18.48078,55.2641710765625,18.490389999999998Q55.2158716765625,18.5,55.1666259765625,18.5Q55.1173802765625,18.5,55.0690808765625,18.490389999999998Q55.0207809765625,18.48078,54.9752839765625,18.46194Q54.9297869765625,18.443089999999998,54.8888409765625,18.41573Q54.8478949765625,18.388370000000002,54.8130729765625,18.35355Q54.7782509765625,18.318730000000002,54.7508909765625,18.27778Q54.7235319765625,18.23684,54.7046859765625,18.19134Q54.6858409765625,18.14584,54.6762329765625,18.097540000000002Q54.6666259765625,18.04925,54.6666259765625,18L54.6666259765625,11Z" fill-rule="evenodd" fill="#000000" fill-opacity="1"/></g><g transform="matrix(-1,0,0,1,103.16650390625,0)"><path d="M51.083251953125,9Q51.083251953125,8.9507543,51.092858953125,8.9024549Q51.102466953125,8.854155,51.121311953125,8.808658Q51.140157953125,8.763161,51.167516953125,8.722215Q51.194876953125,8.681269,51.229698953125,8.646447Q51.264520953125,8.611625,51.305466953125,8.584265Q51.346412953125,8.556906,51.391909953125,8.53806Q51.437406953125,8.519214999999999,51.485706853125,8.509607Q51.534006253125,8.5,51.583251953125,8.5Q51.632497653125,8.5,51.680797053125,8.509607Q51.729096953125,8.519214999999999,51.774593953125,8.53806Q51.820090953125,8.556906,51.861036953125,8.584265Q51.901982953125,8.611625,51.936804953125,8.646447Q51.971626953125,8.681269,51.998986953125,8.722215Q52.026345953125,8.763161,52.045191953125,8.808658Q52.064036953125,8.854155,52.073644953125,8.9024549Q52.083251953125,8.9507543,52.083251953125,9L52.083251953125,18Q52.083251953125,18.049239999999998,52.073644953125,18.097540000000002Q52.064036953125,18.14584,52.045191953125,18.19134Q52.026345953125,18.23684,51.998986953125,18.27778Q51.971626953125,18.318730000000002,51.936804953125,18.35355Q51.901982953125,18.388370000000002,51.861036953125,18.41573Q51.820090953125,18.443089999999998,51.774593953125,18.46194Q51.729096953125,18.48078,51.680797053125,18.490389999999998Q51.632497653125,18.5,51.583251953125,18.5Q51.534006253125,18.5,51.485706853125,18.490389999999998Q51.437406953125,18.48078,51.391909953125,18.46194Q51.346412953125,18.443089999999998,51.305466953125,18.41573Q51.264520953125,18.388370000000002,51.229698953125,18.35355Q51.194876953125,18.318730000000002,51.167516953125,18.27778Q51.140157953125,18.23684,51.121311953125,18.19134Q51.102466953125,18.14584,51.092858953125,18.097540000000002Q51.083251953125,18.049239999999998,51.083251953125,18L51.083251953125,9Z" fill-rule="evenodd" fill="#000000" fill-opacity="1"/></g><g transform="matrix(-1,0,0,1,95.999755859375,0)"><path d="M47.4998779296875,14Q47.4998779296875,13.9507543,47.5094849296875,13.9024549Q47.5190929296875,13.854155,47.5379379296875,13.808658Q47.5567839296875,13.763161,47.5841429296875,13.722215Q47.6115029296875,13.681269,47.6463249296875,13.646447Q47.6811469296875,13.611625,47.7220929296875,13.584265Q47.7630389296875,13.556906,47.8085359296875,13.53806Q47.8540329296875,13.519214999999999,47.9023328296875,13.509607Q47.9506322296875,13.5,47.9998779296875,13.5Q48.0491236296875,13.5,48.0974230296875,13.509607Q48.1457229296875,13.519214999999999,48.1912199296875,13.53806Q48.2367169296875,13.556906,48.2776629296875,13.584265Q48.3186089296875,13.611625,48.3534309296875,13.646447Q48.3882529296875,13.681269,48.4156129296875,13.722215Q48.4429719296875,13.763161,48.4618179296875,13.808658Q48.4806629296875,13.854155,48.4902709296875,13.9024549Q48.4998779296875,13.9507543,48.4998779296875,14L48.4998779296875,18Q48.4998779296875,18.04925,48.4902709296875,18.09755Q48.4806629296875,18.14584,48.4618179296875,18.19134Q48.4429719296875,18.23684,48.4156129296875,18.27778Q48.3882529296875,18.318730000000002,48.3534309296875,18.35355Q48.3186089296875,18.388370000000002,48.2776629296875,18.41573Q48.2367169296875,18.443089999999998,48.1912199296875,18.46194Q48.1457229296875,18.48078,48.0974230296875,18.490389999999998Q48.0491236296875,18.5,47.9998779296875,18.5Q47.9506322296875,18.5,47.9023328296875,18.490389999999998Q47.8540329296875,18.48078,47.8085359296875,18.46194Q47.7630389296875,18.443089999999998,47.7220929296875,18.41573Q47.6811469296875,18.388370000000002,47.6463249296875,18.35355Q47.6115029296875,18.318730000000002,47.5841429296875,18.27778Q47.5567839296875,18.23684,47.5379379296875,18.19134Q47.5190929296875,18.14584,47.5094849296875,18.09755Q47.4998779296875,18.04925,47.4998779296875,18L47.4998779296875,14Z" fill-rule="evenodd" fill="#000000" fill-opacity="1"/></g><g transform="matrix(-1,0,0,1,88.8330078125,0)"><path d="M43.91650390625,14Q43.91650390625,13.9507543,43.92611090625,13.9024549Q43.93571890625,13.854155,43.95456390625,13.808658Q43.97340990625,13.763161,44.00076890625,13.722215Q44.02812890625,13.681269,44.06295090625,13.646447Q44.09777290625,13.611625,44.13871890625,13.584265Q44.17966490625,13.556906,44.22516190625,13.53806Q44.27065890625,13.519214999999999,44.31895880625,13.509607Q44.36725820625,13.5,44.41650390625,13.5Q44.46574960625,13.5,44.51404900625,13.509607Q44.56234890625,13.519214999999999,44.60784590625,13.53806Q44.65334290625,13.556906,44.69428890625,13.584265Q44.73523490625,13.611625,44.77005690625,13.646447Q44.80487890625,13.681269,44.83223890625,13.722215Q44.85959790625,13.763161,44.87844390625,13.808658Q44.89728890625,13.854155,44.90689690625,13.9024549Q44.91650390625,13.9507543,44.91650390625,14L44.91650390625,18Q44.91650390625,18.04925,44.90689690625,18.09755Q44.89728890625,18.14584,44.87844390625,18.19134Q44.85959790625,18.23684,44.83223890625,18.27778Q44.80487890625,18.318730000000002,44.77005690625,18.35355Q44.73523490625,18.388370000000002,44.69428890625,18.41573Q44.65334290625,18.443089999999998,44.60784590625,18.46194Q44.56234890625,18.48078,44.51404900625,18.490389999999998Q44.46574960625,18.5,44.41650390625,18.5Q44.36725820625,18.5,44.31895880625,18.490389999999998Q44.27065890625,18.48078,44.22516190625,18.46194Q44.17966490625,18.443089999999998,44.13871890625,18.41573Q44.09777290625,18.388370000000002,44.06295090625,18.35355Q44.02812890625,18.318730000000002,44.00076890625,18.27778Q43.97340990625,18.23684,43.95456390625,18.19134Q43.93571890625,18.14584,43.92611090625,18.09755Q43.91650390625,18.04925,43.91650390625,18L43.91650390625,14Z" fill-rule="evenodd" fill="#000000" fill-opacity="1"/></g><g transform="matrix(-1,0,0,1,81.666259765625,0)"><path d="M40.3331298828125,7Q40.3331298828125,6.9507543,40.3427368828125,6.9024549Q40.3523448828125,6.854155,40.3711898828125,6.808658Q40.3900358828125,6.763161,40.4173948828125,6.722215Q40.4447548828125,6.681269,40.4795768828125,6.646447Q40.5143988828125,6.611625,40.5553448828125,6.584265Q40.5962908828125,6.556906,40.6417878828125,6.53806Q40.6872848828125,6.519215,40.7355847828125,6.509607Q40.7838841828125,6.5,40.8331298828125,6.5Q40.8823755828125,6.5,40.9306749828125,6.509607Q40.9789748828125,6.519215,41.0244718828125,6.53806Q41.0699688828125,6.556906,41.1109148828125,6.584265Q41.1518608828125,6.611625,41.1866828828125,6.646447Q41.2215048828125,6.681269,41.2488648828125,6.722215Q41.2762238828125,6.763161,41.2950698828125,6.808658Q41.3139148828125,6.854155,41.3235228828125,6.9024549Q41.3331298828125,6.9507543,41.3331298828125,7L41.3331298828125,12Q41.3331298828125,12.04925,41.3235228828125,12.09755Q41.3139148828125,12.14584,41.2950698828125,12.19134Q41.2762238828125,12.23684,41.2488648828125,12.27778Q41.2215048828125,12.31873,41.1866828828125,12.35355Q41.1518608828125,12.38837,41.1109148828125,12.41573Q41.0699688828125,12.44309,41.0244718828125,12.46194Q40.9789748828125,12.48078,40.9306749828125,12.49039Q40.8823755828125,12.5,40.8331298828125,12.5Q40.7838841828125,12.5,40.7355847828125,12.49039Q40.6872848828125,12.48078,40.6417878828125,12.46194Q40.5962908828125,12.44309,40.5553448828125,12.41573Q40.5143988828125,12.38837,40.4795768828125,12.35355Q40.4447548828125,12.31873,40.4173948828125,12.27778Q40.3900358828125,12.23684,40.3711898828125,12.19134Q40.3523448828125,12.14584,40.3427368828125,12.09755Q40.3331298828125,12.04925,40.3331298828125,12L40.3331298828125,7Z" fill-rule="evenodd" fill="#000000" fill-opacity="1"/></g><g transform="matrix(-1,0,0,1,74.5,0)"><path d="M36.75,9Q36.75,8.9507543,36.759607,8.9024549Q36.769215,8.854155,36.78806,8.808658Q36.806906,8.763161,36.834265,8.722215Q36.861625,8.681269,36.896447,8.646447Q36.931269,8.611625,36.972215,8.584265Q37.013161,8.556906,37.058658,8.53806Q37.104155,8.519214999999999,37.1524549,8.509607Q37.2007543,8.5,37.25,8.5Q37.2992457,8.5,37.3475451,8.509607Q37.395845,8.519214999999999,37.441342,8.53806Q37.486839,8.556906,37.527785,8.584265Q37.568731,8.611625,37.603553,8.646447Q37.638375,8.681269,37.665735,8.722215Q37.693094,8.763161,37.71194,8.808658Q37.730785,8.854155,37.740393,8.9024549Q37.75,8.9507543,37.75,9L37.75,12Q37.75,12.04925,37.740393,12.09754Q37.730785,12.14584,37.71194,12.19134Q37.693094,12.23684,37.665735,12.27778Q37.638375,12.31873,37.603553,12.35355Q37.568731,12.38837,37.527785,12.41573Q37.486839,12.44309,37.441342,12.46194Q37.395845,12.48078,37.3475451,12.49039Q37.2992457,12.5,37.25,12.5Q37.2007543,12.5,37.1524549,12.49039Q37.104155,12.48078,37.058658,12.46194Q37.013161,12.44309,36.972215,12.41573Q36.931269,12.38837,36.896447,12.35355Q36.861625,12.31873,36.834265,12.27778Q36.806906,12.23684,36.78806,12.19134Q36.769215,12.14584,36.759607,12.09754Q36.75,12.04925,36.75,12L36.75,9Z" fill-rule="evenodd" fill="#000000" fill-opacity="1"/></g><g transform="matrix(-1,0,0,1,120,0)"><path d="M60,19.5L77,19.5Q77.0492,19.5,77.0975,19.509607Q77.14580000000001,19.519215,77.1913,19.53806Q77.2368,19.556906,77.2778,19.584265Q77.3187,19.611625,77.3536,19.646447Q77.3884,19.681269,77.4157,19.722215Q77.4431,19.763161,77.4619,19.808658Q77.4808,19.854155,77.4904,19.9024549Q77.5,19.9507543,77.5,20Q77.5,20.0492457,77.4904,20.0975451Q77.4808,20.145845,77.4619,20.191342Q77.4431,20.236839,77.4157,20.277785Q77.3884,20.318731,77.3536,20.353553Q77.3187,20.388375,77.2778,20.415735Q77.2368,20.443094,77.1913,20.46194Q77.14580000000001,20.480785,77.0975,20.490393Q77.0492,20.5,77,20.5L60,20.5Q59.9507543,20.5,59.9024549,20.490393Q59.854155,20.480785,59.808658,20.46194Q59.763161,20.443094,59.722215,20.415735Q59.681269,20.388375,59.646447,20.353553Q59.611625,20.318731,59.584265,20.277785Q59.556906,20.236839,59.53806,20.191342Q59.519215,20.145845,59.509607,20.0975451Q59.5,20.0492457,59.5,20Q59.5,19.9507543,59.509607,19.9024549Q59.519215,19.854155,59.53806,19.808658Q59.556906,19.763161,59.584265,19.722215Q59.611625,19.681269,59.646447,19.646447Q59.681269,19.611625,59.722215,19.584265Q59.763161,19.556906,59.808658,19.53806Q59.854155,19.519215,59.9024549,19.509607Q59.9507543,19.5,60,19.5Z" fill-rule="evenodd" fill="#409EFF" fill-opacity="1"/></g><g transform="matrix(-1,0,0,1,124,0)"><rect x="62.5" y="2.5" width="27" height="22" rx="2.5" fill-opacity="0" stroke-opacity="1" stroke="#000000" fill="none" stroke-width="1"/></g></g></svg>