<svg xmlns="http://www.w3.org/2000/svg" xmlns:xlink="http://www.w3.org/1999/xlink" fill="none" version="1.1" width="32" height="32" viewBox="0 0 32 32"><defs><clipPath id="master_svg0_33_673"><rect x="32" y="0" width="32" height="32" rx="0"/></clipPath></defs><g transform="matrix(-1,0,0,1,64,0)" clip-path="url(#master_svg0_33_673)"><rect x="32" y="0" width="32" height="32" rx="0" fill="#FFFFFF" fill-opacity="1"/><g transform="matrix(-1,0,0,1,122,0)"><path d="M63.096000000000004,27.608L62.2,27.608L61.988002,28.4L61.288002,28.4L62.1,25.6L63.2,25.6L64.012,28.4L63.308,28.4L63.096000000000004,27.608ZM62.968,27.128L62.652,25.956L62.644,25.956L62.328,27.128L62.968,27.128ZM65.084,28.451999999999998Q64.788,28.451999999999998,64.564,28.31Q64.34,28.168,64.22,27.912Q64.1,27.656,64.1,27.328Q64.1,26.996,64.222,26.738Q64.344,26.48,64.566,26.336Q64.788,26.192,65.084,26.192Q65.22,26.192,65.358,26.24Q65.496,26.288,65.616,26.38L65.616,25.324L66.256,25.324L66.256,27.9Q66.256,28.22,66.336,28.4L65.736,28.4Q65.708,28.344,65.688,28.256Q65.436,28.451999999999998,65.084,28.451999999999998ZM64.712,27.328Q64.712,27.512,64.786,27.664Q64.86,27.816,64.982,27.906Q65.104,27.996,65.24,27.996Q65.348,27.996,65.478,27.944Q65.608,27.892,65.69200000000001,27.728L65.69200000000001,26.924Q65.608,26.756,65.478,26.704Q65.348,26.652,65.24,26.652Q65.104,26.652,64.982,26.74Q64.86,26.828,64.786,26.984Q64.712,27.14,64.712,27.328ZM67.44,28.451999999999998Q67.144,28.451999999999998,66.92,28.31Q66.696,28.168,66.576,27.912Q66.456,27.656,66.456,27.328Q66.456,26.996,66.578,26.738Q66.7,26.48,66.922,26.336Q67.144,26.192,67.44,26.192Q67.576,26.192,67.714,26.24Q67.852,26.288,67.972,26.38L67.972,25.324L68.612,25.324L68.612,27.9Q68.612,28.22,68.69200000000001,28.4L68.092,28.4Q68.064,28.344,68.044,28.256Q67.792,28.451999999999998,67.44,28.451999999999998ZM67.068,27.328Q67.068,27.512,67.142,27.664Q67.216,27.816,67.338,27.906Q67.46,27.996,67.596,27.996Q67.704,27.996,67.834,27.944Q67.964,27.892,68.048,27.728L68.048,26.924Q67.964,26.756,67.834,26.704Q67.704,26.652,67.596,26.652Q67.46,26.652,67.338,26.74Q67.216,26.828,67.142,26.984Q67.068,27.14,67.068,27.328ZM69.852,25.6L71.708,25.6L71.708,26.14L70.512,26.14L70.512,26.748L71.544,26.748L71.544,27.252L70.512,27.252L70.512,28.4L69.852,28.4L69.852,25.6ZM72.548,26.24L72.548,26.472Q72.652,26.36,72.798,26.298000000000002Q72.944,26.236,73.088,26.236Q73.188,26.236,73.276,26.264L73.276,26.756Q73.164,26.728,73.064,26.728Q72.912,26.728,72.776,26.778Q72.64,26.828,72.548,26.936L72.548,28.4L71.908,28.4L71.908,26.24L72.548,26.24ZM75.384,28.284Q75.232,28.376,75.03,28.42Q74.828,28.464,74.64,28.464Q74,28.464,73.67,28.16Q73.34,27.856,73.34,27.308Q73.34,26.764,73.634,26.474Q73.928,26.184,74.436,26.184Q74.94,26.184,75.234,26.474Q75.528,26.764,75.528,27.308Q75.528,27.368,75.52,27.48L73.964,27.48Q74.05199999999999,27.996,74.64,27.996Q75.05199999999999,27.996,75.384,27.752L75.384,28.284ZM74.924,27.032Q74.872,26.832,74.744,26.736Q74.616,26.64,74.436,26.64Q74.268,26.64,74.15,26.74Q74.032,26.84,73.984,27.032L74.924,27.032ZM77.32,29.312Q77.28399999999999,29.184,77.262,28.942Q77.24,28.7,77.24,28.488L77.24,28.244Q76.992,28.451999999999998,76.632,28.451999999999998Q76.336,28.451999999999998,76.112,28.308Q75.888,28.164,75.768,27.91Q75.648,27.656,75.648,27.323999999999998Q75.648,26.992,75.77,26.734Q75.892,26.476,76.114,26.332Q76.336,26.188,76.632,26.188Q76.792,26.188,76.95,26.254Q77.108,26.32,77.24,26.44L77.24,26.24L77.88,26.24L77.88,28.488Q77.88,28.688,77.896,28.932Q77.912,29.176000000000002,77.96000000000001,29.312L77.32,29.312ZM76.26,27.323999999999998Q76.26,27.508,76.334,27.66Q76.408,27.812,76.53,27.902Q76.652,27.992,76.788,27.992Q76.896,27.992,77.026,27.94Q77.156,27.887999999999998,77.24,27.724L77.24,26.92Q77.156,26.756,77.026,26.704Q76.896,26.652,76.788,26.652Q76.652,26.652,76.53,26.74Q76.408,26.828,76.334,26.982Q76.26,27.136,76.26,27.323999999999998ZM78.944,27.744L78.944,28.4L78.288,28.4L78.288,27.744L78.944,27.744ZM80.744,28.451999999999998Q80.304,28.451999999999998,79.98400000000001,28.286Q79.664,28.12,79.49,27.8Q79.316,27.48,79.316,27.032Q79.316,26.576,79.49,26.24Q79.664,25.904,79.986,25.726Q80.30799999999999,25.548000000000002,80.744,25.548000000000002Q81.18,25.548000000000002,81.5,25.726Q81.82,25.904,81.994,26.24Q82.168,26.576,82.168,27.032Q82.168,27.484,81.994,27.802Q81.82,28.12,81.504,28.286Q81.188,28.451999999999998,80.744,28.451999999999998ZM80.01599999999999,27.032Q80.01599999999999,27.464,80.208,27.714Q80.4,27.964,80.744,27.964Q81.084,27.964,81.276,27.714Q81.468,27.464,81.468,27.032Q81.468,26.748,81.384,26.524Q81.3,26.3,81.134,26.172Q80.968,26.044,80.744,26.044Q80.52,26.044,80.356,26.172Q80.19200000000001,26.3,80.104,26.524Q80.01599999999999,26.748,80.01599999999999,27.032ZM82.616,26.728L82.236,26.728L82.236,26.24L82.616,26.24L82.616,25.958437Q82.616,25.704625,82.686,25.567875Q82.756,25.431062,82.926,25.375562Q83.096,25.32,83.372,25.32Q83.456,25.32,83.55199999999999,25.32Q83.648,25.32,83.724,25.332L83.724,25.816Q83.69200000000001,25.804,83.616,25.804Q83.53999999999999,25.804,83.48,25.804Q83.388,25.804,83.34,25.825812Q83.292,25.847625,83.274,25.907063Q83.256,25.9665,83.256,26.08144L83.256,26.24L83.78399999999999,26.24L83.78399999999999,26.728L83.256,26.728L83.256,28.4L82.616,28.4L82.616,26.728ZM84.756,28.448Q84.512,28.46,84.262,28.41Q84.012,28.36,83.828,28.256L83.828,27.68Q83.992,27.8,84.22200000000001,27.878Q84.452,27.956,84.628,27.944Q84.752,27.936,84.80799999999999,27.89Q84.864,27.844,84.872,27.796Q84.892,27.672,84.812,27.608Q84.732,27.544,84.512,27.484Q84.268,27.416,84.124,27.326Q83.98,27.236,83.906,27.122Q83.832,27.008,83.832,26.832Q83.832,26.648,83.928,26.502Q84.024,26.356,84.232,26.272Q84.44,26.188,84.68,26.188Q84.86,26.188,85.044,26.222Q85.22800000000001,26.256,85.352,26.312L85.352,26.828Q85.224,26.764,85.05,26.714Q84.876,26.664,84.748,26.664Q84.476,26.664,84.452,26.808Q84.44,26.892,84.53,26.956Q84.62,27.02,84.788,27.072Q85.02799999999999,27.148,85.182,27.228Q85.336,27.308,85.424,27.436Q85.512,27.564,85.512,27.764Q85.512,28.06,85.3,28.246Q85.088,28.432,84.756,28.448ZM86.468,27.744L86.468,28.4L85.812,28.4L85.812,27.744L86.468,27.744Z" fill="#000000" fill-opacity="1"/></g><g transform="matrix(-1,0,0,1,121.46728515625,0)"><path d="M77.814242578125,15.821245223083496L86.467242578125,15.821245223083496L86.467242578125,14.821245223083496L77.438742578125,14.821245223083496Q77.357442578125,14.821245223083496,77.280442578125,14.846955223083496Q77.20344257812499,14.872665223083496,77.138442578125,14.921445223083495Q77.073542578125,14.970225223083496,77.027342578125,15.037055223083495Q76.981142578125,15.103875223083495,76.958542578125,15.181885223083496L75.92604257812499,18.739405223083494L74.221342578125,10.850207223083496Q74.210942578125,10.802072223083496,74.191342578125,10.756892223083495Q74.171742578125,10.711711223083496,74.143742578125,10.671221223083496Q74.115642578125,10.630731223083496,74.080242578125,10.596487223083496Q74.044842578125,10.562243223083495,74.003442578125,10.535561223083496Q73.962142578125,10.508879223083497,73.916342578125,10.490786223083497Q73.870542578125,10.472692223083497,73.82204257812501,10.463881223083495Q73.77364257812499,10.455070223083496,73.724342578125,10.455881223083496Q73.675142578125,10.456692223083497,73.626942578125,10.467093223083497Q73.558142578125,10.481969223083496,73.496042578125,10.515282223083496Q73.434042578125,10.548595223083495,73.383642578125,10.597753223083496Q73.333142578125,10.646912223083497,73.298242578125,10.708090223083497Q73.263342578125,10.769268223083497,73.246742578125,10.837704223083495L72.108442578125,15.519975223083495L71.561242578125,13.550365223083496Q71.548142578125,13.502915223083496,71.525942578125,13.458955223083496Q71.503742578125,13.414985223083496,71.473342578125,13.376195223083496Q71.443042578125,13.337405223083497,71.405742578125,13.305275223083497Q71.368442578125,13.273145223083496,71.325542578125,13.248915223083497Q71.282642578125,13.224685223083496,71.235842578125,13.209285223083496Q71.189142578125,13.193885223083496,71.140242578125,13.187905223083495Q71.091342578125,13.181925223083496,71.042242578125,13.185595223083496Q70.993142578125,13.189275223083495,70.945642578125,13.202455223083497Q70.882342578125,13.220055223083495,70.825642578125,13.253445223083496Q70.769042578125,13.286825223083497,70.722932578125,13.333725223083496Q70.676842578125,13.380615223083495,70.644442578125,13.437835223083496Q70.612042578125,13.495055223083495,70.595532578125,13.558705223083496L69.309462578125,18.518445223083496L68.925982578125,9.842377023083497Q68.923802578125,9.793179323083496,68.912072578125,9.745351223083496Q68.900342578125,9.697523223083497,68.879502578125,9.652902223083496Q68.858672578125,9.608282223083496,68.829532578125,9.568584223083496Q68.800392578125,9.528885223083496,68.76406257812499,9.495635223083497Q68.727732578125,9.462384223083497,68.685622578125,9.436860223083496Q68.643512578125,9.411335223083496,68.597222578125,9.394517223083495Q68.550942578125,9.377699223083496,68.502262578125,9.370233223083495Q68.453582578125,9.362768223083496,68.404392578125,9.364943223083497Q68.331722578125,9.368154223083495,68.262982578125,9.391937223083495Q68.194242578125,9.415719223083496,68.135132578125,9.458100223083497Q68.076022578125,9.500481223083495,68.031432578125,9.557949223083495Q67.98684257812499,9.615416223083496,67.960472578125,9.683205223083496L65.962002578125,14.821245223083496L60.733642578125,14.821225223083495L60.733642578125,15.821225223083495L66.304012578125,15.821245223083496Q66.37957257812499,15.821245223083496,66.451762578125,15.798915223083496Q66.523942578125,15.776595223083497,66.586312578125,15.733935223083495Q66.648672578125,15.691275223083496,66.695642578125,15.632095223083496Q66.742622578125,15.572915223083495,66.770012578125,15.502495223083496L68.03179257812499,12.258465223083496L68.457572578125,21.891455223083497Q68.461112578125,21.971655223083495,68.489552578125,22.046655223083498Q68.518002578125,22.121655223083494,68.568492578125,22.184055223083497Q68.618982578125,22.246355223083498,68.686442578125,22.289855223083496Q68.753912578125,22.333255223083498,68.831582578125,22.353355223083497Q68.879242578125,22.365755223083497,68.928412578125,22.368555223083497Q68.977572578125,22.371355223083498,69.026342578125,22.364555223083496Q69.075112578125,22.357755223083494,69.121622578125,22.341555223083496Q69.16812257812501,22.3253552230835,69.210572578125,22.300355223083496Q69.253022578125,22.275355223083494,69.289782578125,22.242655223083496Q69.326542578125,22.209855223083494,69.356202578125,22.170555223083497Q69.385862578125,22.131255223083496,69.407292578125,22.086855223083496Q69.428712578125,22.042555223083497,69.441072578125,21.994855223083498L71.096142578125,15.612005223083496L71.659042578125,17.637805223083497Q71.676842578125,17.702095223083496,71.710942578125,17.759455223083496Q71.745042578125,17.816805223083495,71.793042578125,17.863215223083497Q71.840942578125,17.909625223083495,71.899342578125,17.941835223083494Q71.957842578125,17.974045223083497,72.022642578125,17.989815223083497Q72.070542578125,18.001445223083497,72.119742578125,18.003515223083497Q72.168942578125,18.005595223083496,72.217542578125,17.998025223083495Q72.266242578125,17.990465223083497,72.312442578125,17.973545223083498Q72.358742578125,17.956635223083495,72.400742578125,17.931025223083495Q72.442842578125,17.905415223083494,72.47914257812499,17.872085223083495Q72.515342578125,17.838765223083495,72.544442578125,17.799005223083498Q72.573442578125,17.759245223083497,72.594242578125,17.714585223083496Q72.614942578125,17.669925223083496,72.626642578125,17.622065223083496L73.703942578125,13.190435223083496L75.366342578125,20.883655223083494Q75.380642578125,20.949755223083496,75.41194257812501,21.0096552230835Q75.443242578125,21.069655223083494,75.489342578125,21.119055223083496Q75.535542578125,21.168555223083494,75.593142578125,21.203955223083497Q75.650742578125,21.239355223083496,75.715642578125,21.258255223083495Q75.762942578125,21.271955223083495,75.812042578125,21.276155223083496Q75.861142578125,21.280455223083496,75.910042578125,21.274955223083495Q75.958942578125,21.269555223083493,76.005942578125,21.254755223083496Q76.052842578125,21.239855223083495,76.096042578125,21.216155223083497Q76.139142578125,21.192355223083496,76.176842578125,21.160655223083495Q76.214542578125,21.128955223083494,76.245342578125,21.0905552230835Q76.276142578125,21.052055223083496,76.298842578125,21.0083552230835Q76.321542578125,20.964655223083497,76.335242578125,20.917355223083497L77.814242578125,15.821245223083496Z" fill-rule="evenodd" fill="#409EFF" fill-opacity="1"/></g><g transform="matrix(-1,0,0,1,122,0)"><path d="M61.000016044,15.8212234375L61.505265,15.8212234375L61.505239,15.0035834375Q61.562302,13.2799134375,62.24091,11.6947734375Q62.95697,10.0221534375,64.26325,8.7315734375Q65.57016,7.4403634375,67.2647,6.7322434375Q69.0193,5.9990234375,70.94165,5.9990234375Q72.864,5.9990234375,74.6186,6.7322434375Q76.3131,7.4403534375,77.62010000000001,8.7315734375Q78.9263,10.0221634375,79.6424,11.6947734375L80.5617,11.3012134375Q79.7685,9.4484934375,78.3229,8.020203437500001Q76.87780000000001,6.5925334375,75.0042,5.8095634375Q73.0645,4.9990234375,70.94165,4.9990234375Q68.81876,4.9990234375,66.87913,5.8095634375Q65.00545,6.5925434375,63.56043,8.020203437500001Q62.11478,9.4484834375,61.321615,11.3012134375Q60.5,13.2203934375,60.5,15.3212634375Q60.500003,15.4207134375,60.538066,15.5126234375Q60.57613,15.6045234375,60.646458,15.6748234375Q60.716786,15.7451234375,60.808673,15.7832234375Q60.9005599,15.8212234375,61.000016044,15.8212234375Z" fill-rule="evenodd" fill="#000000" fill-opacity="1"/></g></g></svg>