<?xml version="1.0" standalone="no"?><!DOCTYPE svg PUBLIC "-//W3C//DTD SVG 1.1//EN" "http://www.w3.org/Graphics/SVG/1.1/DTD/svg11.dtd"><svg t="1694069456665" class="icon" viewBox="0 0 1024 1024" version="1.1" xmlns="http://www.w3.org/2000/svg" p-id="10123" xmlns:xlink="http://www.w3.org/1999/xlink" width="200" height="200"><path d="M188.544 942.464q-9.728 0-16.96-4.608-7.232-4.608-11.136-12.672-3.904-8.064-3.904-18.816 0-10.624 3.904-18.88 3.904-8.256 11.008-12.864 7.104-4.608 16.576-4.608 4.352 0 8.768 1.6t8.256 4.416v-4.352h20.48v52.992q0 10.368 2.56 16.128h-19.2q-0.896-1.792-1.536-4.608-7.936 6.272-18.816 6.272z m-12.416-36.096q0 5.888 2.368 10.752 2.368 4.864 6.272 7.744 3.904 2.88 8.256 2.88 3.072 0 6.912-1.344t6.656-5.824v-28.672q-2.816-4.48-6.592-5.76-3.776-1.28-6.976-1.28-4.352 0-8.256 2.816t-6.272 7.744q-2.368 4.928-2.368 10.944z m82.688-34.688v7.424q3.328-3.584 8-5.568 4.672-1.984 9.28-1.984 3.2 0 6.016 0.896v15.744q-3.584-0.896-6.784-0.896-4.864 0-9.216 1.6-4.352 1.6-7.296 5.056V940.8h-20.48v-69.12h20.48z m89.344 66.816q-9.856 3.968-20.224 3.968-10.88 0-20.032-4.416t-14.528-12.544Q288 917.376 288 906.752q0-11.136 5.12-19.456t14.016-12.736q8.896-4.416 19.904-4.416 9.984 0 20.224 3.584v15.744q-7.808-3.328-16-3.328-10.112 0-16.768 4.8-6.656 4.8-6.656 15.808 0 6.272 3.456 10.624t8.96 6.592q5.504 2.24 11.648 2.24 4.736 0 9.024-1.344 4.288-1.344 7.232-3.776v17.408z" fill="#000000" p-id="10124"></path><path d="M832 848q-146.464 0-280.256-56.576-129.216-54.656-228.864-154.304t-154.304-228.864Q112 274.496 112 128h32q0 140 54.08 267.808 52.192 123.456 147.424 218.688 95.232 95.232 218.688 147.456Q692.032 816 832 816v32z" fill="#000000" p-id="10125"></path><path d="M896 144h-128v-32h128v32z" fill="#409EFF" p-id="10126"></path><path d="M848 64v128h-32V64h32z" fill="#409EFF" p-id="10127"></path></svg>