<svg xmlns="http://www.w3.org/2000/svg" xmlns:xlink="http://www.w3.org/1999/xlink" fill="none" version="1.1" width="32" height="32" viewBox="0 0 32 32"><defs><clipPath id="master_svg0_33_723"><rect x="32" y="0" width="32" height="32" rx="0"/></clipPath></defs><g transform="matrix(-1,0,0,1,64,0)" clip-path="url(#master_svg0_33_723)"><rect x="32" y="0" width="32" height="32" rx="0" fill="#FFFFFF" fill-opacity="1"/><g transform="matrix(-1,0,0,1,123,0)"><path d="M64.5,24.70891826171875L79,24.70891826171875L79,23.70891826171875L64.5,23.70891826171875Q63.46447,23.70891826171875,62.73223,22.97671826171875Q62,22.24441826171875,62,21.20891826171875L62,6.18621826171875Q62,5.15068826171875,62.73223,4.4184482617187495Q63.46447,3.68621826171875,64.5,3.68621826171875L85.5,3.68621826171875Q86.5355,3.68621826171875,87.2678,4.4184482617187495Q88,5.15068826171875,88,6.18621826171875L88,18.20891826171875L89,18.20891826171875L89,6.18621826171875Q89,4.73646826171875,87.9749,3.71134426171875Q86.9497,2.68621826171875,85.5,2.68621826171875L64.5,2.68621826171875Q63.05025,2.68621826171875,62.025126,3.71134426171875Q61,4.73646826171875,61,6.18621826171875L61,21.20891826171875Q61,22.65871826171875,62.025126,23.68381826171875Q63.05025,24.70891826171875,64.5,24.70891826171875Z" fill-rule="evenodd" fill="#000000" fill-opacity="1"/></g><g transform="matrix(-1,0,0,1,127,0)"><path d="M64.147999,26.28511962890625L65.436,26.28511962890625Q65.824,26.28511962890625,66.048,26.47511962890625Q66.272,26.66511962890625,66.272,27.01711962890625Q66.272,27.17311962890625,66.172,27.32111962890625Q66.072,27.46911962890625,65.904,27.57711962890625Q66.148,27.68111962890625,66.296,27.86911962890625Q66.444,28.05711962890625,66.444,28.27311962890625Q66.444,28.64511962890625,66.196,28.86511962890625Q65.948,29.08511962890625,65.528,29.08511962890625L64.147999,29.08511962890625L64.147999,26.28511962890625ZM65.356,28.60111962890625Q65.556,28.60111962890625,65.666,28.48711962890625Q65.776,28.37311962890625,65.776,28.18511962890625Q65.776,28.03311962890625,65.642,27.93711962890625Q65.508,27.84111962890625,65.24,27.84111962890625L64.808,27.84111962890625L64.808,28.60111962890625L65.356,28.60111962890625ZM65.26,27.45311962890625Q65.424,27.45311962890625,65.516,27.33911962890625Q65.608,27.22511962890625,65.608,27.08911962890625Q65.608,26.92911962890625,65.512,26.81511962890625Q65.416,26.70111962890625,65.188,26.70111962890625L64.808,26.70111962890625L64.808,27.45311962890625L65.26,27.45311962890625ZM67.496,26.92511962890625L67.496,29.08511962890625L66.856,29.08511962890625L66.856,26.92511962890625L67.496,26.92511962890625ZM66.856,26.00911962890625L67.496,26.00911962890625L67.496,26.64911962890625L66.856,26.64911962890625L66.856,26.00911962890625ZM68.116,26.92511962890625L68.116,26.30911962890625L68.716,26.30911962890625L68.716,26.92511962890625L69.132,26.92511962890625L69.132,27.41311962890625L68.716,27.41311962890625L68.716,28.34111962890625Q68.716,28.45711962890625,68.734,28.51711962890625Q68.752,28.57711962890625,68.8,28.59911962890625Q68.848,28.62111962890625,68.94,28.62111962890625Q69,28.62111962890625,69.042,28.61711962890625Q69.084,28.61311962890625,69.116,28.60511962890625L69.116,29.09711962890625Q68.94800000000001,29.11711962890625,68.804,29.11711962890625Q68.528,29.11711962890625,68.392,29.06111962890625Q68.256,29.00511962890625,68.186,28.86711962890625Q68.116,28.72911962890625,68.116,28.47311962890625L68.116,27.41311962890625L67.804,27.41311962890625L67.804,26.92511962890625L68.116,26.92511962890625ZM70.28,29.13311962890625Q70.036,29.14511962890625,69.786,29.09511962890625Q69.536,29.04511962890625,69.352,28.94111962890625L69.352,28.36511962890625Q69.516,28.48511962890625,69.746,28.56311962890625Q69.976,28.64111962890625,70.152,28.62911962890625Q70.276,28.62111962890625,70.332,28.57511962890625Q70.388,28.52911962890625,70.396,28.48111962890625Q70.416,28.35711962890625,70.336,28.29311962890625Q70.256,28.22911962890625,70.036,28.16911962890625Q69.792,28.10111962890625,69.648,28.01111962890625Q69.504,27.92111962890625,69.43,27.80711962890625Q69.356,27.69311962890625,69.356,27.51711962890625Q69.356,27.33311962890625,69.452,27.18711962890625Q69.548,27.04111962890625,69.756,26.95711962890625Q69.964,26.87311962890625,70.204,26.87311962890625Q70.384,26.87311962890625,70.568,26.90711962890625Q70.752,26.94111962890625,70.876,26.99711962890625L70.876,27.51311962890625Q70.748,27.44911962890625,70.574,27.39911962890625Q70.4,27.34911962890625,70.272,27.34911962890625Q70,27.34911962890625,69.976,27.49311962890625Q69.964,27.57711962890625,70.054,27.64111962890625Q70.144,27.70511962890625,70.312,27.75711962890625Q70.55199999999999,27.83311962890625,70.706,27.91311962890625Q70.86,27.99311962890625,70.94800000000001,28.12111962890625Q71.036,28.24911962890625,71.036,28.44911962890625Q71.036,28.74511962890625,70.824,28.93111962890625Q70.612,29.11711962890625,70.28,29.13311962890625ZM72.408,26.28511962890625L74.376,26.28511962890625L74.376,26.82911962890625L73.068,26.82911962890625L73.068,27.42911962890625L74.20400000000001,27.42911962890625L74.20400000000001,27.93711962890625L73.068,27.93711962890625L73.068,28.54111962890625L74.376,28.54111962890625L74.376,29.08511962890625L72.408,29.08511962890625L72.408,26.28511962890625ZM75.336,26.92511962890625L75.336,27.15711962890625Q75.44,27.04511962890625,75.586,26.983119628906252Q75.732,26.92111962890625,75.876,26.92111962890625Q75.976,26.92111962890625,76.064,26.94911962890625L76.064,27.44111962890625Q75.952,27.41311962890625,75.852,27.41311962890625Q75.7,27.41311962890625,75.564,27.46311962890625Q75.428,27.51311962890625,75.336,27.62111962890625L75.336,29.08511962890625L74.696,29.08511962890625L74.696,26.92511962890625L75.336,26.92511962890625ZM76.968,26.92511962890625L76.968,27.15711962890625Q77.072,27.04511962890625,77.218,26.983119628906252Q77.364,26.92111962890625,77.508,26.92111962890625Q77.608,26.92111962890625,77.696,26.94911962890625L77.696,27.44111962890625Q77.584,27.41311962890625,77.484,27.41311962890625Q77.332,27.41311962890625,77.196,27.46311962890625Q77.06,27.51311962890625,76.968,27.62111962890625L76.968,29.08511962890625L76.328,29.08511962890625L76.328,26.92511962890625L76.968,26.92511962890625ZM79.016,29.137119628906248Q78.676,29.137119628906248,78.418,28.99711962890625Q78.16,28.85711962890625,78.02,28.59911962890625Q77.88,28.34111962890625,77.88,27.98911962890625Q77.88,27.44911962890625,78.184,27.16111962890625Q78.488,26.87311962890625,79.016,26.87311962890625Q79.53999999999999,26.87311962890625,79.844,27.16111962890625Q80.148,27.44911962890625,80.148,27.98911962890625Q80.148,28.34111962890625,80.008,28.59911962890625Q79.868,28.85711962890625,79.612,28.99711962890625Q79.356,29.137119628906248,79.016,29.137119628906248ZM78.512,27.98911962890625Q78.512,28.297119628906252,78.652,28.48511962890625Q78.792,28.67311962890625,79.016,28.67311962890625Q79.24,28.67311962890625,79.378,28.48511962890625Q79.51599999999999,28.297119628906252,79.51599999999999,27.98911962890625Q79.51599999999999,27.66911962890625,79.382,27.50311962890625Q79.248,27.33711962890625,79.016,27.33711962890625Q78.784,27.33711962890625,78.648,27.50311962890625Q78.512,27.66911962890625,78.512,27.98911962890625ZM81.108,26.92511962890625L81.108,27.15711962890625Q81.212,27.04511962890625,81.358,26.983119628906252Q81.504,26.92111962890625,81.648,26.92111962890625Q81.748,26.92111962890625,81.836,26.94911962890625L81.836,27.44111962890625Q81.724,27.41311962890625,81.624,27.41311962890625Q81.47200000000001,27.41311962890625,81.336,27.46311962890625Q81.2,27.51311962890625,81.108,27.62111962890625L81.108,29.08511962890625L80.468,29.08511962890625L80.468,26.92511962890625L81.108,26.92511962890625ZM84.668,29.137119628906248Q84.212,29.137119628906248,83.858,28.96911962890625Q83.504,28.80111962890625,83.30199999999999,28.48111962890625Q83.1,28.16111962890625,83.1,27.72111962890625Q83.1,27.25711962890625,83.29599999999999,26.92311962890625Q83.492,26.58911962890625,83.844,26.41111962890625Q84.196,26.233119628906252,84.648,26.233119628906252Q84.872,26.233119628906252,85.1,26.27711962890625Q85.328,26.32111962890625,85.476,26.38911962890625L85.476,26.88511962890625Q85.072,26.73711962890625,84.724,26.73711962890625Q84.30799999999999,26.73711962890625,84.05,26.98111962890625Q83.792,27.22511962890625,83.792,27.72111962890625Q83.792,27.98511962890625,83.92,28.18711962890625Q84.048,28.38911962890625,84.256,28.50111962890625Q84.464,28.61311962890625,84.70400000000001,28.62911962890625L84.792,28.63311962890625Q84.976,28.63311962890625,85.156,28.58111962890625Q85.336,28.52911962890625,85.476,28.44111962890625L85.476,28.99311962890625Q85.304,29.073119628906248,85.11,29.10511962890625Q84.916,29.137119628906248,84.668,29.137119628906248ZM86.932,29.137119628906248Q86.592,29.137119628906248,86.334,28.99711962890625Q86.076,28.85711962890625,85.936,28.59911962890625Q85.79599999999999,28.34111962890625,85.79599999999999,27.98911962890625Q85.79599999999999,27.44911962890625,86.1,27.16111962890625Q86.404,26.87311962890625,86.932,26.87311962890625Q87.456,26.87311962890625,87.76,27.16111962890625Q88.064,27.44911962890625,88.064,27.98911962890625Q88.064,28.34111962890625,87.924,28.59911962890625Q87.78399999999999,28.85711962890625,87.52799999999999,28.99711962890625Q87.27199999999999,29.137119628906248,86.932,29.137119628906248ZM86.428,27.98911962890625Q86.428,28.297119628906252,86.568,28.48511962890625Q86.708,28.67311962890625,86.932,28.67311962890625Q87.156,28.67311962890625,87.294,28.48511962890625Q87.432,28.297119628906252,87.432,27.98911962890625Q87.432,27.66911962890625,87.298,27.50311962890625Q87.164,27.33711962890625,86.932,27.33711962890625Q86.7,27.33711962890625,86.564,27.50311962890625Q86.428,27.66911962890625,86.428,27.98911962890625ZM89.888,29.08911962890625Q89.824,28.96911962890625,89.812,28.83311962890625Q89.664,28.96511962890625,89.458,29.05111962890625Q89.252,29.137119628906248,89.05199999999999,29.137119628906248Q88.744,29.137119628906248,88.562,28.95711962890625Q88.38,28.77711962890625,88.38,28.49311962890625L88.38,26.92511962890625L89.02,26.92511962890625L89.02,28.38511962890625Q89.02,28.50111962890625,89.098,28.57511962890625Q89.176,28.64911962890625,89.304,28.64911962890625Q89.388,28.64911962890625,89.53,28.58911962890625Q89.672,28.52911962890625,89.768,28.45711962890625L89.768,26.92511962890625L90.408,26.92511962890625L90.408,28.67311962890625Q90.408,28.80511962890625,90.424,28.89511962890625Q90.44,28.98511962890625,90.488,29.08911962890625L89.888,29.08911962890625ZM91.44800000000001,26.91711962890625L91.44800000000001,27.17711962890625Q91.596,27.04911962890625,91.786,26.97711962890625Q91.976,26.90511962890625,92.164,26.90511962890625Q92.47200000000001,26.90511962890625,92.654,27.08511962890625Q92.836,27.26511962890625,92.836,27.55311962890625L92.836,29.07711962890625L92.196,29.07711962890625L92.196,27.66111962890625Q92.196,27.54511962890625,92.1,27.47111962890625Q92.004,27.39711962890625,91.872,27.39711962890625Q91.788,27.39711962890625,91.662,27.45311962890625Q91.536,27.50911962890625,91.44800000000001,27.58911962890625L91.44800000000001,29.07711962890625L90.80799999999999,29.07711962890625L90.80799999999999,26.91711962890625L91.44800000000001,26.91711962890625ZM93.404,26.92511962890625L93.404,26.30911962890625L94.004,26.30911962890625L94.004,26.92511962890625L94.42,26.92511962890625L94.42,27.41311962890625L94.004,27.41311962890625L94.004,28.34111962890625Q94.004,28.45711962890625,94.02199999999999,28.51711962890625Q94.03999999999999,28.57711962890625,94.088,28.59911962890625Q94.136,28.62111962890625,94.22800000000001,28.62111962890625Q94.288,28.62111962890625,94.33,28.61711962890625Q94.372,28.61311962890625,94.404,28.60511962890625L94.404,29.09711962890625Q94.236,29.11711962890625,94.092,29.11711962890625Q93.816,29.11711962890625,93.68,29.06111962890625Q93.544,29.00511962890625,93.474,28.86711962890625Q93.404,28.72911962890625,93.404,28.47311962890625L93.404,27.41311962890625L93.092,27.41311962890625L93.092,26.92511962890625L93.404,26.92511962890625Z" fill="#000000" fill-opacity="1"/></g><g transform="matrix(-1,0,0,1,96,0)"><path d="M48,10.20892333984375L49,10.20892333984375L49,17.20892333984375L50,17.20892333984375L50,8.20892333984375L49,8.20892333984375L48,9.20892333984375L48,10.20892333984375Z" fill="#000000" fill-opacity="1"/></g><g transform="matrix(-1,0,0,1,80,0)"><path d="M40,10.20892333984375L41,10.20892333984375L41,17.20892333984375L42,17.20892333984375L42,8.20892333984375L41,8.20892333984375L40,9.20892333984375L40,10.20892333984375Z" fill="#000000" fill-opacity="1"/></g><g transform="matrix(-1,0,0,1,118,0)"><path d="M59,10.20892333984375L60,10.20892333984375L60,17.20892333984375L61,17.20892333984375L61,8.20892333984375L60,8.20892333984375L59,9.20892333984375L59,10.20892333984375Z" fill="#000000" fill-opacity="1"/></g><g transform="matrix(-1,0,0,1,110,0)"><rect x="55" y="8.20892333984375" width="5" height="9" rx="1" fill="#409EFF" fill-opacity="1"/><rect x="55.5" y="8.70892333984375" width="4" height="8" rx="0.5" fill-opacity="0" stroke-opacity="1" stroke="#000000" fill="none" stroke-width="1"/></g><g transform="matrix(-1,0,0,1,90,0)"><path d="M45,13.70892333984375L45.416667,13.70892333984375L45.416667,12.70892333984375L45,12.70892333984375L45,13.70892333984375ZM46.25,13.70892333984375L47.083330000000004,13.70892333984375L47.083330000000004,12.70892333984375L46.25,12.70892333984375L46.25,13.70892333984375ZM47.916669999999996,13.70892333984375L48.75,13.70892333984375L48.75,12.70892333984375L47.916669999999996,12.70892333984375L47.916669999999996,13.70892333984375ZM49.583330000000004,13.70892333984375L50,13.70892333984375L50,12.70892333984375L49.583330000000004,12.70892333984375L49.583330000000004,13.70892333984375Z" fill-rule="evenodd" fill="#409EFF" fill-opacity="1"/></g><g transform="matrix(0.7071068286895752,0.7071067690849304,-0.7071067690849304,0.7071068286895752,23.513760652280325,-21.74051171237079)"><g transform="matrix(-1,0,0,1,84,0)"><rect x="42" y="17.51336669921875" width="1" height="7" rx="0" fill="#409EFF" fill-opacity="1"/></g><g transform="matrix(0,-1,-1,0,66.51348876953125,66.51348876953125)"><rect x="45" y="21.51348876953125" width="1" height="7" rx="0" fill="#409EFF" fill-opacity="1"/></g></g></g></svg>