<svg xmlns="http://www.w3.org/2000/svg" xmlns:xlink="http://www.w3.org/1999/xlink" fill="none" version="1.1" width="32" height="32" viewBox="0 0 32 32"><defs><clipPath id="master_svg0_33_962"><rect x="32" y="0" width="32" height="32" rx="0"/></clipPath></defs><g transform="matrix(-1,0,0,1,64,0)" clip-path="url(#master_svg0_33_962)"><rect x="32" y="0" width="32" height="32" rx="0" fill="#FFFFFF" fill-opacity="1"/><g transform="matrix(-1,0,0,1,118,0)"><path d="M59.240001,26.6L60.528,26.6Q60.916,26.6,61.14,26.79Q61.364,26.98,61.364,27.332Q61.364,27.488,61.264,27.636Q61.164,27.784,60.996,27.892Q61.24,27.996,61.388,28.184Q61.536,28.372,61.536,28.588Q61.536,28.96,61.288,29.18Q61.04,29.4,60.62,29.4L59.240001,29.4L59.240001,26.6ZM60.448,28.916Q60.648,28.916,60.758,28.802Q60.868,28.688,60.868,28.5Q60.868,28.348,60.734,28.252Q60.6,28.156,60.332,28.156L59.900001,28.156L59.900001,28.916L60.448,28.916ZM60.352,27.768Q60.516,27.768,60.608,27.654Q60.7,27.54,60.7,27.404Q60.7,27.244,60.604,27.13Q60.508,27.016,60.28,27.016L59.900001,27.016L59.900001,27.768L60.352,27.768ZM61.696,30.312Q61.744,30.176000000000002,61.76,29.932Q61.775999999999996,29.688,61.775999999999996,29.488L61.775999999999996,27.24L62.416,27.24L62.416,27.44Q62.548,27.32,62.706,27.254Q62.864,27.188,63.024,27.188Q63.32,27.188,63.542,27.332Q63.764,27.476,63.886,27.734Q64.008,27.992,64.008,28.323999999999998Q64.008,28.656,63.888,28.91Q63.768,29.164,63.544,29.308Q63.32,29.451999999999998,63.024,29.451999999999998Q62.664,29.451999999999998,62.416,29.244L62.416,29.488Q62.416,29.7,62.394,29.942Q62.372,30.184,62.336,30.312L61.696,30.312ZM62.416,28.724Q62.5,28.887999999999998,62.63,28.94Q62.76,28.992,62.868,28.992Q63.004,28.992,63.126,28.902Q63.248,28.812,63.322,28.66Q63.396,28.508,63.396,28.323999999999998Q63.396,28.136,63.322,27.982Q63.248,27.828,63.126,27.74Q63.004,27.652,62.868,27.652Q62.76,27.652,62.63,27.704Q62.5,27.756,62.416,27.92L62.416,28.724ZM65.056,29.448Q64.812,29.46,64.562,29.41Q64.312,29.36,64.128,29.256L64.128,28.68Q64.292,28.8,64.522,28.878Q64.752,28.956,64.928,28.944Q65.05199999999999,28.936,65.108,28.89Q65.164,28.844,65.172,28.796Q65.19200000000001,28.672,65.112,28.608Q65.032,28.544,64.812,28.484Q64.568,28.416,64.424,28.326Q64.28,28.236,64.206,28.122Q64.132,28.008,64.132,27.832Q64.132,27.648,64.228,27.502Q64.324,27.356,64.532,27.272Q64.74,27.188,64.98,27.188Q65.16,27.188,65.344,27.222Q65.528,27.256,65.652,27.312L65.652,27.828Q65.524,27.764,65.35,27.714Q65.176,27.664,65.048,27.664Q64.776,27.664,64.752,27.808Q64.74,27.892,64.83,27.956Q64.92,28.02,65.088,28.072Q65.328,28.148,65.482,28.228Q65.636,28.308,65.724,28.436Q65.812,28.564,65.812,28.764Q65.812,29.06,65.6,29.246Q65.388,29.432,65.056,29.448ZM68.24,26.6Q68.664,26.6,68.91,26.818Q69.156,27.036,69.156,27.432Q69.156,27.76,68.986,27.968Q68.816,28.176000000000002,68.508,28.236Q68.74,28.492,68.92,28.768Q69.1,29.044,69.264,29.4L68.656,29.4Q68.468,29.02,68.30799999999999,28.772Q68.148,28.524,67.892,28.264L67.604,28.264L67.604,29.4L66.944,29.4L66.944,26.6L68.24,26.6ZM68.19200000000001,27.804Q68.396,27.804,68.508,27.696Q68.62,27.588,68.62,27.432Q68.62,27.272,68.506,27.166Q68.392,27.06,68.19200000000001,27.06L67.604,27.06L67.604,27.804L68.19200000000001,27.804ZM71.388,29.284Q71.236,29.376,71.034,29.42Q70.832,29.464,70.644,29.464Q70.004,29.464,69.674,29.16Q69.344,28.856,69.344,28.308Q69.344,27.764,69.638,27.474Q69.932,27.184,70.44,27.184Q70.944,27.184,71.238,27.474Q71.532,27.764,71.532,28.308Q71.532,28.368,71.524,28.48L69.968,28.48Q70.056,28.996,70.644,28.996Q71.056,28.996,71.388,28.752L71.388,29.284ZM70.928,28.032Q70.876,27.832,70.748,27.736Q70.62,27.64,70.44,27.64Q70.272,27.64,70.154,27.74Q70.036,27.84,69.988,28.032L70.928,28.032ZM72.6,29.448Q72.356,29.46,72.106,29.41Q71.856,29.36,71.672,29.256L71.672,28.68Q71.836,28.8,72.066,28.878Q72.29599999999999,28.956,72.472,28.944Q72.596,28.936,72.652,28.89Q72.708,28.844,72.716,28.796Q72.736,28.672,72.656,28.608Q72.576,28.544,72.356,28.484Q72.112,28.416,71.968,28.326Q71.824,28.236,71.75,28.122Q71.676,28.008,71.676,27.832Q71.676,27.648,71.772,27.502Q71.868,27.356,72.076,27.272Q72.284,27.188,72.524,27.188Q72.70400000000001,27.188,72.888,27.222Q73.072,27.256,73.196,27.312L73.196,27.828Q73.068,27.764,72.894,27.714Q72.72,27.664,72.592,27.664Q72.32,27.664,72.29599999999999,27.808Q72.284,27.892,72.374,27.956Q72.464,28.02,72.632,28.072Q72.872,28.148,73.026,28.228Q73.18,28.308,73.268,28.436Q73.356,28.564,73.356,28.764Q73.356,29.06,73.144,29.246Q72.932,29.432,72.6,29.448ZM73.696,27.24L73.696,26.624L74.29599999999999,26.624L74.29599999999999,27.24L74.712,27.24L74.712,27.728L74.29599999999999,27.728L74.29599999999999,28.656Q74.29599999999999,28.772,74.314,28.832Q74.332,28.892,74.38,28.914Q74.428,28.936,74.52,28.936Q74.58,28.936,74.622,28.932Q74.664,28.928,74.696,28.92L74.696,29.412Q74.528,29.432,74.384,29.432Q74.108,29.432,73.972,29.376Q73.836,29.32,73.766,29.182Q73.696,29.044,73.696,28.788L73.696,27.728L73.384,27.728L73.384,27.24L73.696,27.24ZM75.928,29.451999999999998Q75.588,29.451999999999998,75.33,29.312Q75.072,29.172,74.932,28.914Q74.792,28.656,74.792,28.304Q74.792,27.764,75.096,27.476Q75.4,27.188,75.928,27.188Q76.452,27.188,76.756,27.476Q77.06,27.764,77.06,28.304Q77.06,28.656,76.92,28.914Q76.78,29.172,76.524,29.312Q76.268,29.451999999999998,75.928,29.451999999999998ZM75.424,28.304Q75.424,28.612000000000002,75.564,28.8Q75.70400000000001,28.988,75.928,28.988Q76.152,28.988,76.28999999999999,28.8Q76.428,28.612000000000002,76.428,28.304Q76.428,27.984,76.294,27.818Q76.16,27.652,75.928,27.652Q75.696,27.652,75.56,27.818Q75.424,27.984,75.424,28.304ZM77.9,27.24L77.9,27.472Q78.004,27.36,78.15,27.298000000000002Q78.29599999999999,27.236,78.44,27.236Q78.53999999999999,27.236,78.628,27.264L78.628,27.756Q78.51599999999999,27.728,78.416,27.728Q78.264,27.728,78.128,27.778Q77.992,27.828,77.9,27.936L77.9,29.4L77.26,29.4L77.26,27.24L77.9,27.24ZM80.736,29.284Q80.584,29.376,80.382,29.42Q80.18,29.464,79.992,29.464Q79.352,29.464,79.02199999999999,29.16Q78.69200000000001,28.856,78.69200000000001,28.308Q78.69200000000001,27.764,78.986,27.474Q79.28,27.184,79.788,27.184Q80.292,27.184,80.586,27.474Q80.88,27.764,80.88,28.308Q80.88,28.368,80.872,28.48L79.316,28.48Q79.404,28.996,79.992,28.996Q80.404,28.996,80.736,28.752L80.736,29.284ZM80.276,28.032Q80.224,27.832,80.096,27.736Q79.968,27.64,79.788,27.64Q79.62,27.64,79.502,27.74Q79.384,27.84,79.336,28.032L80.276,28.032Z" fill="#000000" fill-opacity="1"/></g><g transform="matrix(-1,0,0,1,111,0)"><path d="M56.104,11.84007568359375L58.68,11.84007568359375Q59.456,11.84007568359375,59.903999999999996,12.22007568359375Q60.352000000000004,12.60007568359375,60.352000000000004,13.30407568359375Q60.352000000000004,13.616075683593749,60.152,13.91207568359375Q59.952,14.20807568359375,59.616,14.424075683593749Q60.104,14.63207568359375,60.4,15.00807568359375Q60.696,15.38407568359375,60.696,15.81607568359375Q60.696,16.56007568359375,60.2,17.00007568359375Q59.704,17.44007568359375,58.864,17.44007568359375L56.104,17.44007568359375L56.104,11.84007568359375ZM58.52,16.47207568359375Q58.92,16.47207568359375,59.14,16.24407568359375Q59.36,16.01607568359375,59.36,15.64007568359375Q59.36,15.33607568359375,59.092,15.14407568359375Q58.824,14.952075683593751,58.288,14.952075683593751L57.424,14.952075683593751L57.424,16.47207568359375L58.52,16.47207568359375ZM58.328,14.17607568359375Q58.656,14.17607568359375,58.84,13.94807568359375Q59.024,13.72007568359375,59.024,13.44807568359375Q59.024,13.12807568359375,58.832,12.90007568359375Q58.64,12.67207568359375,58.184,12.67207568359375L57.424,12.67207568359375L57.424,14.17607568359375L58.328,14.17607568359375ZM63.936,11.84007568359375Q64.816,11.84007568359375,65.324,12.31207568359375Q65.832,12.78407568359375,65.832,13.65607568359375Q65.832,14.520075683593749,65.324,14.99207568359375Q64.816,15.46407568359375,63.936,15.46407568359375L62.576,15.46407568359375L62.576,17.44007568359375L61.256,17.44007568359375L61.256,11.84007568359375L63.936,11.84007568359375ZM63.816,14.40807568359375Q64.216,14.40807568359375,64.432,14.19207568359375Q64.648,13.97607568359375,64.648,13.65607568359375Q64.648,13.32807568359375,64.432,13.11207568359375Q64.216,12.89607568359375,63.816,12.89607568359375L62.576,12.89607568359375L62.576,14.40807568359375L63.816,14.40807568359375ZM68.328,17.528075683593748Q68.24,17.54407568359375,68.056,17.54407568359375Q66.976,17.54407568359375,66.136,17.08007568359375L66.136,15.90407568359375Q66.576,16.17607568359375,67.104,16.36007568359375Q67.632,16.54407568359375,68.064,16.54407568359375Q68.416,16.54407568359375,68.62,16.36782568359375Q68.824,16.19145568359375,68.824,15.96707568359375Q68.824,15.65457568359375,68.584,15.39420568359375Q68.344,15.13370568359375,67.816,14.97344568359375Q67.208,14.78107568359375,66.868,14.584825683593749Q66.528,14.388455683593751,66.356,14.09194568359375Q66.184,13.795455683593751,66.184,13.33870568359375Q66.184,12.90594568359375,66.392,12.54945568359375Q66.6,12.19282568359375,67.004,11.97645568359375Q67.408,11.760075683593751,67.968,11.760075683593751Q68.03999999999999,11.73607568359375,68.19200000000001,11.73607568359375Q68.608,11.73607568359375,69.028,11.82007568359375Q69.44800000000001,11.90407568359375,69.736,12.03207568359375L69.736,13.06407568359375Q69.424,12.92807568359375,69.008,12.84007568359375Q68.592,12.75207568359375,68.272,12.75207568359375Q67.864,12.75207568359375,67.648,12.896575683593749Q67.432,13.04107568359375,67.432,13.29795568359375Q67.432,13.53069568359375,67.664,13.71532568359375Q67.896,13.899955683593749,68.384,14.06845568359375Q68.968,14.23707568359375,69.336,14.449825683593751Q69.70400000000001,14.66245568359375,69.912,15.00370568359375Q70.12,15.34482568359375,70.12,15.85845568359375Q70.12,16.34807568359375,69.896,16.72545568359375Q69.672,17.10270568359375,69.268,17.31544568359375Q68.864,17.528075683593748,68.328,17.528075683593748Z" fill="#409EFF" fill-opacity="1"/></g><g transform="matrix(-1,0,0,1,116,0)"><ellipse cx="68" cy="14.64007568359375" rx="9.5" ry="9.5" fill-opacity="0" stroke-opacity="1" stroke="#000000" fill="none" stroke-width="1"/></g><g transform="matrix(-1,0,0,1,83.6982421875,0)"><path d="M45.85808109375,6.154792738189697Q44.19748109375,4.494188738189697,42.04389709375,3.5833007381896973L41.65434509375,4.504304738189697Q43.62829109375,5.339212738189698,45.15098109375,6.861902738189697Q46.67366109375,8.384592738189697,47.50857109375,10.358532738189698Q48.37280109375,12.401802738189698,48.37280109375,14.640102738189697Q48.37280109375,16.8784027381897,47.50857109375,18.921602738189698Q46.67367109375,20.895602738189698,45.15098109375,22.4182027381897Q43.62829109375,23.940902738189695,41.65434509375,24.775802738189697L42.04389709375,25.696802738189696Q44.19748109375,24.786002738189698,45.85808109375,23.1254027381897Q47.51869109375,21.464702738189697,48.42958109375,19.3112027381897Q49.37280109375,17.0811027381897,49.37280109375,14.640102738189697Q49.37280109375,12.199012738189698,48.42958109375,9.968982738189698Q47.51869109375,7.815402738189697,45.85808109375,6.154792738189697Z" fill-rule="evenodd" fill="#409EFF" fill-opacity="1"/></g><g><path d="M58.14476322265625,6.1548132421875Q56.48416322265625,4.4942092421875,54.33057922265625,3.5833212421875L53.94102722265625,4.5043252421875Q55.91497322265625,5.3392332421875,57.43766322265625,6.861923242187499Q58.96034322265625,8.3846132421875,59.79525322265625,10.3585532421875Q60.65948322265625,12.4018232421875,60.65948322265625,14.6401232421875Q60.65948322265625,16.878423242187502,59.79525322265625,18.9216232421875Q58.96035322265625,20.8956232421875,57.43766322265625,22.4182232421875Q55.91497322265625,23.9409232421875,53.94102722265625,24.7758232421875L54.33057922265625,25.6968232421875Q56.48416322265625,24.7860232421875,58.14476322265625,23.1254232421875Q59.80537322265625,21.4647232421875,60.71626322265625,19.311223242187502Q61.65948322265625,17.081123242187502,61.65948322265625,14.6401232421875Q61.65948322265625,12.1990332421875,60.71626322265625,9.969003242187501Q59.80537322265625,7.815423242187499,58.14476322265625,6.1548132421875Z" fill-rule="evenodd" fill="#409EFF" fill-opacity="1"/></g></g></svg>