<svg xmlns="http://www.w3.org/2000/svg" xmlns:xlink="http://www.w3.org/1999/xlink" fill="none" version="1.1" width="32" height="32" viewBox="0 0 32 32"><defs><clipPath id="master_svg0_33_881"><rect x="32" y="0" width="32" height="32" rx="0"/></clipPath></defs><g transform="matrix(-1,0,0,1,64,0)" clip-path="url(#master_svg0_33_881)"><rect x="32" y="0" width="32" height="32" rx="0" fill="#FFFFFF" fill-opacity="1"/><g transform="matrix(-1,0,0,1,119,0)"><path d="M61.676,29.660923339843748Q61.22,29.660923339843748,60.866,29.49292333984375Q60.512,29.32492333984375,60.310001,29.00492333984375Q60.108001,28.68492333984375,60.108001,28.24492333984375Q60.108001,27.78092333984375,60.304001,27.44692333984375Q60.5,27.11292333984375,60.852,26.93492333984375Q61.204,26.756923339843752,61.656,26.756923339843752Q61.88,26.756923339843752,62.108,26.80092333984375Q62.336,26.84492333984375,62.484,26.91292333984375L62.484,27.40892333984375Q62.08,27.26092333984375,61.732,27.26092333984375Q61.316,27.26092333984375,61.058,27.50492333984375Q60.8,27.74892333984375,60.8,28.24492333984375Q60.8,28.50892333984375,60.928,28.71092333984375Q61.056,28.91292333984375,61.264,29.02492333984375Q61.472,29.13692333984375,61.712,29.15292333984375L61.8,29.15692333984375Q61.984,29.15692333984375,62.164,29.10492333984375Q62.344,29.05292333984375,62.484,28.96492333984375L62.484,29.51692333984375Q62.312,29.596923339843748,62.118,29.62892333984375Q61.924,29.660923339843748,61.676,29.660923339843748ZM63.94,29.660923339843748Q63.6,29.660923339843748,63.342,29.52092333984375Q63.084,29.38092333984375,62.944,29.12292333984375Q62.804,28.86492333984375,62.804,28.51292333984375Q62.804,27.97292333984375,63.108,27.68492333984375Q63.412,27.39692333984375,63.94,27.39692333984375Q64.464,27.39692333984375,64.768,27.68492333984375Q65.072,27.97292333984375,65.072,28.51292333984375Q65.072,28.86492333984375,64.932,29.12292333984375Q64.792,29.38092333984375,64.536,29.52092333984375Q64.28,29.660923339843748,63.94,29.660923339843748ZM63.436,28.51292333984375Q63.436,28.820923339843752,63.576,29.00892333984375Q63.716,29.19692333984375,63.94,29.19692333984375Q64.164,29.19692333984375,64.30199999999999,29.00892333984375Q64.44,28.820923339843752,64.44,28.51292333984375Q64.44,28.19292333984375,64.306,28.02692333984375Q64.172,27.86092333984375,63.94,27.86092333984375Q63.708,27.86092333984375,63.572,28.02692333984375Q63.436,28.19292333984375,63.436,28.51292333984375ZM66.032,27.44092333984375L66.032,27.70092333984375Q66.18,27.57292333984375,66.37,27.50092333984375Q66.56,27.42892333984375,66.748,27.42892333984375Q67.056,27.42892333984375,67.238,27.60892333984375Q67.42,27.78892333984375,67.42,28.07692333984375L67.42,29.60092333984375L66.78,29.60092333984375L66.78,28.18492333984375Q66.78,28.06892333984375,66.684,27.99492333984375Q66.588,27.92092333984375,66.456,27.92092333984375Q66.372,27.92092333984375,66.246,27.97692333984375Q66.12,28.03292333984375,66.032,28.11292333984375L66.032,29.60092333984375L65.392,29.60092333984375L65.392,27.44092333984375L66.032,27.44092333984375ZM68.688,29.65692333984375Q68.444,29.66892333984375,68.194,29.61892333984375Q67.944,29.56892333984375,67.76,29.46492333984375L67.76,28.88892333984375Q67.924,29.00892333984375,68.154,29.08692333984375Q68.384,29.16492333984375,68.56,29.15292333984375Q68.684,29.14492333984375,68.74,29.09892333984375Q68.79599999999999,29.05292333984375,68.804,29.00492333984375Q68.824,28.88092333984375,68.744,28.81692333984375Q68.664,28.75292333984375,68.444,28.69292333984375Q68.2,28.62492333984375,68.056,28.53492333984375Q67.912,28.44492333984375,67.838,28.33092333984375Q67.764,28.21692333984375,67.764,28.04092333984375Q67.764,27.85692333984375,67.86,27.71092333984375Q67.956,27.56492333984375,68.164,27.48092333984375Q68.372,27.39692333984375,68.612,27.39692333984375Q68.792,27.39692333984375,68.976,27.43092333984375Q69.16,27.46492333984375,69.284,27.52092333984375L69.284,28.03692333984375Q69.156,27.97292333984375,68.982,27.92292333984375Q68.80799999999999,27.87292333984375,68.68,27.87292333984375Q68.408,27.87292333984375,68.384,28.01692333984375Q68.372,28.10092333984375,68.462,28.16492333984375Q68.55199999999999,28.22892333984375,68.72,28.28092333984375Q68.96000000000001,28.35692333984375,69.114,28.43692333984375Q69.268,28.51692333984375,69.356,28.64492333984375Q69.444,28.77292333984375,69.444,28.97292333984375Q69.444,29.26892333984375,69.232,29.45492333984375Q69.02,29.64092333984375,68.688,29.65692333984375ZM69.904,27.44892333984375L69.904,26.83292333984375L70.504,26.83292333984375L70.504,27.44892333984375L70.92,27.44892333984375L70.92,27.93692333984375L70.504,27.93692333984375L70.504,28.86492333984375Q70.504,28.98092333984375,70.522,29.04092333984375Q70.53999999999999,29.10092333984375,70.588,29.12292333984375Q70.636,29.14492333984375,70.728,29.14492333984375Q70.788,29.14492333984375,70.83,29.14092333984375Q70.872,29.13692333984375,70.904,29.12892333984375L70.904,29.62092333984375Q70.736,29.64092333984375,70.592,29.64092333984375Q70.316,29.64092333984375,70.18,29.58492333984375Q70.044,29.52892333984375,69.974,29.39092333984375Q69.904,29.25292333984375,69.904,28.99692333984375L69.904,27.93692333984375L69.592,27.93692333984375L69.592,27.44892333984375L69.904,27.44892333984375ZM73.164,29.49292333984375Q73.012,29.58492333984375,72.81,29.62892333984375Q72.608,29.67292333984375,72.42,29.67292333984375Q71.78,29.67292333984375,71.45,29.36892333984375Q71.12,29.06492333984375,71.12,28.51692333984375Q71.12,27.97292333984375,71.414,27.68292333984375Q71.708,27.39292333984375,72.216,27.39292333984375Q72.72,27.39292333984375,73.014,27.68292333984375Q73.30799999999999,27.97292333984375,73.30799999999999,28.51692333984375Q73.30799999999999,28.57692333984375,73.3,28.68892333984375L71.744,28.68892333984375Q71.832,29.20492333984375,72.42,29.20492333984375Q72.832,29.20492333984375,73.164,28.96092333984375L73.164,29.49292333984375ZM72.70400000000001,28.24092333984375Q72.652,28.04092333984375,72.524,27.94492333984375Q72.396,27.84892333984375,72.216,27.84892333984375Q72.048,27.84892333984375,71.93,27.94892333984375Q71.812,28.04892333984375,71.764,28.24092333984375L72.70400000000001,28.24092333984375ZM74.356,29.64092333984375Q73.996,29.64092333984375,73.812,29.43892333984375Q73.628,29.23692333984375,73.628,28.84492333984375L73.628,26.53292333984375L74.268,26.53292333984375L74.268,28.68492333984375Q74.268,28.84492333984375,74.292,28.92892333984375Q74.316,29.01292333984375,74.372,29.05692333984375Q74.416,29.09292333984375,74.47,29.10292333984375Q74.524,29.11292333984375,74.66,29.11292333984375L74.66,29.64092333984375L74.356,29.64092333984375ZM75.628,29.64092333984375Q75.268,29.64092333984375,75.084,29.43892333984375Q74.9,29.23692333984375,74.9,28.84492333984375L74.9,26.53292333984375L75.53999999999999,26.53292333984375L75.53999999999999,28.68492333984375Q75.53999999999999,28.84492333984375,75.564,28.92892333984375Q75.588,29.01292333984375,75.644,29.05692333984375Q75.688,29.09292333984375,75.742,29.10292333984375Q75.79599999999999,29.11292333984375,75.932,29.11292333984375L75.932,29.64092333984375L75.628,29.64092333984375ZM76.864,27.44892333984375L76.864,29.60892333984375L76.224,29.60892333984375L76.224,27.44892333984375L76.864,27.44892333984375ZM76.224,26.53292333984375L76.864,26.53292333984375L76.864,27.17292333984375L76.224,27.17292333984375L76.224,26.53292333984375ZM78.372,29.660923339843748Q78.032,29.660923339843748,77.774,29.52092333984375Q77.51599999999999,29.38092333984375,77.376,29.12292333984375Q77.236,28.86492333984375,77.236,28.51292333984375Q77.236,27.97292333984375,77.53999999999999,27.68492333984375Q77.844,27.39692333984375,78.372,27.39692333984375Q78.896,27.39692333984375,79.2,27.68492333984375Q79.504,27.97292333984375,79.504,28.51292333984375Q79.504,28.86492333984375,79.364,29.12292333984375Q79.224,29.38092333984375,78.968,29.52092333984375Q78.712,29.660923339843748,78.372,29.660923339843748ZM77.868,28.51292333984375Q77.868,28.820923339843752,78.008,29.00892333984375Q78.148,29.19692333984375,78.372,29.19692333984375Q78.596,29.19692333984375,78.73400000000001,29.00892333984375Q78.872,28.820923339843752,78.872,28.51292333984375Q78.872,28.19292333984375,78.738,28.02692333984375Q78.604,27.86092333984375,78.372,27.86092333984375Q78.14,27.86092333984375,78.004,28.02692333984375Q77.868,28.19292333984375,77.868,28.51292333984375ZM80.464,27.44092333984375L80.464,27.70092333984375Q80.612,27.57292333984375,80.80199999999999,27.50092333984375Q80.992,27.42892333984375,81.18,27.42892333984375Q81.488,27.42892333984375,81.67,27.60892333984375Q81.852,27.78892333984375,81.852,28.07692333984375L81.852,29.60092333984375L81.212,29.60092333984375L81.212,28.18492333984375Q81.212,28.06892333984375,81.116,27.99492333984375Q81.02,27.92092333984375,80.888,27.92092333984375Q80.804,27.92092333984375,80.678,27.97692333984375Q80.55199999999999,28.03292333984375,80.464,28.11292333984375L80.464,29.60092333984375L79.824,29.60092333984375L79.824,27.44092333984375L80.464,27.44092333984375Z" fill="#000000" fill-opacity="1"/></g><g><g transform="matrix(-1,0,0,1,118,0)"><ellipse cx="61" cy="5.30517578125" rx="2" ry="2" fill="#000000" fill-opacity="1"/></g><g transform="matrix(-1,0,0,1,106,0)"><ellipse cx="55" cy="5.30517578125" rx="2" ry="2" fill="#000000" fill-opacity="1"/></g><g transform="matrix(-1,0,0,1,94,0)"><ellipse cx="49" cy="5.30517578125" rx="2" ry="2" fill="#000000" fill-opacity="1"/></g><g transform="matrix(-1,0,0,1,82,0)"><ellipse cx="43" cy="5.30517578125" rx="2" ry="2" fill="#000000" fill-opacity="1"/></g><g transform="matrix(-1,0,0,1,118,0)"><ellipse cx="61" cy="11.30517578125" rx="2" ry="2" fill="#000000" fill-opacity="1"/></g><g transform="matrix(-1,0,0,1,114,0)"><path d="M56.5,17.499675781249998L62.28005,23.80517578125L69.2071,23.80517578125L75.5,17.51227578125L75.5,11.09806578125L69.2071,4.80517578125L62.79289,4.80517578125L56.5,11.09806578125L56.5,17.499675781249998ZM62.71995,22.80517578125L57.5,17.110675781250002L57.5,11.51228578125L63.20711,5.80517578125L68.7929,5.80517578125L74.5,11.51228578125L74.5,17.09807578125L68.7929,22.80517578125L62.71995,22.80517578125Z" fill-rule="evenodd" fill="#409EFF" fill-opacity="1"/></g><g transform="matrix(-1,0,0,1,106,0)"><ellipse cx="55" cy="11.30517578125" rx="2" ry="2" fill="#000000" fill-opacity="1"/></g><g transform="matrix(-1,0,0,1,94,0)"><ellipse cx="49" cy="11.30517578125" rx="2" ry="2" fill="#000000" fill-opacity="1"/></g><g transform="matrix(-1,0,0,1,82,0)"><ellipse cx="43" cy="11.30517578125" rx="2" ry="2" fill="#000000" fill-opacity="1"/></g><g transform="matrix(-1,0,0,1,118,0)"><ellipse cx="61" cy="17.30517578125" rx="2" ry="2" fill="#000000" fill-opacity="1"/></g><g transform="matrix(-1,0,0,1,106,0)"><ellipse cx="55" cy="17.30517578125" rx="2" ry="2" fill="#000000" fill-opacity="1"/></g><g transform="matrix(-1,0,0,1,94,0)"><ellipse cx="49" cy="17.30517578125" rx="2" ry="2" fill="#000000" fill-opacity="1"/></g><g transform="matrix(-1,0,0,1,82,0)"><ellipse cx="43" cy="17.30517578125" rx="2" ry="2" fill="#000000" fill-opacity="1"/></g><g transform="matrix(-1,0,0,1,118,0)"><ellipse cx="61" cy="23.30517578125" rx="2" ry="2" fill="#000000" fill-opacity="1"/></g><g transform="matrix(-1,0,0,1,106,0)"><ellipse cx="55" cy="23.30517578125" rx="2" ry="2" fill="#000000" fill-opacity="1"/></g><g transform="matrix(-1,0,0,1,94,0)"><ellipse cx="49" cy="23.30517578125" rx="2" ry="2" fill="#000000" fill-opacity="1"/></g><g transform="matrix(-1,0,0,1,82,0)"><ellipse cx="43" cy="23.30517578125" rx="2" ry="2" fill="#000000" fill-opacity="1"/></g></g></g></svg>