<?xml version="1.0" standalone="no"?><!DOCTYPE svg PUBLIC "-//W3C//DTD SVG 1.1//EN" "http://www.w3.org/Graphics/SVG/1.1/DTD/svg11.dtd"><svg t="1694069471395" class="icon" viewBox="0 0 1024 1024" version="1.1" xmlns="http://www.w3.org/2000/svg" p-id="10963" xmlns:xlink="http://www.w3.org/1999/xlink" width="200" height="200"><path d="M224.384 942.464q-9.472 0-16.64-4.544-7.168-4.544-11.008-12.736-3.84-8.192-3.84-18.688 0-10.624 3.904-18.88 3.904-8.256 11.008-12.864 7.104-4.608 16.576-4.608 4.352 0 8.768 1.536t8.256 4.48v-33.792h20.48V924.8q0 10.24 2.56 16h-19.2q-0.896-1.792-1.536-4.608-8.064 6.272-19.328 6.272z m-11.904-35.968q0 5.888 2.368 10.752 2.368 4.864 6.272 7.744 3.904 2.88 8.256 2.88 3.456 0 7.616-1.664t6.848-6.912v-25.728q-2.688-5.376-6.848-7.04-4.16-1.664-7.616-1.664-4.352 0-8.256 2.816t-6.272 7.808q-2.368 4.992-2.368 11.008z m84.352-34.816v69.12h-20.48v-69.12h20.48z m-20.48-29.312h20.48v20.48h-20.48v-20.48z m55.424 29.312v7.424q3.328-3.584 8-5.568 4.672-1.984 9.28-1.984 3.2 0 6.016 0.896v15.744q-3.584-0.896-6.784-0.896-4.864 0-9.216 1.6-4.352 1.6-7.296 5.056V940.8h-20.48v-69.12h20.48z m94.592 65.408q-4.864 2.944-11.328 4.352-6.464 1.408-12.48 1.408-20.48 0-31.04-9.728-10.56-9.728-10.56-27.264 0-17.408 9.408-26.688 9.408-9.28 25.664-9.28 16.128 0 25.536 9.28 9.408 9.28 9.408 26.688 0 1.92-0.256 5.504h-49.792q2.816 16.512 21.632 16.512 13.184 0 23.808-7.808v17.024z m-14.72-40.064q-1.664-6.4-5.76-9.472-4.096-3.072-9.856-3.072-5.376 0-9.152 3.2-3.776 3.2-5.312 9.344h30.08z m87.168 41.472q-9.856 3.968-20.224 3.968-10.88 0-20.032-4.416t-14.528-12.544q-5.376-8.128-5.376-18.752 0-11.136 5.12-19.456t14.016-12.736q8.896-4.416 19.904-4.416 9.984 0 20.224 3.584v15.744q-7.808-3.328-16-3.328-10.112 0-16.768 4.8-6.656 4.8-6.656 15.808 0 6.272 3.456 10.624t8.96 6.592q5.504 2.24 11.648 2.24 4.736 0 9.024-1.344 4.288-1.344 7.232-3.776v17.408z m15.616-66.816v-19.712h19.2v19.712h13.312v15.616h-13.312v29.696q0 3.712 0.576 5.632 0.576 1.92 2.112 2.624 1.536 0.704 4.48 0.704 1.92 0 3.264-0.128 1.344-0.128 2.368-0.384v15.744q-5.376 0.64-9.984 0.64-8.832 0-13.184-1.792-4.352-1.792-6.592-6.208-2.24-4.416-2.24-12.608v-33.92h-9.984v-15.616h9.984z m63.616 0v69.12h-20.48v-69.12h20.48z m-20.48-29.312h20.48v20.48h-20.48v-20.48z m68.736 100.096q-10.88 0-19.136-4.48-8.256-4.48-12.736-12.736t-4.48-19.52q0-17.28 9.728-26.496 9.728-9.216 26.624-9.216 16.768 0 26.496 9.216 9.728 9.216 9.728 26.496 0 11.264-4.48 19.52t-12.672 12.736q-8.192 4.48-19.072 4.48z m-16.128-36.736q0 9.856 4.48 15.872t11.648 6.016q7.168 0 11.584-6.016 4.416-6.016 4.416-15.872 0-10.24-4.288-15.552-4.288-5.312-11.712-5.312-7.424 0-11.776 5.312-4.352 5.312-4.352 15.552z m83.072-34.304v8.32q4.736-4.096 10.816-6.4 6.08-2.304 12.096-2.304 9.856 0 15.68 5.76t5.824 14.976v48.768h-20.48v-45.312q0-3.712-3.072-6.08t-7.296-2.368q-2.688 0-6.72 1.792t-6.848 4.352v47.616h-20.48v-69.12h20.48z m86.656 71.04q-9.728 0-16.96-4.608-7.232-4.608-11.136-12.672-3.904-8.064-3.904-18.816 0-10.624 3.904-18.88 3.904-8.256 11.008-12.864 7.104-4.608 16.576-4.608 4.352 0 8.768 1.6t8.256 4.416v-4.352h20.48v52.992q0 10.368 2.56 16.128h-19.2q-0.896-1.792-1.536-4.608-7.936 6.272-18.816 6.272z m-12.416-36.096q0 5.888 2.368 10.752 2.368 4.864 6.272 7.744 3.904 2.88 8.256 2.88 3.072 0 6.912-1.344t6.656-5.824v-28.672q-2.816-4.48-6.592-5.76-3.776-1.28-6.976-1.28-4.352 0-8.256 2.816t-6.272 7.744q-2.368 4.928-2.368 10.944z m85.504 35.456q-11.52 0-17.408-6.464-5.888-6.464-5.888-19.008v-73.984h20.48v68.864q0 5.12 0.768 7.808 0.768 2.688 2.56 4.096 1.408 1.152 3.136 1.472 1.728 0.32 6.08 0.32v16.896h-9.728z" fill="#000000" p-id="10964"></path><path d="M512 432h-96q-46.944 0-68.8-12.8-15.68-9.152-35.04-39.072-24.448-37.792-51.488-64.8Q208.96 263.552 163.232 249.28q-29.664-9.28-99.2-9.28L64 208q74.432 0 108.8 10.72 53.184 16.64 110.528 73.952 29.408 29.44 55.68 70.08 15.264 23.52 24.352 28.832 14.4 8.416 52.64 8.416h96v32z" fill="#000000" p-id="10965"></path><path d="M512 432h92q46.944 0 68.8-12.8 15.68-9.152 35.04-39.072 24.448-37.792 51.488-64.8 51.744-51.776 97.44-66.048 29.664-9.28 99.2-9.28l0.032-32q-74.432 0-108.8 10.72-53.184 16.64-110.528 73.952-29.408 29.44-55.68 70.08-15.264 23.52-24.352 28.832-14.4 8.416-52.64 8.416H512v32zM512 528h-96q-46.944 0-68.8 12.8-15.68 9.152-35.04 39.072-24.448 37.792-51.488 64.8-51.744 51.776-97.44 66.048-29.664 9.28-99.2 9.28L64 752q74.432 0 108.8-10.72 53.184-16.64 110.528-73.952 29.408-29.44 55.68-70.08 15.264-23.52 24.352-28.832 14.4-8.416 52.64-8.416h96v-32z" fill="#409EFF" p-id="10966"></path><path d="M512 528h92q46.944 0 68.8 12.8 15.68 9.152 35.04 39.072 24.448 37.792 51.488 64.8 51.744 51.776 97.44 66.048 29.664 9.28 99.2 9.28l0.032 32q-74.432 0-108.8-10.72-53.184-16.64-110.528-73.952-29.408-29.44-55.68-70.08-15.264-23.52-24.352-28.832-14.4-8.416-52.64-8.416H512v-32z" fill="#000000" p-id="10967"></path></svg>