<svg xmlns="http://www.w3.org/2000/svg" xmlns:xlink="http://www.w3.org/1999/xlink" fill="none" version="1.1" width="42.60000002384186" height="42.60000002384186" viewBox="0 0 42.60000002384186 42.60000002384186"><defs><clipPath id="master_svg0_56_6027"><rect x="41.80000001192093" y="0.800000011920929" width="41" height="41" rx="0"/><path d="M41.00000001192093,41.80000001192093L41.00000001192093,0.800000011920929Q41.00000001192093,0.721206911920929,41.01537201192093,0.643928011920929Q41.03074401192093,0.566649011920929,41.06089601192093,0.49385301192092895Q41.09104901192093,0.42105801192092895,41.13482401192093,0.35554401192092894Q41.17859901192093,0.2900300119209289,41.23431501192093,0.23431501192092896Q41.290030011920926,0.17859901192092897,41.35554401192093,0.13482401192092897Q41.42105801192093,0.09104901192092896,41.493853011920926,0.06089601192092897Q41.56664901192093,0.030744011920928904,41.64392801192093,0.015372011920928963Q41.72120691192093,1.1920928910669204e-8,41.80000001192093,1.1920928910669204e-8L82.80000001192093,1.1920928910669204e-8Q82.87880001192093,1.1920928910669204e-8,82.95610001192094,0.015372011920928963Q83.03330001192093,0.030744011920928904,83.10610001192093,0.06089601192092897Q83.17890001192093,0.09104901192092896,83.24450001192093,0.13482401192092897Q83.31000001192092,0.17859901192092897,83.36570001192092,0.23431501192092896Q83.42140001192092,0.2900300119209289,83.46520001192093,0.35554401192092894Q83.50890001192093,0.42105801192092895,83.53910001192094,0.49385301192092895Q83.56930001192093,0.566649011920929,83.58460001192093,0.643928011920929Q83.60000001192093,0.721206911920929,83.60000001192093,0.800000011920929L83.60000001192093,41.80000001192093Q83.60000001192093,41.87880001192093,83.58460001192093,41.95610001192093Q83.56930001192093,42.03330001192093,83.53910001192094,42.10610001192093Q83.50890001192093,42.17890001192093,83.46520001192093,42.24450001192093Q83.42140001192092,42.31000001192093,83.36570001192092,42.36570001192093Q83.31000001192092,42.42140001192093,83.24450001192093,42.46520001192093Q83.17890001192093,42.50890001192093,83.10610001192093,42.53910001192093Q83.03330001192093,42.56930001192093,82.95610001192094,42.58460001192093Q82.87880001192093,42.600000011920926,82.80000001192093,42.600000011920926L41.80000001192093,42.600000011920926Q41.72120691192093,42.600000011920926,41.64392801192093,42.58460001192093Q41.56664901192093,42.56930001192093,41.493853011920926,42.53910001192093Q41.42105801192093,42.50890001192093,41.35554401192093,42.46520001192093Q41.290030011920926,42.42140001192093,41.23431501192093,42.36570001192093Q41.17859901192093,42.31000001192093,41.13482401192093,42.24450001192093Q41.09104901192093,42.17890001192093,41.06089601192093,42.10610001192093Q41.03074401192093,42.03330001192093,41.01537201192093,41.95610001192093Q41.00000001192093,41.87880001192093,41.00000001192093,41.80000001192093ZM42.600000011920926,1.600000011920929L42.600000011920926,41.00000001192093L82.00000001192093,41.00000001192093L82.00000001192093,1.600000011920929L42.600000011920926,1.600000011920929Z"/></clipPath><radialGradient cx="0" cy="0" r="1" gradientUnits="userSpaceOnUse" id="master_svg1_54_10110" gradientTransform="translate(76.22263771295547 25.617643892765045) rotate(90) scale(3.915788412094116 3.9158017635345455)"><stop offset="8.571428805589676%" stop-color="#000000" stop-opacity="1"/><stop offset="31.42857253551483%" stop-color="#000000" stop-opacity="1"/><stop offset="69.9999988079071%" stop-color="#000000" stop-opacity="1"/><stop offset="79.45205569267273%" stop-color="#409EFF" stop-opacity="1"/><stop offset="100%" stop-color="#409EFF" stop-opacity="1"/></radialGradient></defs><g transform="matrix(-1,0,0,1,83.60000002384186,0)" clip-path="url(#master_svg0_56_6027)"><rect x="41.80000001192093" y="0.800000011920929" width="41" height="41" rx="0" fill="#FFFFFF" fill-opacity="1"/><g><g transform="matrix(-1,0,0,1,156.29754030704498,0)"><path d="M79.29091015352249,11.993287472858428Q78.14877015352249,13.135417472858428,78.14877015352249,14.750647472858429Q78.148770077154,16.36586747285843,79.29091015352249,17.50800747285843Q80.4330401535225,18.65014747285843,82.0482701535225,18.65014747285843L105.94667015352249,18.65014747285843Q107.5619701535225,18.65014747285843,108.7040701535225,17.50800747285843Q109.8461701535225,16.36586747285843,109.8461701535225,14.750647472858429Q109.8461701535225,13.135417472858428,108.7040701535225,11.993287472858428Q107.5619701535225,10.851147472858429,105.94667015352249,10.851147472858429L82.0482701535225,10.851147472858429Q80.4330401535225,10.851147396489928,79.29091015352249,11.993287472858428ZM80.19689015352249,16.60202747285843Q79.43002015352249,15.835157472858429,79.43002015352249,14.750647472858429Q79.43002015352249,13.66612747285843,80.19689015352249,12.89926747285843Q80.9637501535225,12.132397472858429,82.0482701535225,12.132397472858429L105.94667015352249,12.132397472858429Q107.0311701535225,12.132397472858429,107.79807015352249,12.89926747285843Q108.5649701535225,13.666137472858429,108.5649701535225,14.750647472858429Q108.5649701535225,15.835157472858429,107.79807015352249,16.60202747285843Q107.0311701535225,17.36889747285843,105.94667015352249,17.36889747285843L82.0482701535225,17.36889747285843Q80.9637501535225,17.36889747285843,80.19689015352249,16.60202747285843Z" fill-rule="evenodd" fill="#000000" fill-opacity="1"/></g><g transform="matrix(-1,0,0,1,148.49871218204498,0)"><path d="M74.34935609102249,13.664257824420929L86.09855609102249,13.664257824420929C86.15375609102249,13.664257824420929,86.1985560910225,13.709029324420928,86.1985560910225,13.764257824420929L86.1985560910225,15.73683782442093C86.1985560910225,15.79206782442093,86.15375609102249,15.836837824420929,86.09855609102249,15.836837824420929L74.34935579102249,15.836837824420929C74.29412759102249,15.836837824420929,74.24935609102249,15.79206782442093,74.24935609102249,15.73683782442093L74.24935609102249,13.764257824420929C74.24935609102249,13.709029324420928,74.29412759102249,13.664257824420929,74.34935609102249,13.664257824420929" fill="#409EFF" fill-opacity="1"/></g><g transform="matrix(-1,0,0,1,122.22429811954498,0)"><path d="M61.11214905977249,14.88215782442093L61.11214905977249,14.618937824420929C61.11214905977249,14.091682824420928,61.53957405977249,13.664257824420929,62.06683005977249,13.664257824420929C62.59408905977249,13.664257824420929,63.02150905977249,14.091682824420928,63.02150905977249,14.618937824420929L63.02150905977249,14.88215782442093C63.02150905977249,15.40941782442093,62.59408905977249,15.836837824420929,62.06683005977249,15.836837824420929C61.53957405977249,15.836837824420929,61.11214905977249,15.40941782442093,61.11214905977249,14.88215782442093Z" fill="#409EFF" fill-opacity="1"/></g><g transform="matrix(-1,0,0,1,117.09099733829498,0)"><path d="M58.54549866914749,14.88215782442093L58.54549866914749,14.618937824420929C58.54549866914749,14.091682824420928,58.97292366914749,13.664257824420929,59.50017966914749,13.664257824420929C60.02743866914749,13.664257824420929,60.45485866914749,14.091682824420928,60.45485866914749,14.618937824420929L60.45485866914749,14.88215782442093C60.45485866914749,15.40941782442093,60.02743866914749,15.836837824420929,59.50017966914749,15.836837824420929C58.97292366914749,15.836837824420929,58.54549866914749,15.40941782442093,58.54549866914749,14.88215782442093Z" fill="#409EFF" fill-opacity="1"/></g><g transform="matrix(-1,0,0,1,111.30974733829498,0)"><path d="M55.65487366914749,14.750547824420929C55.65487366914749,14.15060682442093,56.14122266914749,13.664257824420929,56.74116366914749,13.664257824420929L60.61300366914749,13.664257824420929C61.21294366914749,13.664257824420929,61.699293669147494,14.15060682442093,61.699293669147494,14.750547824420929C61.699293669147494,15.350487824420929,61.21294366914749,15.836837824420929,60.61300366914749,15.836837824420929L56.74116366914749,15.836837824420929C56.14122266914749,15.836837824420929,55.65487366914749,15.350487824420929,55.65487366914749,14.750547824420929Z" fill="#409EFF" fill-opacity="1"/></g><g transform="matrix(-1,0,0,1,127.78045046329498,0)"><path d="M65.47783523164749,9.52205065645218L65.8124352316475,11.23591065645218L67.0699452316475,10.990410656452179L66.10202523164749,6.032537656452179C66.06946523164748,5.865781656452179,65.97200523164749,5.718787656452179,65.83106523164749,5.623893656452179C65.69013523164749,5.528999456452179,65.51727523164749,5.493977956452179,65.35051523164749,5.526533456452179C65.09396523164749,5.576619956452179,64.89357523164749,5.777555656452179,64.84418323164749,6.034244656452179L63.89022523164749,10.99212065645218L65.1483952316475,11.23420065645218L65.47783523164749,9.52205065645218Z" fill-rule="evenodd" fill="#000000" fill-opacity="1"/></g><g transform="matrix(-1,0,0,1,131.00603640079498,0)"><path d="M65.50301820039749,4.448065910358429Q67.1045782003975,3.487111910358429,68.70613820039749,3.487111910358429Q70.30770820039749,3.487111910358429,71.90926820039749,4.448065910358429C70.62801820039749,3.1668189103584288,68.1101682003975,1.122135910358429,65.50301820039749,4.448065910358429Z" fill="#000000" fill-opacity="1"/></g><g transform="matrix(-1,0,0,1,128.75066530704498,0)"><path d="M64.37533265352249,5.433513781452179Q65.41298265352249,4.810899781452179,66.4506426535225,4.810899781452179Q67.48829265352249,4.810899781452179,68.52594265352249,5.433513781452179C67.6958226535225,4.603378781452179,66.06451265352248,3.278614781452179,64.37533265352249,5.433513781452179Z" fill="#000000" fill-opacity="1"/></g></g><g><g transform="matrix(-1,0,0,1,156.29754030704498,0)"><path d="M78.14877015352249,32.524456799030304L78.14877015352249,39.0422017990303C78.14877015352249,39.396011799030305,78.43558815352249,39.6828317990303,78.78939515352249,39.6828317990303L109.20557015352249,39.6828317990303C109.5593701535225,39.6828317990303,109.8461701535225,39.396011799030305,109.8461701535225,39.0422017990303L109.8461701535225,32.524456799030304C109.8461701535225,32.1706497990303,109.5593701535225,31.883831799030304,109.20557015352249,31.883831799030304L78.78939515352249,31.883831799030304C78.43558815352249,31.883831799030304,78.14877015352249,32.1706497990303,78.14877015352249,32.524456799030304ZM79.43002015352249,38.4015817990303L79.43002015352249,33.165081799030304L108.5649701535225,33.165081799030304L108.5649701535225,38.4015817990303L79.43002015352249,38.4015817990303Z" fill-rule="evenodd" fill="#409EFF" fill-opacity="1"/></g><g transform="matrix(-1,0,0,1,148.49871218204498,0)"><path d="M74.24935609102249,34.697003185749054L79.4863960910225,34.697003185749054L79.4863960910225,36.86958318574905L74.24935609102249,36.86958318574905L74.24935609102249,34.697003185749054Z" fill="#000000" fill-opacity="1"/></g><g transform="matrix(-1,0,0,1,130.81755983829498,0)"><path d="M65.40877991914749,35.78329318574905C65.40877991914749,35.18335218574905,65.8951289191475,34.697003185749054,66.4950699191475,34.697003185749054L80.1207799191475,34.697003185749054C80.72067991914749,34.697003185749054,81.20707991914749,35.18335218574905,81.20707991914749,35.78329318574905C81.20707991914749,36.383233185749056,80.72067991914749,36.86958318574905,80.1207799191475,36.86958318574905L66.4950699191475,36.86958318574905C65.8951289191475,36.86958318574905,65.40877991914749,36.383233185749056,65.40877991914749,35.78329318574905Z" fill="#000000" fill-opacity="1"/></g><g transform="matrix(-1,0,0,1,129.27459108829498,0)"><path d="M65.03402954414749,35.386578381061554L69.4776055441475,35.386578381061554C69.6967155441475,35.386578381061554,69.8743355441475,35.564202381061556,69.8743355441475,35.783312381061556C69.8743355441475,36.00242238106156,69.6967155441475,36.180045381061554,69.4776055441475,36.180045381061554L65.03402954414749,36.180045381061554C64.81491954414749,36.180045381061554,64.63729554414749,36.00242238106156,64.63729554414749,35.783312381061556C64.63729554414749,35.564202381061556,64.81491954414749,35.386578381061554,65.03402954414749,35.386578381061554" fill="#FFFFFF" fill-opacity="1"/></g><g transform="matrix(-1,0,0,1,117.45964968204498,0)"><path d="M59.126558841022494,35.386578381061554L63.570134841022494,35.386578381061554C63.789244841022494,35.386578381061554,63.96686484102249,35.564202381061556,63.96686484102249,35.783312381061556C63.96686484102249,36.00242238106156,63.789244841022494,36.180045381061554,63.570134841022494,36.180045381061554L59.126558841022494,36.180045381061554C58.90744884102249,36.180045381061554,58.72982484102249,36.00242238106156,58.72982484102249,35.783312381061556C58.72982484102249,35.564202381061556,58.90744884102249,35.386578381061554,59.126558841022494,35.386578381061554" fill="#FFFFFF" fill-opacity="1"/></g><g transform="matrix(-1,0,0,1,105.64568483829498,0)"><path d="M53.219576419147494,35.386517345905304L55.19383241914749,35.386517345905304C55.41294241914749,35.386517345905304,55.59056241914749,35.564141345905306,55.59056241914749,35.783251345905306C55.59056241914749,36.00236134590531,55.41294241914749,36.179984345905304,55.19383241914749,36.179984345905304L53.219576419147494,36.179984345905304C53.00046641914749,36.179984345905304,52.82284241914749,36.00236134590531,52.82284241914749,35.783251345905306C52.82284241914749,35.564141345905306,53.00046641914749,35.386517345905304,53.219576419147494,35.386517345905304" fill="#FFFFFF" fill-opacity="1"/></g></g><g transform="matrix(-1,0,0,1,144.61367189884186,0)"><path d="M80.13843594942092,25.61764548067093Q80.13843594942092,25.810015480670927,80.11958594942092,26.001455480670927Q80.10072594942093,26.19290548067093,80.06319594942093,26.38157548067093Q80.02566594942093,26.570245480670927,79.96982594942092,26.754335480670928Q79.91398594942093,26.93842548067093,79.84036594942093,27.11615548067093Q79.76674594942092,27.293875480670927,79.67606594942093,27.463535480670927Q79.58538594942092,27.633185480670928,79.47850594942093,27.79313548067093Q79.37163594942093,27.95308548067093,79.24959594942092,28.10179548067093Q79.12755594942092,28.250495480670928,78.99152594942093,28.38652548067093Q78.85549594942093,28.52255548067093,78.70679594942092,28.64458548067093Q78.55809594942093,28.76662548067093,78.39813594942093,28.87350548067093Q78.23818594942092,28.98037548067093,78.06853594942093,29.07105548067093Q77.89887594942093,29.16174548067093,77.72114594942093,29.23535548067093Q77.54342594942094,29.30897548067093,77.35933594942092,29.364815480670927Q77.17524594942093,29.42066548067093,76.98657594942092,29.45819548067093Q76.79789594942093,29.495725480670927,76.60645594942093,29.514575480670928Q76.41500594942093,29.533435480670928,76.22263594942093,29.533435480670928Q76.03026594942092,29.533435480670928,75.83882594942092,29.514575480670928Q75.64737594942093,29.495725480670927,75.45870594942093,29.45819548067093Q75.27002594942093,29.42066548067093,75.08593594942093,29.364815480670927Q74.90185594942093,29.30897548067093,74.72412594942092,29.23535548067093Q74.54639594942093,29.16174548067093,74.37674594942092,29.07105548067093Q74.20708594942093,28.98037548067093,74.04713594942093,28.87350548067093Q73.88718594942092,28.76662548067093,73.73847594942093,28.64458548067093Q73.58977594942093,28.52255548067093,73.45374594942093,28.38652548067093Q73.31771594942093,28.250495480670928,73.19568194942093,28.10179548067093Q73.07364294942093,27.95308548067093,72.96676794942093,27.79313548067093Q72.85989194942093,27.633185480670928,72.76920894942093,27.463535480670927Q72.67852594942093,27.293875480670927,72.60490894942093,27.11615548067093Q72.53129094942094,26.93842548067093,72.47544894942092,26.754335480670928Q72.41960694942092,26.570245480670927,72.38207694942093,26.38157548067093Q72.34454724942093,26.19290548067093,72.32569164942093,26.001455480670927Q72.30683594942093,25.810015480670927,72.30683594942093,25.61764548067093Q72.30683594942093,25.42527548067093,72.32569164942093,25.23382548067093Q72.34454724942093,25.04238548067093,72.38207694942093,24.853715480670928Q72.41960694942092,24.66503548067093,72.47544894942092,24.48095548067093Q72.53129094942094,24.296865480670927,72.60490894942093,24.119135480670927Q72.67852594942093,23.94140548067093,72.76920894942093,23.77175548067093Q72.85989194942093,23.60209548067093,72.96676794942093,23.44214548067093Q73.07364294942093,23.28219548067093,73.19568194942093,23.13349548067093Q73.31771594942093,22.98478548067093,73.45374594942093,22.848765480670927Q73.58977594942093,22.71273548067093,73.73847594942093,22.59069848067093Q73.88718594942092,22.46866048067093,74.04713594942093,22.361784480670927Q74.20708594942093,22.25490948067093,74.37674594942092,22.16422648067093Q74.54639594942093,22.07354448067093,74.72412594942092,21.99992748067093Q74.90185594942093,21.926310480670928,75.08593594942093,21.87046848067093Q75.27002594942093,21.81462548067093,75.45870594942093,21.77709628067093Q75.64737594942093,21.73956668067093,75.83882594942092,21.720711080670927Q76.03026594942092,21.70185548067093,76.22263594942093,21.70185548067093Q76.41500594942093,21.70185548067093,76.60645594942093,21.720711080670927Q76.79789594942093,21.73956668067093,76.98657594942092,21.77709628067093Q77.17524594942093,21.81462548067093,77.35933594942092,21.87046848067093Q77.54342594942094,21.926310480670928,77.72114594942093,21.99992748067093Q77.89887594942093,22.07354448067093,78.06853594942093,22.16422648067093Q78.23818594942092,22.25490948067093,78.39813594942093,22.361784480670927Q78.55809594942093,22.46866048067093,78.70679594942092,22.59069848067093Q78.85549594942093,22.71273548067093,78.99152594942093,22.848765480670927Q79.12755594942092,22.98478548067093,79.24959594942092,23.13349548067093Q79.37163594942093,23.28219548067093,79.47850594942093,23.44214548067093Q79.58538594942092,23.60209548067093,79.67606594942093,23.77175548067093Q79.76674594942092,23.94140548067093,79.84036594942093,24.119135480670927Q79.91398594942093,24.296865480670927,79.96982594942092,24.48094548067093Q80.02566594942093,24.66503548067093,80.06319594942093,24.853715480670928Q80.10072594942093,25.04238548067093,80.11958594942092,25.23382548067093Q80.13843594942092,25.42527548067093,80.13843594942092,25.61764548067093Z" fill="#409EFF" fill-opacity="0.30000001192092896"/></g><g transform="matrix(-1,0,0,1,144.61367189884186,0)"><path d="M80.13843594942092,25.61764548067093C80.13843594942092,27.78027548067093,78.38527594942093,29.533435480670928,76.22263594942093,29.533435480670928C74.05999594942092,29.533435480670928,72.30683594942093,27.78027548067093,72.30683594942093,25.61764548067093C72.30683594942093,23.45501548067093,74.05999594942092,21.70185548067093,76.22263594942093,21.70185548067093C78.38527594942093,21.70185548067093,80.13843594942092,23.45501548067093,80.13843594942092,25.61764548067093ZM78.85718594942092,25.61764548067093Q78.85718594942092,24.52638548067093,78.08554594942093,23.75474548067093Q77.31390594942093,22.98310548067093,76.22263594942093,22.98310548067093Q75.13136594942092,22.98310548067093,74.35972594942093,23.75474548067093Q73.58808594942093,24.52638548067093,73.58808594942093,25.61764548067093Q73.58808594942093,26.70890548067093,74.35972594942093,27.48054548067093Q75.13136594942092,28.252185480670928,76.22263594942093,28.252185480670928Q77.31390594942093,28.252185480670928,78.08554594942093,27.48054548067093Q78.85718594942092,26.70890548067093,78.85718594942092,25.61764548067093Z" fill-rule="evenodd" fill="url(#master_svg1_54_10110)" fill-opacity="1"/></g><g transform="matrix(-1,0,0,1,133.86953127384186,0)"><path d="M76.20454563692093,24.89861512910843Q76.20454563692093,25.012395129108427,76.19895563692093,25.12604512910843Q76.19337563692093,25.23968512910843,76.18222563692093,25.35291512910843Q76.17107563692093,25.46614512910843,76.15437563692093,25.57869512910843Q76.13768563692093,25.69124512910843,76.11548563692094,25.80283512910843Q76.09328563692092,25.91442512910843,76.06563563692093,26.02479512910843Q76.03799563692093,26.13516512910843,76.00496563692093,26.24405512910843Q75.97193563692093,26.35293512910843,75.93360563692093,26.46005512910843Q75.89527563692093,26.56718512910843,75.85172563692093,26.67230512910843Q75.80818563692092,26.77742512910843,75.75954563692093,26.88028512910843Q75.71089563692092,26.98313512910843,75.65725563692092,27.08348512910843Q75.60362563692092,27.183825129108428,75.54512563692093,27.281415129108428Q75.48663563692092,27.379015129108428,75.42342563692092,27.473615129108428Q75.36020563692092,27.56821512910843,75.29242563692092,27.659605129108428Q75.22465563692093,27.75099512910843,75.15246563692094,27.838945129108428Q75.08028563692093,27.92690512910843,75.00387563692092,28.01120512910843Q74.92746563692093,28.095515129108428,74.84701563692093,28.175965129108427Q74.76655563692093,28.25642512910843,74.68225563692093,28.332835129108428Q74.59794563692093,28.409245129108427,74.50999563692093,28.48142512910843Q74.42204563692093,28.553605129108426,74.33065563692092,28.62138512910843Q74.23926563692093,28.68916512910843,74.14465563692093,28.75237512910843Q74.05005563692093,28.815585129108428,73.95246563692093,28.874075129108427Q73.85486563692093,28.93257512910843,73.75452563692093,28.986205129108427Q73.65417563692093,29.03984512910843,73.55132563692092,29.08849512910843Q73.44846563692093,29.13713512910843,73.34334563692093,29.18068512910843Q73.23822563692093,29.22422512910843,73.13109563692093,29.262555129108428Q73.02397563692092,29.30088512910843,72.91509563692092,29.333915129108426Q72.80620563692094,29.36694512910843,72.69583563692093,29.394585129108428Q72.58546563692093,29.42223512910843,72.47387563692092,29.444435129108427Q72.36228563692093,29.46662512910843,72.24973563692093,29.48332512910843Q72.13718563692093,29.50002512910843,72.02395563692093,29.51117512910843Q71.91071563692093,29.52232512910843,71.79707563692092,29.52790512910843Q71.68343563692093,29.53349512910843,71.56965563692093,29.53349512910843Q71.45587563692092,29.53349512910843,71.34222563692093,29.52790512910843Q71.22858563692093,29.52232512910843,71.11535563692092,29.51117512910843Q71.00212563692092,29.50002512910843,70.88957563692092,29.48332512910843Q70.77702563692092,29.46662512910843,70.66543563692093,29.444435129108427Q70.55383563692092,29.42223512910843,70.44346563692093,29.394585129108428Q70.33309563692093,29.36694512910843,70.22421563692093,29.333915129108426Q70.11533563692093,29.30088512910843,70.00820563692093,29.262555129108428Q69.90107563692092,29.22422512910843,69.79595563692092,29.18068512910843Q69.69083563692092,29.13714512910843,69.58798563692093,29.08849512910843Q69.48512563692093,29.03984512910843,69.38478563692092,28.98621512910843Q69.28443563692093,28.93257512910843,69.18684563692094,28.87408512910843Q69.08925563692092,28.815585129108428,68.99464563692094,28.75237512910843Q68.90004563692094,28.68916512910843,68.80865563692093,28.62138512910843Q68.71726563692093,28.553605129108426,68.62931563692094,28.48142512910843Q68.54135563692093,28.409245129108427,68.45705563692093,28.332835129108428Q68.37274563692092,28.25642512910843,68.29229563692093,28.175965129108427Q68.21183563692092,28.095515129108428,68.13542563692093,28.01120512910843Q68.05901563692093,27.92690512910843,67.98683563692093,27.838945129108428Q67.91465563692093,27.75099512910843,67.84687663692092,27.659605129108428Q67.77909763692092,27.56821512910843,67.71588463692093,27.473615129108428Q67.65267263692093,27.379015129108428,67.59417763692093,27.281415129108428Q67.53568263692092,27.183825129108428,67.48204763692092,27.08348512910843Q67.42841163692093,26.98313512910843,67.37976463692092,26.88028512910843Q67.33111763692092,26.77742512910843,67.28757563692093,26.67230512910843Q67.24403363692093,26.56718512910843,67.20570263692093,26.46005512910843Q67.16737063692094,26.35293512910843,67.13434263692093,26.24405512910843Q67.10131363692093,26.13516512910843,67.07366763692093,26.02479512910843Q67.04602063692093,25.91442512910843,67.02382373692093,25.80283512910843Q67.00162633692094,25.69124512910843,66.98493133692092,25.57869512910843Q66.96823623692093,25.46614512910843,66.95708393692092,25.35291512910843Q66.94593143692093,25.23968512910843,66.94034855692092,25.12604512910843Q66.93476563692093,25.012395129108427,66.93476563692093,24.89861512910843Q66.93476563692093,24.78483512910843,66.94034855692092,24.67119512910843Q66.94593143692093,24.55755512910843,66.95708393692092,24.444325129108428Q66.96823623692093,24.33108512910843,66.98493133692092,24.218545129108428Q67.00162633692094,24.10599512910843,67.02382373692093,23.99439512910843Q67.04602063692093,23.88280512910843,67.07366763692093,23.77243512910843Q67.10131363692093,23.662065129108427,67.13434263692093,23.553185129108428Q67.16737063692094,23.44430512910843,67.20570263692093,23.33717512910843Q67.24403363692093,23.23004512910843,67.28757563692093,23.12492512910843Q67.33111763692092,23.01980512910843,67.37976463692092,22.91695512910843Q67.42841163692093,22.81409512910843,67.48204763692092,22.713755129108428Q67.53568263692092,22.61340512910843,67.59417763692093,22.51581512910843Q67.65267263692093,22.41822512910843,67.71588463692093,22.32362512910843Q67.77909763692092,22.22901512910843,67.84687663692092,22.13762512910843Q67.91465563692093,22.046235129108428,67.98683563692093,21.95828512910843Q68.05901563692093,21.87033512910843,68.13542563692093,21.786025129108427Q68.21183563692092,21.70172512910843,68.29229563692093,21.62126512910843Q68.37274563692092,21.540815129108427,68.45705563692093,21.464405129108428Q68.54135563692093,21.38799512910843,68.62931563692094,21.31581512910843Q68.71726563692093,21.24363212910843,68.80865563692093,21.17585312910843Q68.90004563692094,21.108074129108427,68.99464563692094,21.044862129108427Q69.08925563692092,20.98164912910843,69.18684563692094,20.92315512910843Q69.28443563692093,20.86466012910843,69.38478563692092,20.81102512910843Q69.48512563692093,20.75738912910843,69.58798563692093,20.70874212910843Q69.69083563692092,20.660095129108427,69.79595563692092,20.61655412910843Q69.90107563692092,20.573012129108427,70.00820563692093,20.534681129108428Q70.11533563692093,20.49635012910843,70.22421563692093,20.46332112910843Q70.33309563692093,20.430293129108428,70.44346563692093,20.40264612910843Q70.55383563692092,20.37500012910843,70.66543563692093,20.352802929108428Q70.77702563692092,20.33060552910843,70.88957563692092,20.313910629108427Q71.00212563692092,20.29721562910843,71.11535563692092,20.28606332910843Q71.22858563692093,20.27491092910843,71.34222563692093,20.26932803910843Q71.45587563692092,20.26374512910843,71.56965563692093,20.26374512910843Q71.68343563692093,20.26374512910843,71.79707563692092,20.26932803910843Q71.91071563692093,20.27491092910843,72.02395563692093,20.28606332910843Q72.13718563692093,20.29721562910843,72.24973563692093,20.313910629108427Q72.36228563692093,20.33060552910843,72.47387563692092,20.352802929108428Q72.58546563692093,20.37500012910843,72.69583563692093,20.40264612910843Q72.80620563692094,20.430293129108428,72.91508563692094,20.46332112910843Q73.02397563692092,20.49635012910843,73.13109563692093,20.534681129108428Q73.23822563692093,20.573012129108427,73.34334563692093,20.61655412910843Q73.44846563692093,20.660095129108427,73.55132563692092,20.70874212910843Q73.65417563692093,20.75738912910843,73.75452563692093,20.81102512910843Q73.85486563692093,20.86466012910843,73.95246563692093,20.92315512910843Q74.05005563692093,20.98164912910843,74.14465563692093,21.044862129108427Q74.23926563692093,21.108074129108427,74.33065563692092,21.17585312910843Q74.42204563692093,21.24363212910843,74.50999563692093,21.31581512910843Q74.59794563692093,21.38799512910843,74.68225563692093,21.464405129108428Q74.76655563692093,21.540815129108427,74.84701563692093,21.62126512910843Q74.92746563692093,21.70172512910843,75.00387563692092,21.786025129108427Q75.08028563692093,21.87033512910843,75.15246563692094,21.95828512910843Q75.22465563692093,22.046235129108428,75.29243563692093,22.13762512910843Q75.36020563692092,22.22901512910843,75.42342563692092,22.32362512910843Q75.48663563692092,22.41822512910843,75.54512563692093,22.51581512910843Q75.60362563692092,22.61340512910843,75.65725563692092,22.713755129108428Q75.71089563692092,22.81409512910843,75.75954563692093,22.91695512910843Q75.80818563692092,23.01980512910843,75.85173563692092,23.12492512910843Q75.89527563692093,23.23004512910843,75.93360563692093,23.33717512910843Q75.97193563692093,23.44430512910843,76.00496563692093,23.553185129108428Q76.03799563692093,23.662065129108427,76.06563563692093,23.77243512910843Q76.09328563692092,23.88280512910843,76.11548563692094,23.99439512910843Q76.13768563692093,24.10599512910843,76.15437563692093,24.218545129108428Q76.17107563692093,24.33108512910843,76.18222563692093,24.444325129108428Q76.19337563692093,24.55755512910843,76.19895563692093,24.67119512910843Q76.20454563692093,24.78483512910843,76.20454563692093,24.89861512910843Z" fill="#C6E2FF" fill-opacity="1"/></g><g transform="matrix(-1,0,0,1,133.86953127384186,0)"><path d="M76.20454563692093,24.89861512910843C76.20454563692093,27.45838512910843,74.12943563692093,29.53349512910843,71.56965563692093,29.53349512910843C69.00987563692092,29.53349512910843,66.93476563692093,27.45838512910843,66.93476563692093,24.89861512910843C66.93476563692093,22.338845129108428,69.00987563692092,20.26374512910843,71.56965563692093,20.26374512910843C74.12943563692093,20.26374512910843,76.20454563692093,22.338845129108428,76.20454563692093,24.89861512910843ZM74.92329563692093,24.89861512910843Q74.92329563692093,23.50950512910843,73.94103563692093,22.52724512910843Q72.95877563692093,21.54499512910843,71.56965563692093,21.54499512910843Q70.18052563692093,21.54499512910843,69.19827563692093,22.52724512910843Q68.21601563692093,23.50950512910843,68.21601563692093,24.89861512910843Q68.21601563692093,26.28773512910843,69.19827563692093,27.269985129108427Q70.18052563692093,28.25224512910843,71.56965563692093,28.25224512910843Q72.95877563692093,28.25224512910843,73.94103563692093,27.269985129108427Q74.92329563692093,26.28773512910843,74.92329563692093,24.89861512910843Z" fill-rule="evenodd" fill="#000000" fill-opacity="1"/></g><g transform="matrix(-1,0,0,1,120.24892580509186,0)"><path d="M67.95606290254592,25.61764548067093Q67.95606290254592,25.810015480670927,67.93721290254592,26.001455480670927Q67.91835290254593,26.19290548067093,67.88082290254593,26.38157548067093Q67.84329290254593,26.570245480670927,67.78745290254592,26.754335480670928Q67.73161290254593,26.93842548067093,67.65799290254593,27.11615548067093Q67.58437290254592,27.293875480670927,67.49369290254593,27.463535480670927Q67.40301290254592,27.633185480670928,67.29613290254593,27.79313548067093Q67.18926290254593,27.95308548067093,67.06722290254592,28.10179548067093Q66.94518290254592,28.250495480670928,66.80915290254593,28.38652548067093Q66.67312290254593,28.52255548067093,66.52442290254592,28.64458548067093Q66.37572290254593,28.76662548067093,66.21576290254593,28.87350548067093Q66.05581290254592,28.98037548067093,65.88616290254593,29.07105548067093Q65.71650290254593,29.16174548067093,65.53877290254593,29.23535548067093Q65.36105290254594,29.30897548067093,65.17696290254592,29.364815480670927Q64.99287290254593,29.42066548067093,64.80420290254592,29.45819548067093Q64.61552290254593,29.495725480670927,64.42408290254593,29.514575480670928Q64.23263290254593,29.533435480670928,64.04026290254593,29.533435480670928Q63.84789290254593,29.533435480670928,63.65645290254593,29.514575480670928Q63.465002902545926,29.495725480670927,63.27633290254593,29.45819548067093Q63.087652902545926,29.42066548067093,62.90356290254593,29.364815480670927Q62.71948290254593,29.30897548067093,62.54175290254593,29.23535548067093Q62.364022902545926,29.16174548067093,62.19437290254593,29.07105548067093Q62.02471290254593,28.98037548067093,61.86476290254593,28.87350548067093Q61.70481290254593,28.76662548067093,61.55610290254593,28.64458548067093Q61.407402902545925,28.52255548067093,61.27137290254593,28.38652548067093Q61.13534290254593,28.250495480670928,61.01330890254593,28.10179548067093Q60.89126990254593,27.95308548067093,60.78439490254593,27.79313548067093Q60.67751890254593,27.633185480670928,60.58683590254593,27.463535480670927Q60.49615290254593,27.293875480670927,60.42253590254593,27.11615548067093Q60.34891790254593,26.93842548067093,60.29307590254593,26.754335480670928Q60.23723390254593,26.570245480670927,60.19970390254593,26.38157548067093Q60.16217420254593,26.19290548067093,60.14331860254593,26.001455480670927Q60.12446290254593,25.810015480670927,60.12446290254593,25.61764548067093Q60.12446290254593,25.42527548067093,60.14331860254593,25.23382548067093Q60.16217420254593,25.04238548067093,60.19970390254593,24.853715480670928Q60.23723390254593,24.66503548067093,60.29307590254593,24.48095548067093Q60.34891790254593,24.296865480670927,60.42253590254593,24.119135480670927Q60.49615290254593,23.94140548067093,60.58683590254593,23.77175548067093Q60.67751890254593,23.60209548067093,60.78439490254593,23.44214548067093Q60.89126990254593,23.28219548067093,61.01330890254593,23.13349548067093Q61.13534290254593,22.98478548067093,61.27137290254593,22.848765480670927Q61.407402902545925,22.71273548067093,61.55610290254593,22.59069848067093Q61.70481290254593,22.46866048067093,61.86476290254593,22.361784480670927Q62.02471290254593,22.25490948067093,62.19437290254593,22.16422648067093Q62.364022902545926,22.07354448067093,62.54175290254593,21.99992748067093Q62.71948290254593,21.926310480670928,62.90356290254593,21.87046848067093Q63.087652902545926,21.81462548067093,63.27633290254593,21.77709628067093Q63.465002902545926,21.73956668067093,63.65645290254593,21.720711080670927Q63.84789290254593,21.70185548067093,64.04026290254593,21.70185548067093Q64.23263290254593,21.70185548067093,64.42408290254593,21.720711080670927Q64.61552290254593,21.73956668067093,64.80420290254592,21.77709628067093Q64.99287290254593,21.81462548067093,65.17696290254592,21.87046848067093Q65.36105290254594,21.926310480670928,65.53877290254593,21.99992748067093Q65.71650290254593,22.07354448067093,65.88616290254593,22.16422648067093Q66.05581290254592,22.25490948067093,66.21576290254593,22.361784480670927Q66.37572290254593,22.46866048067093,66.52442290254592,22.59069848067093Q66.67312290254593,22.71273548067093,66.80915290254593,22.848765480670927Q66.94518290254592,22.98478548067093,67.06722290254592,23.13349548067093Q67.18926290254593,23.28219548067093,67.29613290254593,23.44214548067093Q67.40301290254592,23.60209548067093,67.49369290254593,23.77175548067093Q67.58437290254592,23.94140548067093,67.65799290254593,24.119135480670927Q67.73161290254593,24.296865480670927,67.78745290254592,24.48094548067093Q67.84329290254593,24.66503548067093,67.88082290254593,24.853715480670928Q67.91835290254593,25.04238548067093,67.93721290254592,25.23382548067093Q67.95606290254592,25.42527548067093,67.95606290254592,25.61764548067093Z" fill="#C6E2FF" fill-opacity="1"/></g><g transform="matrix(-1,0,0,1,120.24892580509186,0)"><path d="M67.95606290254592,25.61764548067093C67.95606290254592,27.78027548067093,66.20290290254593,29.533435480670928,64.04026290254593,29.533435480670928C61.87762290254593,29.533435480670928,60.12446290254593,27.78027548067093,60.12446290254593,25.61764548067093C60.12446290254593,23.45501548067093,61.87762290254593,21.70185548067093,64.04026290254593,21.70185548067093C66.20290290254593,21.70185548067093,67.95606290254592,23.45501548067093,67.95606290254592,25.61764548067093ZM66.67481290254592,25.61764548067093Q66.67481290254592,24.52638548067093,65.90317290254593,23.75474548067093Q65.13153290254593,22.98310548067093,64.04026290254593,22.98310548067093Q62.94899290254593,22.98310548067093,62.17735290254593,23.75474548067093Q61.40571290254593,24.52638548067093,61.40571290254593,25.61764548067093Q61.40571290254593,26.70890548067093,62.17735290254593,27.48054548067093Q62.94899290254593,28.252185480670928,64.04026290254593,28.252185480670928Q65.13153290254593,28.252185480670928,65.90317290254593,27.48054548067093Q66.67481290254592,26.70890548067093,66.67481290254592,25.61764548067093Z" fill-rule="evenodd" fill="#000000" fill-opacity="1"/></g><g transform="matrix(-1,0,0,1,113.27285158634186,0)"><path d="M66.34873579317093,22.96851807832718L56.63642579317093,22.96851807832718L56.63642579317093,21.68726807832718L66.34873579317093,21.68726807832718L66.34873579317093,22.96851807832718Z" fill-rule="evenodd" fill="#000000" fill-opacity="1"/></g><g transform="matrix(-1,0,0,1,155.23232424259186,0)"><path d="M86.89105212129593,29.53699952363968L77.61616212129593,29.53699952363968L77.61616212129593,28.25574952363968L86.89105212129593,28.25574952363968L86.89105212129593,29.53699952363968Z" fill-rule="evenodd" fill="#409EFF" fill-opacity="1"/></g><g transform="matrix(0,-1,-1,0,110.61257326602936,110.61257326602936)"><path d="M82.35681696504592,33.74494630098343L78.14887696504593,33.74494630098343L78.14887696504593,32.46369630098343L82.35681696504592,32.46369630098343L82.35681696504592,33.74494630098343Z" fill-rule="evenodd" fill="#409EFF" fill-opacity="1"/></g><g transform="matrix(0,-1,-1,0,70.70113527774811,70.70113527774811)"><path d="M55.95049719942093,24.24976807832718L47.73261719942093,24.24976807832718L47.73261719942093,22.96851807832718L55.95049719942093,22.96851807832718L55.95049719942093,24.24976807832718Z" fill-rule="evenodd" fill="#000000" fill-opacity="1"/></g><path d="M41.00000001192093,41.80000001192093L41.00000001192093,0.800000011920929Q41.00000001192093,0.721206911920929,41.01537201192093,0.643928011920929Q41.03074401192093,0.566649011920929,41.06089601192093,0.49385301192092895Q41.09104901192093,0.42105801192092895,41.13482401192093,0.35554401192092894Q41.17859901192093,0.2900300119209289,41.23431501192093,0.23431501192092896Q41.290030011920926,0.17859901192092897,41.35554401192093,0.13482401192092897Q41.42105801192093,0.09104901192092896,41.493853011920926,0.06089601192092897Q41.56664901192093,0.030744011920928904,41.64392801192093,0.015372011920928963Q41.72120691192093,1.1920928910669204e-8,41.80000001192093,1.1920928910669204e-8L82.80000001192093,1.1920928910669204e-8Q82.87880001192093,1.1920928910669204e-8,82.95610001192094,0.015372011920928963Q83.03330001192093,0.030744011920928904,83.10610001192093,0.06089601192092897Q83.17890001192093,0.09104901192092896,83.24450001192093,0.13482401192092897Q83.31000001192092,0.17859901192092897,83.36570001192092,0.23431501192092896Q83.42140001192092,0.2900300119209289,83.46520001192093,0.35554401192092894Q83.50890001192093,0.42105801192092895,83.53910001192094,0.49385301192092895Q83.56930001192093,0.566649011920929,83.58460001192093,0.643928011920929Q83.60000001192093,0.721206911920929,83.60000001192093,0.800000011920929L83.60000001192093,41.80000001192093Q83.60000001192093,41.87880001192093,83.58460001192093,41.95610001192093Q83.56930001192093,42.03330001192093,83.53910001192094,42.10610001192093Q83.50890001192093,42.17890001192093,83.46520001192093,42.24450001192093Q83.42140001192092,42.31000001192093,83.36570001192092,42.36570001192093Q83.31000001192092,42.42140001192093,83.24450001192093,42.46520001192093Q83.17890001192093,42.50890001192093,83.10610001192093,42.53910001192093Q83.03330001192093,42.56930001192093,82.95610001192094,42.58460001192093Q82.87880001192093,42.600000011920926,82.80000001192093,42.600000011920926L41.80000001192093,42.600000011920926Q41.72120691192093,42.600000011920926,41.64392801192093,42.58460001192093Q41.56664901192093,42.56930001192093,41.493853011920926,42.53910001192093Q41.42105801192093,42.50890001192093,41.35554401192093,42.46520001192093Q41.290030011920926,42.42140001192093,41.23431501192093,42.36570001192093Q41.17859901192093,42.31000001192093,41.13482401192093,42.24450001192093Q41.09104901192093,42.17890001192093,41.06089601192093,42.10610001192093Q41.03074401192093,42.03330001192093,41.01537201192093,41.95610001192093Q41.00000001192093,41.87880001192093,41.00000001192093,41.80000001192093ZM42.600000011920926,1.600000011920929L42.600000011920926,41.00000001192093L82.00000001192093,41.00000001192093L82.00000001192093,1.600000011920929L42.600000011920926,1.600000011920929Z" fill="#000000" fill-opacity="1"/></g></svg>