<svg xmlns="http://www.w3.org/2000/svg" xmlns:xlink="http://www.w3.org/1999/xlink" fill="none" version="1.1" width="32" height="32" viewBox="0 0 32 32"><defs><clipPath id="master_svg0_33_779"><rect x="32" y="0" width="32" height="32" rx="0"/></clipPath></defs><g transform="matrix(-1,0,0,1,64,0)" clip-path="url(#master_svg0_33_779)"><rect x="32" y="0" width="32" height="32" rx="0" fill="#FFFFFF" fill-opacity="1"/><g transform="matrix(-1,0,0,1,123,0)"><path d="M61.74,3.1086669921875L63.708,3.1086669921875L63.708,3.6526669921875L62.4,3.6526669921875L62.4,4.2526669921875L63.536,4.2526669921875L63.536,4.7606669921875L62.4,4.7606669921875L62.4,5.3646669921875L63.708,5.3646669921875L63.708,5.9086669921875L61.74,5.9086669921875L61.74,3.1086669921875ZM65.468,5.9606669921875Q65.336,6.3806669921875,65.008,6.5886669921875Q64.68,6.8046669921875,64.036,6.8206669921875L64.036,6.304666992187499Q64.30799999999999,6.304666992187499,64.508,6.244666992187501Q64.69200000000001,6.1846669921875,64.776,6.0846669921875005Q64.864,5.9846669921875,64.908,5.8246669921875L64.96,5.6406669921875L64.608,5.6406669921875L63.828,3.7486669921875L64.48,3.7486669921875L65.064,5.2646669921875L65.488,3.7486669921875L66.152,3.7486669921875L65.468,5.9606669921875ZM68.316,5.7926669921875Q68.164,5.8846669921874994,67.962,5.9286669921875Q67.76,5.9726669921875,67.572,5.9726669921875Q66.932,5.9726669921875,66.602,5.6686669921875Q66.272,5.3646669921875,66.272,4.8166669921875Q66.272,4.2726669921875,66.566,3.9826669921875Q66.86,3.6926669921875,67.368,3.6926669921875Q67.872,3.6926669921875,68.166,3.9826669921875Q68.46,4.2726669921875,68.46,4.8166669921875Q68.46,4.8766669921875,68.452,4.9886669921875L66.896,4.9886669921875Q66.984,5.5046669921875,67.572,5.5046669921875Q67.984,5.5046669921875,68.316,5.2606669921875L68.316,5.7926669921875ZM67.856,4.5406669921875Q67.804,4.3406669921875,67.676,4.2446669921875Q67.548,4.1486669921875,67.368,4.1486669921875Q67.2,4.1486669921875,67.082,4.2486669921875Q66.964,4.3486669921875,66.916,4.5406669921875L67.856,4.5406669921875Z" fill="#000000" fill-opacity="1"/></g><g transform="matrix(1,-5.2146120310681e-8,-5.2146120310681e-8,-1,0.0000014293937766751696,54.82263366105171)"><path d="M36.24234,28.83081591796875Q34.5,30.73153591796875,34.5,33.41131591796875L35.5,33.41131591796875Q35.5,31.12052591796875,36.97949,29.50653591796875Q38.44178,27.91131591796875,40.5,27.91131591796875Q42.55822,27.91131591796875,44.02051,29.50653591796875Q45.5,31.12052591796875,45.5,33.41131591796875L46.5,33.41131591796875Q46.5,30.73154591796875,44.75766,28.83081591796875Q42.99813,26.91131591796875,40.5,26.91131591796875Q38.00187,26.91131591796875,36.24234,28.83081591796875Z" fill-rule="evenodd" fill="#000000" fill-opacity="1"/></g><g transform="matrix(-1,0,0,1,92,0)"><path d="M47.24234,22.83081591796875Q45.5,24.73153591796875,45.5,27.41131591796875L46.5,27.41131591796875Q46.5,25.12052591796875,47.97949,23.50653591796875Q49.44178,21.91131591796875,51.5,21.91131591796875Q53.55822,21.91131591796875,55.02051,23.50653591796875Q56.5,25.12052591796875,56.5,27.41131591796875L57.5,27.41131591796875Q57.5,24.73154591796875,55.75766,22.83081591796875Q53.99813,20.91131591796875,51.5,20.91131591796875Q49.00187,20.91131591796875,47.24234,22.83081591796875Z" fill-rule="evenodd" fill="#409EFF" fill-opacity="1"/></g><g transform="matrix(-1,0,0,1,116,0)"><path d="M68.9345,19.09571591796875L78.307,11.80599191796875L77.693,11.01663991796875L69.0655,17.72691591796875L65.58752,13.75204591796875L57.72265,18.99528591796875L58.27735,19.82734591796875L65.41248,15.07058591796875L68.9345,19.09571591796875Z" fill-rule="evenodd" fill="#409EFF" fill-opacity="1"/></g><g transform="matrix(-1,0,0,1,123,0)"><path d="M64.5,26.91131591796875L75.5,26.91131591796875L75.5,25.91131591796875L64.5,25.91131591796875Q63.46447,25.91131591796875,62.73223,25.17911591796875Q62,24.44681591796875,62,23.41131591796875L62,10.91131591796875Q62,9.87578591796875,62.73223,9.14354591796875Q63.46447,8.41131591796875,64.5,8.41131591796875L85.5,8.41131591796875Q86.5355,8.41131591796875,87.2678,9.14354591796875Q88,9.87578591796875,88,10.91131591796875L88,19.41131591796875L89,19.41131591796875L89,10.91131591796875Q89,9.46156591796875,87.9749,8.43644191796875Q86.9497,7.41131591796875,85.5,7.41131591796875L64.5,7.41131591796875Q63.05025,7.41131591796875,62.025126,8.43644191796875Q61,9.46156591796875,61,10.91131591796875L61,23.41131591796875Q61,24.86101591796875,62.025126,25.88621591796875Q63.05025,26.91131591796875,64.5,26.91131591796875Z" fill-rule="evenodd" fill="#000000" fill-opacity="1"/></g><g transform="matrix(-1,0,0,1,116,0)"><path d="M67.5,22.91131591796875L58,22.91131591796875L58,21.91131591796875L67.5,21.91131591796875L67.5,22.91131591796875Z" fill-rule="evenodd" fill="#409EFF" fill-opacity="1"/></g></g></svg>