<?xml version="1.0" standalone="no"?><!DOCTYPE svg PUBLIC "-//W3C//DTD SVG 1.1//EN" "http://www.w3.org/Graphics/SVG/1.1/DTD/svg11.dtd"><svg t="1694069473602" class="icon" viewBox="0 0 1024 1024" version="1.1" xmlns="http://www.w3.org/2000/svg" p-id="11104" xmlns:xlink="http://www.w3.org/1999/xlink" width="200" height="200"><path d="M388.096 887.296h-12.16v-15.616h12.16v-9.024q0-8.096 2.24-12.48t7.68-6.144q5.44-1.792 14.272-1.792h5.76q3.072 0 5.504 0.384v15.488q-1.024-0.384-3.456-0.384h-4.352q-2.944 0-4.48 0.704-1.536 0.704-2.112 2.592-0.576 1.92-0.576 5.568v5.088h16.896v15.616h-16.896V940.8h-20.48v-53.504z m66.688-15.616v69.12h-20.48v-69.12h20.48z m-20.48-29.312h20.48v20.48h-20.48v-20.48z m72.448 100.096q-11.264 0-19.328-6.272-0.64 2.816-1.536 4.608h-19.2q2.56-5.76 2.56-16v-82.432h20.48v33.792q3.84-2.944 8.256-4.48 4.416-1.536 8.768-1.536 9.472 0 16.576 4.608 7.104 4.608 11.008 12.864 3.904 8.256 3.904 18.88 0 10.496-3.84 18.688-3.84 8.192-11.008 12.736-7.168 4.544-16.64 4.544z m-19.2-22.784q2.688 5.12 6.784 6.656 4.096 1.536 7.424 1.536 4.352 0 8.256-2.88t6.272-7.744q2.368-4.864 2.368-10.752 0-6.016-2.368-11.008-2.368-4.992-6.272-7.808-3.904-2.816-8.256-2.816-3.328 0-7.424 1.6t-6.784 6.592v26.624z m123.776 17.408q-4.864 2.944-11.328 4.352-6.464 1.408-12.48 1.408-20.48 0-31.04-9.728-10.56-9.728-10.56-27.264 0-17.408 9.408-26.688 9.408-9.28 25.664-9.28 16.128 0 25.536 9.28 9.408 9.28 9.408 26.688 0 1.92-0.256 5.504h-49.792q2.816 16.512 21.632 16.512 13.184 0 23.808-7.808v17.024z m-14.72-40.064q-1.664-6.4-5.76-9.472-4.096-3.072-9.856-3.072-5.376 0-9.152 3.2-3.776 3.2-5.312 9.344h30.08z m50.048-25.344v7.424q3.328-3.584 8-5.568 4.672-1.984 9.28-1.984 3.2 0 6.016 0.896v15.744q-3.584-0.896-6.784-0.896-4.864 0-9.216 1.6-4.352 1.6-7.296 5.056V940.8h-20.48v-69.12h20.48z" fill="#000000" p-id="11105"></path><path d="M880 448q0 9.024-0.448 18.048t-1.312 18.016q-0.896 8.992-2.24 17.92-1.28 8.96-3.072 17.792-1.76 8.864-3.968 17.632-2.176 8.768-4.8 17.408-2.624 8.64-5.664 17.152-3.04 8.512-6.496 16.864-3.456 8.32-7.36 16.512-3.84 8.16-8.096 16.128t-8.896 15.712q-4.64 7.744-9.664 15.264t-10.4 14.784q-5.376 7.232-11.104 14.24-5.76 6.976-11.84 13.664-6.048 6.72-12.416 13.088-6.4 6.4-13.12 12.448-6.656 6.08-13.632 11.808-7.008 5.728-14.272 11.104-7.232 5.376-14.72 10.4-7.552 5.024-15.296 9.664t-15.68 8.896q-8 4.256-16.16 8.128-8.16 3.84-16.512 7.328-8.352 3.456-16.864 6.496-8.512 3.04-17.152 5.664-8.64 2.624-17.408 4.8-8.768 2.208-17.6 3.968-8.864 1.76-17.824 3.072-8.928 1.344-17.92 2.24-8.96 0.864-18.016 1.312-9.024 0.448-18.048 0.448t-18.048-0.448q-9.024-0.448-18.016-1.312-8.992-0.896-17.92-2.24-8.96-1.28-17.824-3.072-8.832-1.76-17.6-3.968-8.768-2.176-17.408-4.8-8.64-2.624-17.152-5.664-8.512-3.04-16.864-6.496-8.32-3.456-16.512-7.36-8.16-3.84-16.128-8.096t-15.712-8.896q-7.744-4.64-15.264-9.664t-14.784-10.4q-7.232-5.376-14.24-11.104-6.976-5.76-13.664-11.84-6.72-6.048-13.088-12.416-6.4-6.4-12.448-13.12-6.08-6.656-11.808-13.664-5.728-6.976-11.104-14.24-5.376-7.232-10.4-14.72-5.024-7.552-9.664-15.296t-8.896-15.68q-4.256-8-8.128-16.16-3.84-8.16-7.328-16.512-3.456-8.352-6.496-16.864-3.04-8.512-5.664-17.152-2.624-8.64-4.8-17.408-2.208-8.768-3.968-17.6-1.76-8.864-3.104-17.824-1.312-8.928-2.208-17.92-0.864-8.96-1.312-18.016Q144 457.024 144 448t0.448-18.048q0.448-9.024 1.312-18.016 0.896-8.992 2.24-17.92 1.28-8.96 3.072-17.824 1.76-8.832 3.968-17.6 2.176-8.768 4.8-17.408 2.624-8.64 5.664-17.152 3.04-8.512 6.496-16.864 3.456-8.32 7.36-16.512 3.84-8.16 8.096-16.128t8.896-15.712q4.64-7.744 9.664-15.264t10.4-14.784q5.376-7.232 11.104-14.24 5.76-6.976 11.84-13.664 6.048-6.72 12.416-13.088 6.4-6.4 13.12-12.448 6.656-6.08 13.632-11.808 7.008-5.728 14.24-11.104 7.264-5.376 14.784-10.4 7.52-5.024 15.264-9.664t15.68-8.896q8-4.256 16.16-8.128 8.16-3.84 16.512-7.328 8.352-3.456 16.864-6.496 8.512-3.04 17.152-5.664 8.64-2.624 17.408-4.8 8.768-2.208 17.6-3.968 8.864-1.76 17.824-3.104 8.928-1.312 17.92-2.208 8.96-0.864 18.016-1.312 9.024-0.448 18.048-0.448t18.048 0.448q9.024 0.448 18.016 1.312 8.992 0.896 17.92 2.24 8.96 1.28 17.792 3.072 8.864 1.76 17.632 3.968 8.768 2.176 17.408 4.8 8.64 2.624 17.152 5.664 8.512 3.04 16.864 6.496 8.32 3.456 16.512 7.36 8.16 3.84 16.128 8.096t15.712 8.896q7.744 4.64 15.264 9.664t14.752 10.4q7.264 5.376 14.272 11.104 6.976 5.76 13.664 11.84 6.72 6.048 13.088 12.416 6.4 6.4 12.448 13.12 6.08 6.656 11.808 13.632 5.728 7.008 11.104 14.24 5.376 7.264 10.4 14.784 5.024 7.52 9.664 15.264t8.896 15.68q4.256 8 8.128 16.16 3.84 8.16 7.328 16.512 3.456 8.352 6.496 16.864 3.04 8.512 5.664 17.152 2.624 8.64 4.8 17.408 2.208 8.768 3.968 17.6 1.76 8.864 3.104 17.824 1.312 8.928 2.208 17.92 0.864 8.96 1.312 18.016 0.448 9.024 0.448 18.048z" fill="#409EFF" fill-opacity=".4" p-id="11106"></path><path d="M512 64q78.112 0 149.472 30.176 68.928 29.152 122.048 82.304 53.12 53.12 82.304 122.048Q896 369.888 896 448q0 78.112-30.176 149.472-29.152 68.928-82.304 122.048-53.12 53.12-122.048 82.304Q590.112 832 512 832q-78.112 0-149.472-30.176-68.928-29.152-122.048-82.304-53.12-53.12-82.304-122.048Q128 526.112 128 448q0-78.112 30.176-149.472 29.152-68.928 82.304-122.048 53.12-53.12 122.048-82.304Q433.888 64 512 64z m0 32q-71.616 0-137.024 27.648-63.136 26.72-111.872 75.456-48.736 48.736-75.456 111.872Q160 376.384 160 448t27.648 137.024q26.72 63.168 75.456 111.872 48.736 48.736 111.872 75.456Q440.384 800 512 800t136.992-27.648q63.168-26.72 111.904-75.456 48.736-48.704 75.456-111.872Q864 519.616 864 448t-27.648-137.024q-26.72-63.136-75.456-111.872-48.736-48.736-111.904-75.456Q583.616 96 512 96z" fill="#000000" p-id="11107"></path><path d="M768 448q0 6.272-0.32 12.576-0.32 6.272-0.896 12.512-0.64 6.272-1.568 12.48-0.896 6.208-2.144 12.384-1.216 6.144-2.752 12.256-1.504 6.08-3.328 12.096-1.824 6.016-3.968 11.936-2.112 5.92-4.512 11.744-2.4 5.76-5.12 11.456-2.656 5.696-5.632 11.232-2.944 5.536-6.176 10.944-3.232 5.376-6.72 10.624-3.52 5.216-7.232 10.24-3.744 5.056-7.744 9.92-4 4.864-8.192 9.536-4.224 4.64-8.672 9.088-4.448 4.448-9.088 8.64-4.672 4.256-9.536 8.224-4.864 4-9.92 7.744-5.024 3.744-10.24 7.232-5.248 3.488-10.624 6.72-5.408 3.2-10.944 6.176-5.536 2.976-11.2 5.664-5.696 2.688-11.52 5.088-5.792 2.4-11.712 4.512-5.92 2.144-11.936 3.936-6.016 1.824-12.096 3.36-6.08 1.536-12.256 2.752-6.176 1.248-12.384 2.144-6.208 0.96-12.48 1.568-6.24 0.608-12.512 0.896-6.304 0.32-12.576 0.32t-12.576-0.32q-6.272-0.32-12.512-0.896-6.272-0.64-12.48-1.568-6.208-0.896-12.384-2.144-6.144-1.216-12.256-2.752-6.08-1.536-12.096-3.36-6.016-1.792-11.936-3.936-5.92-2.112-11.712-4.512-5.824-2.4-11.52-5.12-5.664-2.656-11.2-5.632-5.536-2.944-10.944-6.176-5.376-3.232-10.624-6.72-5.216-3.52-10.24-7.232-5.056-3.744-9.92-7.744-4.864-4-9.504-8.192-4.672-4.224-9.12-8.672-4.448-4.448-8.64-9.088-4.256-4.672-8.224-9.536-4-4.864-7.744-9.92-3.744-5.024-7.232-10.24-3.488-5.248-6.72-10.624-3.2-5.408-6.176-10.944-2.976-5.536-5.664-11.2-2.688-5.696-5.088-11.52-2.4-5.792-4.512-11.712-2.144-5.92-3.968-11.936-1.824-6.016-3.328-12.096-1.536-6.08-2.752-12.256-1.248-6.176-2.144-12.384-0.96-6.208-1.536-12.48-0.64-6.24-0.96-12.512Q256 454.272 256 448t0.32-12.576q0.32-6.272 0.928-12.512 0.608-6.272 1.536-12.48 0.896-6.208 2.144-12.384 1.216-6.144 2.752-12.256 1.504-6.08 3.328-12.096 1.824-6.016 3.968-11.936 2.112-5.92 4.512-11.712 2.4-5.824 5.12-11.52 2.656-5.664 5.632-11.2 2.944-5.536 6.176-10.944 3.232-5.376 6.72-10.624 3.52-5.216 7.232-10.24 3.744-5.056 7.744-9.92 3.968-4.864 8.192-9.504 4.224-4.672 8.672-9.12 4.448-4.448 9.12-8.64 4.64-4.256 9.504-8.224 4.864-4 9.92-7.744 5.024-3.744 10.24-7.232 5.248-3.488 10.624-6.72 5.408-3.2 10.944-6.176 5.536-2.976 11.2-5.664 5.696-2.688 11.52-5.088 5.792-2.4 11.712-4.512 5.92-2.144 11.936-3.968 6.016-1.824 12.096-3.328 6.08-1.536 12.256-2.752 6.176-1.248 12.384-2.144 6.208-0.96 12.48-1.536 6.24-0.64 12.512-0.96Q505.728 192 512 192t12.576 0.32q6.272 0.32 12.512 0.928 6.272 0.608 12.48 1.536 6.208 0.896 12.384 2.144 6.144 1.216 12.256 2.752 6.08 1.504 12.096 3.328 6.016 1.824 11.936 3.968 5.92 2.112 11.712 4.512 5.824 2.4 11.52 5.12 5.664 2.656 11.2 5.632 5.536 2.944 10.944 6.176 5.376 3.232 10.624 6.72 5.216 3.52 10.24 7.232 5.056 3.744 9.92 7.744 4.864 4 9.536 8.192 4.64 4.224 9.088 8.672 4.448 4.448 8.64 9.12 4.256 4.64 8.224 9.504 4 4.864 7.744 9.92 3.744 5.024 7.232 10.24 3.488 5.248 6.72 10.624 3.2 5.408 6.176 10.944 2.976 5.536 5.664 11.2 2.688 5.696 5.088 11.52 2.4 5.792 4.512 11.712 2.144 5.92 3.968 11.936 1.824 6.016 3.328 12.096 1.536 6.08 2.752 12.256 1.248 6.176 2.144 12.384 0.96 6.208 1.568 12.48 0.608 6.24 0.896 12.512 0.32 6.304 0.32 12.576z" fill="#409EFF" fill-opacity=".6" p-id="11108"></path><path d="M512 176q55.328 0 105.888 21.376 48.8 20.64 86.432 58.304 37.664 37.632 58.304 86.432 21.376 50.56 21.376 105.888t-21.376 105.888q-20.64 48.8-58.304 86.432-37.632 37.664-86.432 58.304-50.56 21.376-105.888 21.376t-105.888-21.376q-48.8-20.64-86.432-58.304-37.664-37.632-58.304-86.432Q240 503.328 240 448t21.376-105.888Q282.016 293.312 319.68 255.68q37.632-37.664 86.432-58.304Q456.672 176 512 176z m0 32q-99.424 0-169.696 70.304Q272 348.576 272 448q0 99.424 70.304 169.696Q412.576 688 512 688q99.424 0 169.696-70.304Q752 547.424 752 448q0-99.424-70.304-169.696Q611.424 208 512 208z" fill="#000000" p-id="11109"></path><path d="M704 448q0 4.704-0.224 9.408-0.224 4.736-0.704 9.408-0.448 4.704-1.152 9.344-0.704 4.672-1.6 9.28-0.928 4.64-2.08 9.216-1.152 4.576-2.496 9.088-1.376 4.48-2.976 8.96-1.6 4.416-3.392 8.768-1.792 4.352-3.84 8.64-1.984 4.224-4.192 8.384-2.24 4.16-4.672 8.224-2.4 4.032-5.024 7.936-2.624 3.936-5.44 7.712-2.816 3.808-5.76 7.424-3.008 3.648-6.176 7.136-3.2 3.52-6.496 6.848-3.36 3.328-6.848 6.496-3.488 3.168-7.136 6.144-3.616 2.976-7.424 5.792-3.776 2.816-7.68 5.44-3.936 2.624-8 5.024-4.032 2.432-8.192 4.64-4.16 2.24-8.416 4.256t-8.608 3.84q-4.352 1.792-8.8 3.36-4.416 1.6-8.96 2.976-4.48 1.344-9.056 2.496-4.576 1.152-9.184 2.08-4.64 0.896-9.28 1.6-4.672 0.704-9.376 1.152-4.672 0.48-9.408 0.704Q516.704 640 512 640t-9.408-0.224q-4.736-0.224-9.408-0.704-4.704-0.448-9.344-1.152-4.672-0.704-9.28-1.6-4.64-0.928-9.216-2.08-4.576-1.152-9.088-2.496-4.48-1.376-8.96-2.976-4.416-1.6-8.768-3.392-4.352-1.792-8.64-3.84-4.224-1.984-8.384-4.192-4.16-2.24-8.224-4.672-4.032-2.4-7.936-5.024-3.936-2.624-7.712-5.44-3.808-2.784-7.424-5.76-3.648-3.008-7.136-6.176-3.52-3.2-6.848-6.496-3.328-3.328-6.496-6.848-3.168-3.488-6.144-7.136-2.976-3.616-5.792-7.424-2.816-3.776-5.44-7.68-2.624-3.936-5.024-8-2.432-4.032-4.672-8.192-2.208-4.16-4.224-8.416t-3.84-8.608q-1.792-4.352-3.36-8.8-1.6-4.416-2.976-8.96-1.344-4.48-2.496-9.056-1.152-4.576-2.08-9.184-0.896-4.64-1.6-9.28-0.704-4.672-1.152-9.376-0.48-4.672-0.704-9.408Q320 452.704 320 448t0.224-9.408q0.224-4.736 0.704-9.408 0.448-4.704 1.152-9.344 0.704-4.672 1.6-9.28 0.928-4.64 2.08-9.216 1.152-4.576 2.496-9.088 1.376-4.48 2.976-8.96 1.6-4.416 3.392-8.768 1.792-4.352 3.84-8.64 1.984-4.224 4.192-8.384 2.24-4.16 4.672-8.224 2.4-4.032 5.024-7.936 2.624-3.936 5.44-7.712 2.816-3.776 5.76-7.424 3.008-3.648 6.176-7.136 3.2-3.52 6.496-6.848 3.36-3.328 6.848-6.496 3.488-3.168 7.136-6.144 3.616-3.008 7.424-5.792 3.776-2.816 7.68-5.44 3.936-2.624 8-5.024 4.032-2.432 8.192-4.672 4.16-2.208 8.416-4.224t8.608-3.84q4.352-1.792 8.8-3.36 4.416-1.6 8.96-2.976 4.48-1.344 9.056-2.496 4.576-1.152 9.184-2.08 4.64-0.896 9.28-1.6 4.672-0.704 9.376-1.152 4.672-0.48 9.408-0.704Q507.296 256 512 256t9.408 0.224q4.736 0.224 9.408 0.704 4.704 0.448 9.344 1.152 4.672 0.704 9.28 1.6 4.64 0.928 9.216 2.08 4.576 1.152 9.088 2.496 4.48 1.376 8.96 2.976 4.416 1.6 8.768 3.392 4.352 1.792 8.64 3.84 4.224 1.984 8.384 4.192 4.16 2.24 8.224 4.672 4.032 2.4 7.936 5.024 3.936 2.624 7.712 5.44 3.808 2.816 7.424 5.76 3.648 3.008 7.136 6.176 3.52 3.2 6.848 6.496 3.328 3.36 6.496 6.848 3.168 3.488 6.144 7.136t5.792 7.424q2.816 3.776 5.44 7.68 2.624 3.936 5.024 8 2.432 4.032 4.64 8.192 2.24 4.16 4.256 8.416t3.84 8.608q1.792 4.352 3.36 8.8 1.6 4.416 2.976 8.96 1.344 4.48 2.496 9.056 1.152 4.576 2.08 9.184 0.896 4.64 1.6 9.28 0.704 4.672 1.152 9.376 0.48 4.672 0.704 9.408 0.224 4.704 0.224 9.408z" fill="#409EFF" fill-opacity=".8" p-id="11110"></path><path d="M512 240q86.144 0 147.072 60.928T720 448q0 86.144-60.928 147.072T512 656q-86.144 0-147.072-60.928T304 448q0-86.144 60.928-147.072T512 240z m0 32q-72.896 0-124.48 51.52Q336 375.136 336 448t51.52 124.48Q439.136 624 512 624t124.48-51.52Q688 520.864 688 448t-51.52-124.48Q584.864 272 512 272z" fill="#000000" p-id="11111"></path></svg>