<svg xmlns="http://www.w3.org/2000/svg" xmlns:xlink="http://www.w3.org/1999/xlink" fill="none" version="1.1" width="32" height="32" viewBox="0 0 32 32"><defs><clipPath id="master_svg0_33_944"><rect x="32" y="0" width="32" height="32" rx="0"/></clipPath></defs><g transform="matrix(-1,0,0,1,64,0)" clip-path="url(#master_svg0_33_944)"><rect x="32" y="0" width="32" height="32" rx="0" fill="#FFFFFF" fill-opacity="1"/><g transform="matrix(-1,0,0,1,119,0)"><path d="M61.078,24.1689755859375Q61.034,24.176975585937498,60.942,24.176975585937498Q60.402,24.176975585937498,59.982,23.9449755859375L59.982,23.3569755859375Q60.202,23.4929755859375,60.466,23.5849755859375Q60.73,23.676975585937498,60.946,23.676975585937498Q61.122,23.676975585937498,61.224,23.5888455859375Q61.326,23.5006655859375,61.326,23.3884755859375Q61.326,23.2322255859375,61.206,23.1020355859375Q61.086,22.9717855859375,60.822,22.8916655859375Q60.518,22.7954755859375,60.348,22.6973555859375Q60.178,22.5991655859375,60.092,22.4509155859375Q60.006,22.3026655859375,60.006,22.0742855859375Q60.006,21.8579155859375,60.11,21.6796635859375Q60.214,21.5013505859375,60.416,21.3931635859375Q60.618,21.2849755859375,60.898,21.2849755859375Q60.934,21.272975585937502,61.01,21.272975585937502Q61.218,21.272975585937502,61.428,21.3149755859375Q61.638,21.3569755859375,61.782,21.4209755859375L61.782,21.9369755859375Q61.626,21.8689755859375,61.418,21.8249755859375Q61.21,21.7809755859375,61.05,21.7809755859375Q60.846000000000004,21.7809755859375,60.738,21.8532255859375Q60.63,21.925475585937498,60.63,22.0539155859375Q60.63,22.1702855859375,60.746,22.2626055859375Q60.862,22.3549155859375,61.106,22.4391655859375Q61.398,22.5234755859375,61.582,22.6298555859375Q61.766,22.7361655859375,61.87,22.9067855859375Q61.974000000000004,23.0773555859375,61.974000000000004,23.334165585937498Q61.974000000000004,23.5789755859375,61.862,23.7676655859375Q61.75,23.9562855859375,61.548,24.0626655859375Q61.346000000000004,24.1689755859375,61.078,24.1689755859375ZM62.994,21.9649755859375L62.994,24.1249755859375L62.354,24.1249755859375L62.354,21.9649755859375L62.994,21.9649755859375ZM62.354,21.0489755859375L62.994,21.0489755859375L62.994,21.6889755859375L62.354,21.6889755859375L62.354,21.0489755859375ZM64.086,21.9569755859375L64.086,22.2169755859375Q64.234,22.0889755859375,64.424,22.0169755859375Q64.614,21.9449755859375,64.80199999999999,21.9449755859375Q65.11,21.9449755859375,65.292,22.1249755859375Q65.474,22.3049755859375,65.474,22.5929755859375L65.474,24.1169755859375L64.834,24.1169755859375L64.834,22.7009755859375Q64.834,22.5849755859375,64.738,22.5109755859375Q64.642,22.4369755859375,64.51,22.4369755859375Q64.426,22.4369755859375,64.3,22.4929755859375Q64.174,22.5489755859375,64.086,22.6289755859375L64.086,24.1169755859375L63.446,24.1169755859375L63.446,21.9569755859375L64.086,21.9569755859375ZM66.826,25.0369755859375Q66.582,25.0369755859375,66.336,25.0049755859375Q66.09,24.9729755859375,65.894,24.9129755859375L65.894,24.3889755859375Q66.322,24.484975585937498,66.75,24.484975585937498Q67.022,24.484975585937498,67.162,24.3649755859375Q67.30199999999999,24.2449755859375,67.30199999999999,24.0329755859375Q67.082,24.176975585937498,66.778,24.176975585937498Q66.482,24.176975585937498,66.258,24.0329755859375Q66.034,23.8889755859375,65.914,23.6349755859375Q65.794,23.3809755859375,65.794,23.048975585937498Q65.794,22.7169755859375,65.916,22.4589755859375Q66.038,22.2009755859375,66.26,22.0569755859375Q66.482,21.9129755859375,66.778,21.9129755859375Q67.054,21.9129755859375,67.30199999999999,22.0969755859375L67.30199999999999,21.9649755859375L67.926,21.9649755859375L67.926,24.1169755859375Q67.926,25.0369755859375,66.826,25.0369755859375ZM66.406,23.048975585937498Q66.406,23.2329755859375,66.48,23.3849755859375Q66.554,23.5369755859375,66.676,23.6269755859375Q66.798,23.7169755859375,66.934,23.7169755859375Q67.034,23.7169755859375,67.158,23.6709755859375Q67.282,23.6249755859375,67.37,23.4769755859375L67.39,23.3969755859375L67.39,22.6569755859375Q67.306,22.4849755859375,67.174,22.4309755859375Q67.042,22.3769755859375,66.934,22.3769755859375Q66.798,22.3769755859375,66.676,22.4649755859375Q66.554,22.5529755859375,66.48,22.7069755859375Q66.406,22.8609755859375,66.406,23.048975585937498ZM69.054,24.1569755859375Q68.694,24.1569755859375,68.51,23.9549755859375Q68.326,23.7529755859375,68.326,23.3609755859375L68.326,21.0489755859375L68.966,21.0489755859375L68.966,23.2009755859375Q68.966,23.3609755859375,68.99,23.4449755859375Q69.014,23.5289755859375,69.07,23.5729755859375Q69.114,23.6089755859375,69.168,23.6189755859375Q69.222,23.6289755859375,69.358,23.6289755859375L69.358,24.1569755859375L69.054,24.1569755859375ZM71.562,24.0089755859375Q71.41,24.1009755859375,71.208,24.1449755859375Q71.006,24.1889755859375,70.818,24.1889755859375Q70.178,24.1889755859375,69.848,23.8849755859375Q69.518,23.5809755859375,69.518,23.0329755859375Q69.518,22.4889755859375,69.812,22.1989755859375Q70.106,21.9089755859375,70.614,21.9089755859375Q71.118,21.9089755859375,71.412,22.1989755859375Q71.706,22.4889755859375,71.706,23.0329755859375Q71.706,23.0929755859375,71.69800000000001,23.2049755859375L70.142,23.2049755859375Q70.23,23.7209755859375,70.818,23.7209755859375Q71.23,23.7209755859375,71.562,23.4769755859375L71.562,24.0089755859375ZM71.102,22.7569755859375Q71.05,22.5569755859375,70.922,22.4609755859375Q70.794,22.3649755859375,70.614,22.3649755859375Q70.446,22.3649755859375,70.328,22.4649755859375Q70.21000000000001,22.5649755859375,70.162,22.7569755859375L71.102,22.7569755859375ZM74.594,24.176975585937498Q74.138,24.176975585937498,73.784,24.0089755859375Q73.43,23.8409755859375,73.228,23.5209755859375Q73.026,23.2009755859375,73.026,22.7609755859375Q73.026,22.2969755859375,73.222,21.9629755859375Q73.418,21.6289755859375,73.77,21.4509755859375Q74.122,21.272975585937502,74.574,21.272975585937502Q74.798,21.272975585937502,75.026,21.3169755859375Q75.254,21.3609755859375,75.402,21.4289755859375L75.402,21.9249755859375Q74.998,21.7769755859375,74.65,21.7769755859375Q74.234,21.7769755859375,73.976,22.0209755859375Q73.718,22.2649755859375,73.718,22.7609755859375Q73.718,23.0249755859375,73.846,23.2269755859375Q73.974,23.4289755859375,74.182,23.5409755859375Q74.39,23.6529755859375,74.63,23.6689755859375L74.718,23.6729755859375Q74.902,23.6729755859375,75.082,23.6209755859375Q75.262,23.5689755859375,75.402,23.4809755859375L75.402,24.0329755859375Q75.23,24.112975585937498,75.036,24.1449755859375Q74.842,24.176975585937498,74.594,24.176975585937498ZM76.858,24.176975585937498Q76.518,24.176975585937498,76.26,24.0369755859375Q76.002,23.8969755859375,75.862,23.6389755859375Q75.72200000000001,23.3809755859375,75.72200000000001,23.0289755859375Q75.72200000000001,22.4889755859375,76.026,22.2009755859375Q76.33,21.9129755859375,76.858,21.9129755859375Q77.382,21.9129755859375,77.686,22.2009755859375Q77.99,22.4889755859375,77.99,23.0289755859375Q77.99,23.3809755859375,77.85,23.6389755859375Q77.71000000000001,23.8969755859375,77.45400000000001,24.0369755859375Q77.19800000000001,24.176975585937498,76.858,24.176975585937498ZM76.354,23.0289755859375Q76.354,23.336975585937502,76.494,23.5249755859375Q76.634,23.7129755859375,76.858,23.7129755859375Q77.082,23.7129755859375,77.22,23.5249755859375Q77.358,23.336975585937502,77.358,23.0289755859375Q77.358,22.7089755859375,77.224,22.5429755859375Q77.09,22.3769755859375,76.858,22.3769755859375Q76.626,22.3769755859375,76.49,22.5429755859375Q76.354,22.7089755859375,76.354,23.0289755859375ZM78.95,21.9649755859375L78.95,22.1969755859375Q79.054,22.0849755859375,79.2,22.022975585937502Q79.346,21.9609755859375,79.49,21.9609755859375Q79.59,21.9609755859375,79.678,21.9889755859375L79.678,22.4809755859375Q79.566,22.4529755859375,79.46600000000001,22.4529755859375Q79.314,22.4529755859375,79.178,22.5029755859375Q79.042,22.5529755859375,78.95,22.6609755859375L78.95,24.1249755859375L78.31,24.1249755859375L78.31,21.9649755859375L78.95,21.9649755859375ZM81.906,24.0089755859375Q81.754,24.1009755859375,81.55199999999999,24.1449755859375Q81.35,24.1889755859375,81.162,24.1889755859375Q80.52199999999999,24.1889755859375,80.19200000000001,23.8849755859375Q79.862,23.5809755859375,79.862,23.0329755859375Q79.862,22.4889755859375,80.156,22.1989755859375Q80.45,21.9089755859375,80.958,21.9089755859375Q81.462,21.9089755859375,81.756,22.1989755859375Q82.05,22.4889755859375,82.05,23.0329755859375Q82.05,23.0929755859375,82.042,23.2049755859375L80.486,23.2049755859375Q80.574,23.7209755859375,81.162,23.7209755859375Q81.574,23.7209755859375,81.906,23.4769755859375L81.906,24.0089755859375ZM81.446,22.7569755859375Q81.394,22.5569755859375,81.26599999999999,22.4609755859375Q81.138,22.3649755859375,80.958,22.3649755859375Q80.78999999999999,22.3649755859375,80.672,22.4649755859375Q80.554,22.5649755859375,80.506,22.7569755859375L81.446,22.7569755859375Z" fill="#000000" fill-opacity="1"/></g><g transform="matrix(-1,0,0,1,120,0)"><path d="M61.248,28.9446103515625Q61.204,28.952610351562498,61.112,28.952610351562498Q60.572,28.952610351562498,60.152,28.7206103515625L60.152,28.1326103515625Q60.372,28.2686103515625,60.636,28.3606103515625Q60.9,28.452610351562498,61.116,28.452610351562498Q61.292,28.452610351562498,61.394,28.3644803515625Q61.496,28.2763003515625,61.496,28.1641103515625Q61.496,28.0078603515625,61.376,27.8776703515625Q61.256,27.7474203515625,60.992,27.6673003515625Q60.688,27.5711103515625,60.518,27.4729903515625Q60.348,27.3748003515625,60.262,27.2265503515625Q60.176,27.0783003515625,60.176,26.8499203515625Q60.176,26.6335503515625,60.28,26.4552983515625Q60.384,26.2769853515625,60.586,26.1687983515625Q60.788,26.0606103515625,61.068,26.0606103515625Q61.104,26.048610351562502,61.18,26.048610351562502Q61.388,26.048610351562502,61.598,26.0906103515625Q61.808,26.1326103515625,61.952,26.1966103515625L61.952,26.7126103515625Q61.796,26.6446103515625,61.588,26.6006103515625Q61.38,26.5566103515625,61.22,26.5566103515625Q61.016,26.5566103515625,60.908,26.6288603515625Q60.8,26.701110351562498,60.8,26.8295503515625Q60.8,26.9459203515625,60.916,27.0382403515625Q61.032,27.1305503515625,61.276,27.2148003515625Q61.568,27.2991103515625,61.752,27.4054903515625Q61.936,27.5118003515625,62.04,27.6824203515625Q62.144,27.8529903515625,62.144,28.109800351562498Q62.144,28.3546103515625,62.032,28.5433003515625Q61.92,28.7319203515625,61.718,28.8383003515625Q61.516,28.9446103515625,61.248,28.9446103515625ZM63.164,26.7406103515625L63.164,28.9006103515625L62.524,28.9006103515625L62.524,26.7406103515625L63.164,26.7406103515625ZM62.524,25.8246103515625L63.164,25.8246103515625L63.164,26.4646103515625L62.524,26.4646103515625L62.524,25.8246103515625ZM64.256,26.7326103515625L64.256,26.9926103515625Q64.404,26.8646103515625,64.594,26.7926103515625Q64.784,26.7206103515625,64.972,26.7206103515625Q65.28,26.7206103515625,65.462,26.9006103515625Q65.644,27.0806103515625,65.644,27.3686103515625L65.644,28.8926103515625L65.004,28.8926103515625L65.004,27.4766103515625Q65.004,27.3606103515625,64.908,27.2866103515625Q64.812,27.2126103515625,64.68,27.2126103515625Q64.596,27.2126103515625,64.47,27.2686103515625Q64.344,27.3246103515625,64.256,27.4046103515625L64.256,28.8926103515625L63.616,28.8926103515625L63.616,26.7326103515625L64.256,26.7326103515625ZM66.996,29.8126103515625Q66.752,29.8126103515625,66.506,29.7806103515625Q66.26,29.7486103515625,66.064,29.6886103515625L66.064,29.1646103515625Q66.492,29.260610351562498,66.92,29.260610351562498Q67.19200000000001,29.260610351562498,67.332,29.1406103515625Q67.472,29.0206103515625,67.472,28.8086103515625Q67.252,28.952610351562498,66.94800000000001,28.952610351562498Q66.652,28.952610351562498,66.428,28.8086103515625Q66.204,28.6646103515625,66.084,28.4106103515625Q65.964,28.1566103515625,65.964,27.824610351562498Q65.964,27.4926103515625,66.086,27.2346103515625Q66.208,26.9766103515625,66.43,26.8326103515625Q66.652,26.6886103515625,66.94800000000001,26.6886103515625Q67.224,26.6886103515625,67.472,26.8726103515625L67.472,26.7406103515625L68.096,26.7406103515625L68.096,28.8926103515625Q68.096,29.8126103515625,66.996,29.8126103515625ZM66.576,27.824610351562498Q66.576,28.0086103515625,66.65,28.1606103515625Q66.724,28.3126103515625,66.846,28.4026103515625Q66.968,28.4926103515625,67.104,28.4926103515625Q67.204,28.4926103515625,67.328,28.4466103515625Q67.452,28.4006103515625,67.54,28.2526103515625L67.56,28.1726103515625L67.56,27.4326103515625Q67.476,27.2606103515625,67.344,27.2066103515625Q67.212,27.1526103515625,67.104,27.1526103515625Q66.968,27.1526103515625,66.846,27.2406103515625Q66.724,27.3286103515625,66.65,27.4826103515625Q66.576,27.6366103515625,66.576,27.824610351562498ZM69.224,28.9326103515625Q68.864,28.9326103515625,68.68,28.7306103515625Q68.496,28.5286103515625,68.496,28.1366103515625L68.496,25.8246103515625L69.136,25.8246103515625L69.136,27.9766103515625Q69.136,28.1366103515625,69.16,28.2206103515625Q69.184,28.3046103515625,69.24,28.3486103515625Q69.284,28.3846103515625,69.338,28.3946103515625Q69.392,28.4046103515625,69.528,28.4046103515625L69.528,28.9326103515625L69.224,28.9326103515625ZM71.732,28.7846103515625Q71.58,28.8766103515625,71.378,28.9206103515625Q71.176,28.9646103515625,70.988,28.9646103515625Q70.348,28.9646103515625,70.018,28.6606103515625Q69.688,28.3566103515625,69.688,27.8086103515625Q69.688,27.2646103515625,69.982,26.9746103515625Q70.276,26.6846103515625,70.784,26.6846103515625Q71.288,26.6846103515625,71.582,26.9746103515625Q71.876,27.2646103515625,71.876,27.8086103515625Q71.876,27.8686103515625,71.868,27.9806103515625L70.312,27.9806103515625Q70.4,28.4966103515625,70.988,28.4966103515625Q71.4,28.4966103515625,71.732,28.2526103515625L71.732,28.7846103515625ZM71.272,27.5326103515625Q71.22,27.3326103515625,71.092,27.2366103515625Q70.964,27.1406103515625,70.784,27.1406103515625Q70.616,27.1406103515625,70.498,27.2406103515625Q70.38,27.3406103515625,70.332,27.5326103515625L71.272,27.5326103515625ZM73.94800000000001,26.5966103515625L73.912,26.5966103515625L73.912,28.9006103515625L73.276,28.9006103515625L73.276,26.1006103515625L74.424,26.1006103515625L74.804,28.1046103515625L74.812,28.1446103515625L74.82,28.1046103515625L75.2,26.1006103515625L76.348,26.1006103515625L76.348,28.9006103515625L75.712,28.9006103515625L75.712,26.5966103515625L75.68,26.5966103515625L75.2,28.9006103515625L74.424,28.9006103515625L73.94800000000001,26.5966103515625ZM77.844,28.952610351562498Q77.504,28.952610351562498,77.246,28.8126103515625Q76.988,28.6726103515625,76.848,28.4146103515625Q76.708,28.1566103515625,76.708,27.8046103515625Q76.708,27.2646103515625,77.012,26.9766103515625Q77.316,26.6886103515625,77.844,26.6886103515625Q78.368,26.6886103515625,78.672,26.9766103515625Q78.976,27.2646103515625,78.976,27.8046103515625Q78.976,28.1566103515625,78.836,28.4146103515625Q78.696,28.6726103515625,78.44,28.8126103515625Q78.184,28.952610351562498,77.844,28.952610351562498ZM77.34,27.8046103515625Q77.34,28.112610351562502,77.48,28.3006103515625Q77.62,28.4886103515625,77.844,28.4886103515625Q78.068,28.4886103515625,78.206,28.3006103515625Q78.344,28.112610351562502,78.344,27.8046103515625Q78.344,27.4846103515625,78.21000000000001,27.3186103515625Q78.076,27.1526103515625,77.844,27.1526103515625Q77.612,27.1526103515625,77.476,27.3186103515625Q77.34,27.4846103515625,77.34,27.8046103515625ZM80.2,28.952610351562498Q79.904,28.952610351562498,79.68,28.8106103515625Q79.456,28.6686103515625,79.336,28.4126103515625Q79.21600000000001,28.1566103515625,79.21600000000001,27.8286103515625Q79.21600000000001,27.4966103515625,79.338,27.2386103515625Q79.46000000000001,26.9806103515625,79.682,26.8366103515625Q79.904,26.6926103515625,80.2,26.6926103515625Q80.336,26.6926103515625,80.474,26.7406103515625Q80.612,26.7886103515625,80.732,26.8806103515625L80.732,25.8246103515625L81.372,25.8246103515625L81.372,28.4006103515625Q81.372,28.7206103515625,81.452,28.9006103515625L80.852,28.9006103515625Q80.824,28.8446103515625,80.804,28.7566103515625Q80.55199999999999,28.952610351562498,80.2,28.952610351562498ZM79.828,27.8286103515625Q79.828,28.0126103515625,79.902,28.1646103515625Q79.976,28.3166103515625,80.098,28.4066103515625Q80.22,28.4966103515625,80.356,28.4966103515625Q80.464,28.4966103515625,80.594,28.4446103515625Q80.724,28.3926103515625,80.80799999999999,28.2286103515625L80.80799999999999,27.4246103515625Q80.724,27.2566103515625,80.594,27.2046103515625Q80.464,27.1526103515625,80.356,27.1526103515625Q80.22,27.1526103515625,80.098,27.2406103515625Q79.976,27.3286103515625,79.902,27.4846103515625Q79.828,27.6406103515625,79.828,27.8286103515625ZM83.736,28.7846103515625Q83.584,28.8766103515625,83.382,28.9206103515625Q83.18,28.9646103515625,82.992,28.9646103515625Q82.352,28.9646103515625,82.02199999999999,28.6606103515625Q81.69200000000001,28.3566103515625,81.69200000000001,27.8086103515625Q81.69200000000001,27.2646103515625,81.986,26.9746103515625Q82.28,26.6846103515625,82.788,26.6846103515625Q83.292,26.6846103515625,83.586,26.9746103515625Q83.88,27.2646103515625,83.88,27.8086103515625Q83.88,27.8686103515625,83.872,27.9806103515625L82.316,27.9806103515625Q82.404,28.4966103515625,82.992,28.4966103515625Q83.404,28.4966103515625,83.736,28.2526103515625L83.736,28.7846103515625ZM83.276,27.5326103515625Q83.224,27.3326103515625,83.096,27.2366103515625Q82.968,27.1406103515625,82.788,27.1406103515625Q82.62,27.1406103515625,82.502,27.2406103515625Q82.384,27.3406103515625,82.336,27.5326103515625L83.276,27.5326103515625Z" fill="#000000" fill-opacity="1"/></g><g transform="matrix(-1,0,0,1,96.0955810546875,0)"><path d="M48.86629852734375,6.62986049125Q48.28879952734375,6.87412303125,47.76788652734375,7.22604503125L48.32769452734375,8.05467203125Q48.76797452734375,7.75722203125,49.25585052734375,7.55086503125Q50.27079052734375,7.12158203125,51.38302052734375,7.12158203125Q53.64680052734375,7.12158203125,55.24754052734375,8.72232203125Q56.848280527343746,10.32306203125,56.84827052734375,12.58685203125Q56.84827052734375,14.85064203125,55.24754052734375,16.45138203125Q53.64681052734375,18.052082031250002,51.38302052734375,18.052082031250002Q50.27079052734375,18.052082031250002,49.25585052734375,17.62288203125Q48.76797652734375,17.41648203125,48.32769452734375,17.119082031250002L47.76788652734375,17.94768203125Q48.28879752734375,18.29958203125,48.86629852734375,18.54388203125Q50.06800052734375,19.052082031250002,51.38302052734375,19.052082031250002Q54.06102052734375,19.052082031250002,55.95465052734375,17.15848203125Q57.84827052734375,15.26486203125,57.84827052734375,12.58685203125Q57.84827052734375,9.90885203125,55.95465052734375,8.01521203125Q54.06102052734375,6.12158203125,51.38302052734375,6.12158203125Q50.06800052734375,6.12158203125,48.86629852734375,6.62986049125Z" fill-rule="evenodd" fill="#000000" fill-opacity="1"/></g><g transform="matrix(-1,0,0,1,114.5052490234375,0)"><ellipse cx="63.21787977218628" cy="12.58685302734375" rx="5.965255260467529" ry="5.96527099609375" fill-opacity="0" stroke-opacity="1" stroke="#409EFF" fill="none" stroke-width="1"/></g><g transform="matrix(-1,0,0,1,102.6124267578125,0)"><path d="M53.24963337890625,6.12158203125L51.30621337890625,6.12158203125L51.30621337890625,7.12158203125L53.24963337890625,7.12158203125Q55.51341337890625,7.12158203125,57.11414337890625,8.72232203125Q58.71487337890625,10.32306203125,58.71487337890625,12.58685203125Q58.71487337890625,14.85064203125,57.11413337890625,16.45138203125Q55.51340337890625,18.052082031250002,53.24961337890625,18.052082031250002Q53.19952337890625,18.052082031250002,52.94107337890625,18.05468203125Q51.62725037890625,18.067582031249998,51.50071137890625,18.05468203125L51.39967887890625,19.04958203125Q51.58150137890625,19.06798203125,52.95087337890625,19.05458203125Q53.20446337890625,19.052082031250002,53.24961337890625,19.052082031250002Q55.92761337890625,19.052082031250002,57.82124337890625,17.15848203125Q59.71487337890625,15.26485203125,59.71487337890625,12.58685203125Q59.71487337890625,9.90885203125,57.82125337890625,8.01522203125Q55.92763337890625,6.12158203125,53.24963337890625,6.12158203125Z" fill-rule="evenodd" fill="#409EFF" fill-opacity="1"/></g><g transform="matrix(-1,0,0,1,89.2982177734375,0)"><rect x="44.64910888671875" y="18.0521240234375" width="7.42608642578125" height="1" rx="0" fill="#000000" fill-opacity="1"/></g><g transform="matrix(-1,0,0,1,117.4268798828125,0)"><rect x="58.71343994140625" y="18.0521240234375" width="7.42608642578125" height="1" rx="0" fill="#409EFF" fill-opacity="1"/></g></g></svg>