<svg xmlns="http://www.w3.org/2000/svg" xmlns:xlink="http://www.w3.org/1999/xlink" fill="none" version="1.1" width="32" height="32" viewBox="0 0 32 32"><defs><clipPath id="master_svg0_33_868"><rect x="32" y="0" width="32" height="32" rx="0"/></clipPath></defs><g transform="matrix(-1,0,0,1,64,0)" clip-path="url(#master_svg0_33_868)"><rect x="32" y="0" width="32" height="32" rx="0" fill="#FFFFFF" fill-opacity="1"/><g transform="matrix(-1,0,0,1,117,0)"><path d="M59.988,21.6L61.844,21.6L61.844,22.14L60.648,22.14L60.648,22.748L61.68,22.748L61.68,23.252L60.648,23.252L60.648,24.4L59.988,24.4L59.988,21.6ZM62.804,22.24L62.804,22.472Q62.908,22.36,63.054,22.298000000000002Q63.2,22.236,63.344,22.236Q63.444,22.236,63.532,22.264L63.532,22.756Q63.42,22.728,63.32,22.728Q63.168,22.728,63.032,22.778Q62.896,22.828,62.804,22.936L62.804,24.4L62.164,24.4L62.164,22.24L62.804,22.24ZM65.76,24.284Q65.608,24.376,65.406,24.42Q65.204,24.464,65.016,24.464Q64.376,24.464,64.046,24.16Q63.716,23.856,63.716,23.308Q63.716,22.764,64.01,22.474Q64.304,22.184,64.812,22.184Q65.316,22.184,65.61,22.474Q65.904,22.764,65.904,23.308Q65.904,23.368,65.896,23.48L64.34,23.48Q64.428,23.996,65.016,23.996Q65.428,23.996,65.76,23.752L65.76,24.284ZM65.3,23.032Q65.248,22.832,65.12,22.736Q64.992,22.64,64.812,22.64Q64.644,22.64,64.526,22.74Q64.408,22.84,64.36,23.032L65.3,23.032ZM67.816,25.312Q67.78,25.184,67.758,24.942Q67.736,24.7,67.736,24.488L67.736,24.244Q67.488,24.451999999999998,67.128,24.451999999999998Q66.832,24.451999999999998,66.608,24.308Q66.384,24.164,66.264,23.91Q66.144,23.656,66.144,23.323999999999998Q66.144,22.992,66.266,22.734Q66.388,22.476,66.61,22.332Q66.832,22.188,67.128,22.188Q67.288,22.188,67.446,22.254Q67.604,22.32,67.736,22.44L67.736,22.24L68.376,22.24L68.376,24.488Q68.376,24.688,68.392,24.932Q68.408,25.176000000000002,68.456,25.312L67.816,25.312ZM66.756,23.323999999999998Q66.756,23.508,66.83,23.66Q66.904,23.812,67.026,23.902Q67.148,23.992,67.284,23.992Q67.392,23.992,67.522,23.94Q67.652,23.887999999999998,67.736,23.724L67.736,22.92Q67.652,22.756,67.522,22.704Q67.392,22.652,67.284,22.652Q67.148,22.652,67.026,22.74Q66.904,22.828,66.83,22.982Q66.756,23.136,66.756,23.323999999999998ZM69.56,23.744L69.56,24.4L68.904,24.4L68.904,23.744L69.56,23.744ZM71.48,24.451999999999998Q71.03999999999999,24.451999999999998,70.72,24.286Q70.4,24.12,70.226,23.8Q70.05199999999999,23.48,70.05199999999999,23.032Q70.05199999999999,22.576,70.226,22.24Q70.4,21.904,70.722,21.726Q71.044,21.548000000000002,71.48,21.548000000000002Q71.916,21.548000000000002,72.236,21.726Q72.556,21.904,72.73,22.24Q72.904,22.576,72.904,23.032Q72.904,23.484,72.73,23.802Q72.556,24.12,72.24,24.286Q71.924,24.451999999999998,71.48,24.451999999999998ZM70.752,23.032Q70.752,23.464,70.944,23.714Q71.136,23.964,71.48,23.964Q71.82,23.964,72.012,23.714Q72.20400000000001,23.464,72.20400000000001,23.032Q72.20400000000001,22.748,72.12,22.524Q72.036,22.3,71.87,22.172Q71.70400000000001,22.044,71.48,22.044Q71.256,22.044,71.092,22.172Q70.928,22.3,70.84,22.524Q70.752,22.748,70.752,23.032ZM73.472,22.728L73.092,22.728L73.092,22.24L73.472,22.24L73.472,21.958437Q73.472,21.704625,73.542,21.567875Q73.612,21.431062,73.782,21.375562Q73.952,21.32,74.228,21.32Q74.312,21.32,74.408,21.32Q74.504,21.32,74.58,21.332L74.58,21.816Q74.548,21.804,74.472,21.804Q74.396,21.804,74.336,21.804Q74.244,21.804,74.196,21.825812Q74.148,21.847625,74.13,21.907063Q74.112,21.9665,74.112,22.08144L74.112,22.24L74.64,22.24L74.64,22.728L74.112,22.728L74.112,24.4L73.472,24.4L73.472,22.728ZM75.912,24.444Q75.868,24.451999999999998,75.776,24.451999999999998Q75.236,24.451999999999998,74.816,24.22L74.816,23.632Q75.036,23.768,75.3,23.86Q75.564,23.951999999999998,75.78,23.951999999999998Q75.956,23.951999999999998,76.05799999999999,23.86387Q76.16,23.77569,76.16,23.6635Q76.16,23.50725,76.03999999999999,23.37706Q75.92,23.24681,75.656,23.16669Q75.352,23.0705,75.182,22.97238Q75.012,22.87419,74.926,22.72594Q74.84,22.57769,74.84,22.34931Q74.84,22.13294,74.944,21.954688Q75.048,21.776375,75.25,21.668188Q75.452,21.56,75.732,21.56Q75.768,21.548000000000002,75.844,21.548000000000002Q76.05199999999999,21.548000000000002,76.262,21.59Q76.47200000000001,21.632,76.616,21.696L76.616,22.212Q76.46000000000001,22.144,76.252,22.1Q76.044,22.056,75.884,22.056Q75.68,22.056,75.572,22.12825Q75.464,22.200499999999998,75.464,22.32894Q75.464,22.44531,75.58,22.53763Q75.696,22.62994,75.94,22.71419Q76.232,22.7985,76.416,22.90488Q76.6,23.01119,76.70400000000001,23.18181Q76.80799999999999,23.35238,76.80799999999999,23.609189999999998Q76.80799999999999,23.854,76.696,24.04269Q76.584,24.23131,76.382,24.33769Q76.18,24.444,75.912,24.444ZM77.92,23.744L77.92,24.4L77.264,24.4L77.264,23.744L77.92,23.744ZM59.816,28.444Q59.772,28.451999999999998,59.68,28.451999999999998Q59.139999,28.451999999999998,58.719999,28.22L58.719999,27.631999999999998Q58.939999,27.768,59.203999,27.86Q59.467999,27.951999999999998,59.684,27.951999999999998Q59.86,27.951999999999998,59.962,27.86387Q60.064,27.77569,60.064,27.6635Q60.064,27.50725,59.944,27.37706Q59.824,27.24681,59.56,27.16669Q59.255999,27.0705,59.085999,26.972369999999998Q58.915999,26.87419,58.829999,26.72594Q58.743999,26.57769,58.743999,26.34931Q58.743999,26.132939999999998,58.847999,25.95469Q58.951999,25.77637,59.153999,25.66819Q59.355999,25.56,59.636,25.56Q59.672,25.548000000000002,59.748,25.548000000000002Q59.956,25.548000000000002,60.166,25.59Q60.376,25.631999999999998,60.52,25.695999999999998L60.52,26.212Q60.364,26.144,60.156,26.1Q59.948,26.056,59.788,26.056Q59.584,26.056,59.475999,26.12825Q59.367999,26.200499999999998,59.367999,26.32894Q59.367999,26.44531,59.483999,26.53763Q59.6,26.62994,59.844,26.714190000000002Q60.136,26.7985,60.32,26.90487Q60.504,27.01119,60.608,27.18181Q60.712,27.35238,60.712,27.609189999999998Q60.712,27.854,60.6,28.04269Q60.488,28.23131,60.286,28.337690000000002Q60.084,28.444,59.816,28.444ZM61.732,26.240000000000002L61.732,28.4L61.092,28.4L61.092,26.240000000000002L61.732,26.240000000000002ZM61.092,25.323999999999998L61.732,25.323999999999998L61.732,25.964L61.092,25.964L61.092,25.323999999999998ZM63.136,29.311999999999998Q62.892,29.311999999999998,62.646,29.28Q62.4,29.247999999999998,62.204,29.188000000000002L62.204,28.664Q62.632,28.759999999999998,63.06,28.759999999999998Q63.332,28.759999999999998,63.472,28.64Q63.612,28.52,63.612,28.308Q63.392,28.451999999999998,63.088,28.451999999999998Q62.792,28.451999999999998,62.568,28.308Q62.344,28.164,62.224000000000004,27.91Q62.104,27.656,62.104,27.323999999999998Q62.104,26.992,62.226,26.734Q62.348,26.476,62.57,26.332Q62.792,26.188,63.088,26.188Q63.364,26.188,63.612,26.372L63.612,26.240000000000002L64.236,26.240000000000002L64.236,28.392Q64.236,29.311999999999998,63.136,29.311999999999998ZM62.716,27.323999999999998Q62.716,27.508,62.79,27.66Q62.864,27.812,62.986,27.902Q63.108,27.992,63.244,27.992Q63.344,27.992,63.468,27.945999999999998Q63.592,27.9,63.68,27.752L63.7,27.672L63.7,26.932000000000002Q63.616,26.759999999999998,63.484,26.706Q63.352000000000004,26.652,63.244,26.652Q63.108,26.652,62.986,26.740000000000002Q62.864,26.828,62.79,26.982Q62.716,27.136,62.716,27.323999999999998ZM65.42,27.744L65.42,28.4L64.764,28.4L64.764,27.744L65.42,27.744ZM67.48,28.451999999999998Q67.024,28.451999999999998,66.67,28.284Q66.316,28.116,66.114,27.796Q65.912,27.476,65.912,27.036Q65.912,26.572,66.108,26.238Q66.304,25.904,66.656,25.726Q67.008,25.548000000000002,67.46000000000001,25.548000000000002Q67.684,25.548000000000002,67.912,25.592Q68.14,25.636,68.288,25.704L68.288,26.2Q67.884,26.052,67.536,26.052Q67.12,26.052,66.862,26.296Q66.604,26.54,66.604,27.036Q66.604,27.3,66.732,27.502Q66.86,27.704,67.068,27.816Q67.276,27.928,67.516,27.944L67.604,27.948Q67.788,27.948,67.968,27.896Q68.148,27.844,68.288,27.756L68.288,28.308Q68.116,28.387999999999998,67.922,28.42Q67.728,28.451999999999998,67.48,28.451999999999998ZM69.744,28.451999999999998Q69.404,28.451999999999998,69.146,28.312Q68.888,28.172,68.748,27.914Q68.608,27.656,68.608,27.304000000000002Q68.608,26.764,68.912,26.476Q69.216,26.188,69.744,26.188Q70.268,26.188,70.572,26.476Q70.876,26.764,70.876,27.304000000000002Q70.876,27.656,70.736,27.914Q70.596,28.172,70.34,28.312Q70.084,28.451999999999998,69.744,28.451999999999998ZM69.24,27.304000000000002Q69.24,27.612000000000002,69.38,27.8Q69.52,27.988,69.744,27.988Q69.968,27.988,70.106,27.8Q70.244,27.612000000000002,70.244,27.304000000000002Q70.244,26.984,70.11,26.817999999999998Q69.976,26.652,69.744,26.652Q69.512,26.652,69.376,26.817999999999998Q69.24,26.984,69.24,27.304000000000002ZM71.836,26.236L71.836,26.464Q71.98,26.348,72.156,26.284Q72.332,26.22,72.512,26.22Q72.69200000000001,26.22,72.824,26.286Q72.956,26.352,73.032,26.468Q73.18,26.348,73.356,26.284Q73.532,26.22,73.712,26.22Q74.016,26.22,74.18,26.4Q74.344,26.58,74.344,26.868000000000002L74.344,28.4L73.70400000000001,28.4L73.70400000000001,26.976Q73.70400000000001,26.86,73.626,26.786Q73.548,26.712,73.42,26.712Q73.364,26.712,73.288,26.736Q73.212,26.759999999999998,73.14,26.8Q73.14,26.823999999999998,73.14,26.868000000000002L73.14,28.4L72.504,28.4L72.504,26.976Q72.504,26.86,72.426,26.786Q72.348,26.712,72.22,26.712Q72.144,26.712,72.032,26.756Q71.92,26.8,71.836,26.872L71.836,28.4L71.196,28.4L71.196,26.236L71.836,26.236ZM74.664,29.311999999999998Q74.712,29.176000000000002,74.72800000000001,28.932000000000002Q74.744,28.688,74.744,28.488L74.744,26.240000000000002L75.384,26.240000000000002L75.384,26.44Q75.51599999999999,26.32,75.674,26.253999999999998Q75.832,26.188,75.992,26.188Q76.288,26.188,76.51,26.332Q76.732,26.476,76.854,26.734Q76.976,26.992,76.976,27.323999999999998Q76.976,27.656,76.856,27.91Q76.736,28.164,76.512,28.308Q76.288,28.451999999999998,75.992,28.451999999999998Q75.632,28.451999999999998,75.384,28.244L75.384,28.488Q75.384,28.7,75.362,28.942Q75.34,29.183999999999997,75.304,29.311999999999998L74.664,29.311999999999998ZM75.384,27.724Q75.468,27.887999999999998,75.598,27.94Q75.72800000000001,27.992,75.836,27.992Q75.97200000000001,27.992,76.094,27.902Q76.21600000000001,27.812,76.28999999999999,27.66Q76.364,27.508,76.364,27.323999999999998Q76.364,27.136,76.28999999999999,26.982Q76.21600000000001,26.828,76.094,26.740000000000002Q75.97200000000001,26.652,75.836,26.652Q75.72800000000001,26.652,75.598,26.704Q75.468,26.756,75.384,26.92L75.384,27.724ZM78.06,27.744L78.06,28.4L77.404,28.4L77.404,27.744L78.06,27.744Z" fill="#000000" fill-opacity="1"/></g><g transform="matrix(-1,0,0,1,118,0)"><rect x="59" y="2" width="1" height="18" rx="0" fill="#000000" fill-opacity="1"/></g><g transform="matrix(0,1,1,0,18,-18)"><rect x="37" y="19" width="1" height="9" rx="0" fill="#000000" fill-opacity="1"/></g><g transform="matrix(-1,0,0,1,106.4697265625,0)"><path d="M65.10626328125,10.956176328125L69.07206328125,10.956176328125L69.07206328125,9.956176328125L65.10626328125,9.956176328125Q64.19166328125,9.956176328125,63.28596328125,9.476346328125Q62.72920328125,9.181426328125,61.76663328125,8.421996328125001Q61.27694328125,8.035646328125,61.03779328125,7.868806328125Q59.82711328125,7.024160328125,53.30893558125,6.047753328125L53.16079098125,7.036719328125Q59.44717328125,7.978406328125,60.465623281250004,8.688936328125Q60.68064328125,8.838946328125001,61.14723328125,9.207066328125Q62.18098328125,10.022646328125,62.81780328125,10.360006328125Q63.94316328125,10.956176328125,65.10626328125,10.956176328125Z" fill-rule="evenodd" fill="#409EFF" fill-opacity="1"/></g><g transform="matrix(-1,0,0,1,107.837158203125,0)"><path d="M65.7899791015625,13.41314654296875L69.7557791015625,13.41314654296875L69.7557791015625,12.41314654296875L65.7899791015625,12.41314654296875Q64.8753791015625,12.41314654296875,63.9696791015625,11.93331654296875Q63.4129191015625,11.63839654296875,62.4503491015625,10.878966542968751Q61.9606591015625,10.49261654296875,61.7215091015625,10.32577654296875Q60.5108291015625,9.48113054296875,53.9926514015625,8.50472354296875L53.8445068015625,9.49368954296875Q60.1308891015625,10.43537654296875,61.149339101562504,11.14590654296875Q61.3643591015625,11.295916542968751,61.8309491015625,11.66403654296875Q62.8646991015625,12.47961654296875,63.5015191015625,12.81697654296875Q64.6268791015625,13.41314654296875,65.7899791015625,13.41314654296875Z" fill-rule="evenodd" fill="#409EFF" fill-opacity="1"/></g><g transform="matrix(-1,0,0,1,108.9776611328125,0)"><path d="M66.36023056640624,15.8701167578125L70.32603056640625,15.8701167578125L70.32603056640625,14.8701167578125L66.36023056640624,14.8701167578125Q65.44563056640625,14.8701167578125,64.53993056640626,14.3902867578125Q63.98317056640625,14.0953667578125,63.02060056640625,13.335936757812501Q62.53091056640625,12.9495867578125,62.29176056640625,12.7827467578125Q61.08108056640625,11.9381007578125,54.56290286640625,10.9616937578125L54.41475826640625,11.9506597578125Q60.70114056640625,12.8923467578125,61.719590566406254,13.6028767578125Q61.93461056640625,13.752886757812501,62.40120056640625,14.1210067578125Q63.43495056640625,14.9365867578125,64.07177056640626,15.2739467578125Q65.19713056640624,15.8701167578125,66.36023056640624,15.8701167578125Z" fill-rule="evenodd" fill="#409EFF" fill-opacity="1"/></g><g transform="matrix(-1,0,0,1,110,0)"><ellipse cx="64" cy="11" rx="8.5" ry="8.5" fill-opacity="0" stroke-opacity="1" stroke="#000000" fill="none" stroke-width="1"/></g></g></svg>