<svg xmlns="http://www.w3.org/2000/svg" xmlns:xlink="http://www.w3.org/1999/xlink" fill="none" version="1.1" width="32" height="32" viewBox="0 0 32 32"><defs><clipPath id="master_svg0_33_841"><rect x="32" y="0" width="32" height="32" rx="0"/></clipPath></defs><g transform="matrix(-1,0,0,1,64,0)" clip-path="url(#master_svg0_33_841)"><rect x="32" y="0" width="32" height="32" rx="0" fill="#FFFFFF" fill-opacity="1"/><g transform="matrix(-1,0,0,1,124,0)"><path d="M64.818,5.769135742187499Q64.634,5.8571357421875,64.422,5.8991357421875Q64.21,5.9411357421875,63.93,5.9411357421875Q63.47,5.9411357421875,63.118,5.769135742187499Q62.766,5.5971357421875005,62.564,5.2791357421875Q62.362,4.9611357421874995,62.362,4.5331357421875005Q62.362,4.1011357421875,62.56,3.7631357421875Q62.758,3.4251357421875,63.108,3.2311357421875Q63.458,3.0371357421875,63.91,3.0371357421875Q64.13,3.0371357421875,64.356,3.0811357421875Q64.582,3.1251357421875,64.738,3.1891357421875L64.738,3.6691357421874997Q64.334,3.5331357421875,63.986,3.5331357421875Q63.554,3.5331357421875,63.286,3.7811357421875Q63.018,4.0291357421875,63.018,4.5331357421875005Q63.018,4.8051357421875,63.148,5.0151357421875Q63.278,5.225135742187501,63.496,5.3211357421875Q63.714,5.4171357421875,63.966,5.4171357421875Q64.134,5.4171357421875,64.262,5.4051357421875L64.262,4.7891357421875L63.946,4.7891357421875L63.946,4.2891357421875L64.818,4.2891357421875L64.818,5.769135742187499ZM65.81,3.7131357421875L65.786,3.7131357421875L65.786,5.8891357421875L65.138,5.8891357421875L65.138,3.0891357421875L66.19,3.0891357421875L66.858,5.301135742187499L66.91,5.301135742187499L66.91,3.0891357421875L67.55799999999999,3.0891357421875L67.55799999999999,5.8891357421875L66.482,5.8891357421875L65.81,3.7131357421875Z" fill="#000000" fill-opacity="1"/></g><g transform="matrix(-1,0,0,1,119.794921875,0)"></g><g transform="matrix(-1,0,0,1,124,0)"><rect x="62.5" y="7.41778564453125" width="27" height="21" rx="2.5" fill-opacity="0" stroke-opacity="1" stroke="#000000" fill="none" stroke-width="1"/></g><g transform="matrix(-1,0,0,1,118,0)"><path d="M60.75,25.41778564453125L81,25.41778564453125L81,24.41778564453125L60.75,24.41778564453125Q60.23223,24.41778564453125,59.866117,24.05168564453125Q59.5,23.68558564453125,59.5,23.16778564453125Q59.5,22.64998564453125,59.866117,22.28388564453125Q60.23223,21.91778564453125,60.75,21.91778564453125L67.72619,21.91778564453125Q68.65817,21.91778564453125,69.3172,21.25878564453125Q69.9762,20.59976564453125,69.9762,19.66778564453125Q69.9762,18.73580564453125,69.3172,18.076795644531252Q68.65817,17.41778564453125,67.72619,17.41778564453125L60.75,17.41778564453125Q60.23223,17.41778564453125,59.866117,17.05166564453125Q59.5,16.68555564453125,59.5,16.16778564453125Q59.5,15.650015644531251,59.866117,15.283905644531249Q60.23223,14.91778564453125,60.75,14.91778564453125L67.72619,14.91778564453125Q68.65817,14.91778564453125,69.3172,14.25877564453125Q69.9762,13.59976564453125,69.9762,12.66778564453125Q69.9762,11.73580364453125,69.3172,11.07679564453125Q68.65817,10.41778564453125,67.72619,10.41778564453125L59,10.41778564453125L59,11.41778564453125L67.72619,11.41778564453125Q68.24396,11.41778564453125,68.61007000000001,11.78390264453125Q68.97619,12.15001564453125,68.97619,12.66778564453125Q68.97619,13.18555564453125,68.61007000000001,13.55166564453125Q68.24396,13.91778564453125,67.72619,13.91778564453125L60.75,13.91778564453125Q59.81802,13.91778564453125,59.15901,14.57679564453125Q58.5,15.23580564453125,58.5,16.16778564453125Q58.5,17.09976564453125,59.15901,17.758775644531248Q59.81802,18.41778564453125,60.75,18.41778564453125L67.72619,18.41778564453125Q68.24396,18.41778564453125,68.61007000000001,18.78390564453125Q68.97619,19.15001564453125,68.97619,19.66778564453125Q68.97619,20.18555564453125,68.61007000000001,20.551665644531248Q68.24396,20.91778564453125,67.72619,20.91778564453125L60.75,20.91778564453125Q59.818018,20.91778564453125,59.15901,21.57678564453125Q58.5,22.235785644531248,58.5,23.16778564453125Q58.5,24.099785644531252,59.15901,24.75878564453125Q59.818018,25.41778564453125,60.75,25.41778564453125Z" fill-rule="evenodd" fill="#409EFF" fill-opacity="1"/></g><g transform="matrix(-1,0,0,1,96,0)"><path d="M49.964,23.369785644531248Q49.524,23.369785644531248,49.204,23.20378564453125Q48.883999,23.03778564453125,48.709999,22.71778564453125Q48.535999,22.39778564453125,48.535999,21.94978564453125Q48.535999,21.49378564453125,48.709999,21.15778564453125Q48.883999,20.82178564453125,49.206,20.64378564453125Q49.528,20.465785644531252,49.964,20.465785644531252Q50.4,20.465785644531252,50.72,20.64378564453125Q51.04,20.82178564453125,51.214,21.15778564453125Q51.388,21.49378564453125,51.388,21.94978564453125Q51.388,22.40178564453125,51.214,22.71978564453125Q51.04,23.03778564453125,50.724000000000004,23.20378564453125Q50.408,23.369785644531248,49.964,23.369785644531248ZM49.236,21.94978564453125Q49.236,22.38178564453125,49.428,22.63178564453125Q49.62,22.88178564453125,49.964,22.88178564453125Q50.304,22.88178564453125,50.496,22.63178564453125Q50.688,22.38178564453125,50.688,21.94978564453125Q50.688,21.66578564453125,50.604,21.44178564453125Q50.52,21.21778564453125,50.354,21.08978564453125Q50.188,20.96178564453125,49.964,20.96178564453125Q49.74,20.96178564453125,49.576,21.08978564453125Q49.412,21.21778564453125,49.324,21.44178564453125Q49.236,21.66578564453125,49.236,21.94978564453125ZM52.676,23.36178564453125Q52.632,23.369785644531248,52.54,23.369785644531248Q52,23.369785644531248,51.58,23.13778564453125L51.58,22.54978564453125Q51.8,22.68578564453125,52.064,22.77778564453125Q52.328,22.869785644531248,52.544,22.869785644531248Q52.72,22.869785644531248,52.822,22.78165564453125Q52.924,22.69347564453125,52.924,22.58128564453125Q52.924,22.42503564453125,52.804,22.29484564453125Q52.684,22.16459564453125,52.42,22.08447564453125Q52.116,21.98828564453125,51.946,21.89016564453125Q51.775999999999996,21.79197564453125,51.69,21.64372564453125Q51.604,21.49547564453125,51.604,21.26709564453125Q51.604,21.05072564453125,51.708,20.87247364453125Q51.812,20.69416064453125,52.014,20.58597364453125Q52.216,20.47778564453125,52.496,20.47778564453125Q52.532,20.465785644531252,52.608,20.465785644531252Q52.816,20.465785644531252,53.025999999999996,20.50778564453125Q53.236,20.54978564453125,53.38,20.61378564453125L53.38,21.12978564453125Q53.224000000000004,21.06178564453125,53.016,21.01778564453125Q52.808,20.97378564453125,52.647999999999996,20.97378564453125Q52.444,20.97378564453125,52.336,21.04603564453125Q52.228,21.118285644531248,52.228,21.24672564453125Q52.228,21.36309564453125,52.344,21.45541564453125Q52.46,21.54772564453125,52.704,21.63197564453125Q52.996,21.71628564453125,53.18,21.82266564453125Q53.364,21.92897564453125,53.468,22.09959564453125Q53.572,22.27016564453125,53.572,22.526975644531248Q53.572,22.77178564453125,53.46,22.96047564453125Q53.348,23.14909564453125,53.146,23.25547564453125Q52.944,23.36178564453125,52.676,23.36178564453125ZM54.492,21.14178564453125L54.468,21.14178564453125L54.468,23.31778564453125L53.82,23.31778564453125L53.82,20.51778564453125L54.872,20.51778564453125L55.54,22.72978564453125L55.592,22.72978564453125L55.592,20.51778564453125L56.24,20.51778564453125L56.24,23.31778564453125L55.164,23.31778564453125L54.492,21.14178564453125ZM57.896,20.51778564453125Q58.32,20.51778564453125,58.566,20.73578564453125Q58.812,20.95378564453125,58.812,21.34978564453125Q58.812,21.67778564453125,58.641999999999996,21.88578564453125Q58.472,22.093785644531252,58.164,22.15378564453125Q58.396,22.40978564453125,58.576,22.68578564453125Q58.756,22.96178564453125,58.92,23.31778564453125L58.312,23.31778564453125Q58.124,22.93778564453125,57.964,22.68978564453125Q57.804,22.44178564453125,57.548,22.18178564453125L57.26,22.18178564453125L57.26,23.31778564453125L56.6,23.31778564453125L56.6,20.51778564453125L57.896,20.51778564453125ZM57.848,21.72178564453125Q58.052,21.72178564453125,58.164,21.61378564453125Q58.275999999999996,21.50578564453125,58.275999999999996,21.34978564453125Q58.275999999999996,21.18978564453125,58.162,21.08378564453125Q58.048,20.97778564453125,57.848,20.97778564453125L57.26,20.97778564453125L57.26,21.72178564453125L57.848,21.72178564453125Z" fill="#000000" fill-opacity="1"/></g></g></svg>