<svg xmlns="http://www.w3.org/2000/svg" xmlns:xlink="http://www.w3.org/1999/xlink" fill="none" version="1.1" width="32" height="32" viewBox="0 0 32 32"><defs><clipPath id="master_svg0_33_682"><rect x="32" y="0" width="32" height="32" rx="0"/></clipPath></defs><g transform="matrix(-1,0,0,1,64,0)" clip-path="url(#master_svg0_33_682)"><rect x="32" y="0" width="32" height="32" rx="0" fill="#FFFFFF" fill-opacity="1"/><g transform="matrix(-1,0,0,1,112,0)"><path d="M58.65,28.96511962890625Q58.466,29.05311962890625,58.254,29.09511962890625Q58.042,29.137119628906248,57.762,29.137119628906248Q57.302,29.137119628906248,56.95,28.96511962890625Q56.598,28.79311962890625,56.396,28.47511962890625Q56.194,28.15711962890625,56.194,27.72911962890625Q56.194,27.297119628906252,56.392,26.95911962890625Q56.59,26.62111962890625,56.94,26.42711962890625Q57.29,26.233119628906252,57.742,26.233119628906252Q57.962,26.233119628906252,58.188,26.27711962890625Q58.414,26.32111962890625,58.57,26.38511962890625L58.57,26.86511962890625Q58.166,26.72911962890625,57.818,26.72911962890625Q57.386,26.72911962890625,57.118,26.97711962890625Q56.85,27.22511962890625,56.85,27.72911962890625Q56.85,28.00111962890625,56.98,28.21111962890625Q57.11,28.42111962890625,57.328,28.51711962890625Q57.546,28.61311962890625,57.798,28.61311962890625Q57.966,28.61311962890625,58.094,28.60111962890625L58.094,27.98511962890625L57.778,27.98511962890625L57.778,27.48511962890625L58.65,27.48511962890625L58.65,28.96511962890625ZM61.014,28.96911962890625Q60.862,29.06111962890625,60.66,29.10511962890625Q60.458,29.14911962890625,60.269999999999996,29.14911962890625Q59.63,29.14911962890625,59.3,28.84511962890625Q58.97,28.54111962890625,58.97,27.99311962890625Q58.97,27.44911962890625,59.264,27.15911962890625Q59.558,26.86911962890625,60.066,26.86911962890625Q60.57,26.86911962890625,60.864,27.15911962890625Q61.158,27.44911962890625,61.158,27.99311962890625Q61.158,28.05311962890625,61.15,28.16511962890625L59.594,28.16511962890625Q59.682,28.68111962890625,60.269999999999996,28.68111962890625Q60.682,28.68111962890625,61.014,28.43711962890625L61.014,28.96911962890625ZM60.554,27.71711962890625Q60.502,27.51711962890625,60.374,27.42111962890625Q60.246,27.32511962890625,60.066,27.32511962890625Q59.898,27.32511962890625,59.78,27.42511962890625Q59.662,27.52511962890625,59.614,27.71711962890625L60.554,27.71711962890625ZM62.118,26.91711962890625L62.118,27.17711962890625Q62.266,27.04911962890625,62.456,26.97711962890625Q62.646,26.90511962890625,62.834,26.90511962890625Q63.142,26.90511962890625,63.324,27.08511962890625Q63.506,27.26511962890625,63.506,27.55311962890625L63.506,29.07711962890625L62.866,29.07711962890625L62.866,27.66111962890625Q62.866,27.54511962890625,62.769999999999996,27.47111962890625Q62.674,27.39711962890625,62.542,27.39711962890625Q62.458,27.39711962890625,62.332,27.45311962890625Q62.206,27.50911962890625,62.118,27.58911962890625L62.118,29.07711962890625L61.478,29.07711962890625L61.478,26.91711962890625L62.118,26.91711962890625ZM64.986,26.28511962890625L66.274,26.28511962890625Q66.662,26.28511962890625,66.886,26.47511962890625Q67.11,26.66511962890625,67.11,27.01711962890625Q67.11,27.17311962890625,67.01,27.32111962890625Q66.91,27.46911962890625,66.742,27.57711962890625Q66.986,27.68111962890625,67.134,27.86911962890625Q67.282,28.05711962890625,67.282,28.27311962890625Q67.282,28.64511962890625,67.034,28.86511962890625Q66.786,29.08511962890625,66.366,29.08511962890625L64.986,29.08511962890625L64.986,26.28511962890625ZM66.194,28.60111962890625Q66.394,28.60111962890625,66.504,28.48711962890625Q66.614,28.37311962890625,66.614,28.18511962890625Q66.614,28.03311962890625,66.48,27.93711962890625Q66.346,27.84111962890625,66.078,27.84111962890625L65.646,27.84111962890625L65.646,28.60111962890625L66.194,28.60111962890625ZM66.098,27.45311962890625Q66.262,27.45311962890625,66.354,27.33911962890625Q66.446,27.22511962890625,66.446,27.08911962890625Q66.446,26.92911962890625,66.35,26.81511962890625Q66.254,26.70111962890625,66.026,26.70111962890625L65.646,26.70111962890625L65.646,27.45311962890625L66.098,27.45311962890625ZM68.334,26.92511962890625L68.334,29.08511962890625L67.694,29.08511962890625L67.694,26.92511962890625L68.334,26.92511962890625ZM67.694,26.00911962890625L68.334,26.00911962890625L68.334,26.64911962890625L67.694,26.64911962890625L67.694,26.00911962890625ZM68.95400000000001,26.92511962890625L68.95400000000001,26.30911962890625L69.554,26.30911962890625L69.554,26.92511962890625L69.97,26.92511962890625L69.97,27.41311962890625L69.554,27.41311962890625L69.554,28.34111962890625Q69.554,28.45711962890625,69.572,28.51711962890625Q69.59,28.57711962890625,69.638,28.59911962890625Q69.686,28.62111962890625,69.778,28.62111962890625Q69.838,28.62111962890625,69.88,28.61711962890625Q69.922,28.61311962890625,69.95400000000001,28.60511962890625L69.95400000000001,29.09711962890625Q69.786,29.11711962890625,69.642,29.11711962890625Q69.366,29.11711962890625,69.23,29.06111962890625Q69.094,29.00511962890625,69.024,28.86711962890625Q68.95400000000001,28.72911962890625,68.95400000000001,28.47311962890625L68.95400000000001,27.41311962890625L68.642,27.41311962890625L68.642,26.92511962890625L68.95400000000001,26.92511962890625ZM71.118,29.13311962890625Q70.874,29.14511962890625,70.624,29.09511962890625Q70.374,29.04511962890625,70.19,28.94111962890625L70.19,28.36511962890625Q70.354,28.48511962890625,70.584,28.56311962890625Q70.814,28.64111962890625,70.99,28.62911962890625Q71.114,28.62111962890625,71.17,28.57511962890625Q71.226,28.52911962890625,71.234,28.48111962890625Q71.254,28.35711962890625,71.174,28.29311962890625Q71.094,28.22911962890625,70.874,28.16911962890625Q70.63,28.10111962890625,70.486,28.01111962890625Q70.342,27.92111962890625,70.268,27.80711962890625Q70.194,27.69311962890625,70.194,27.51711962890625Q70.194,27.33311962890625,70.28999999999999,27.18711962890625Q70.386,27.04111962890625,70.594,26.95711962890625Q70.80199999999999,26.87311962890625,71.042,26.87311962890625Q71.222,26.87311962890625,71.406,26.90711962890625Q71.59,26.94111962890625,71.714,26.99711962890625L71.714,27.51311962890625Q71.586,27.44911962890625,71.412,27.39911962890625Q71.238,27.34911962890625,71.11,27.34911962890625Q70.838,27.34911962890625,70.814,27.49311962890625Q70.80199999999999,27.57711962890625,70.892,27.64111962890625Q70.982,27.70511962890625,71.15,27.75711962890625Q71.39,27.83311962890625,71.544,27.91311962890625Q71.69800000000001,27.99311962890625,71.786,28.12111962890625Q71.874,28.24911962890625,71.874,28.44911962890625Q71.874,28.74511962890625,71.662,28.93111962890625Q71.45,29.11711962890625,71.118,29.13311962890625Z" fill="#000000" fill-opacity="1"/></g><g transform="matrix(-1,0,0,1,96,0)"><path d="M48,12.20892333984375L49,12.20892333984375L49,19.20892333984375L50,19.20892333984375L50,10.20892333984375L49,10.20892333984375L48,11.20892333984375L48,12.20892333984375Z" fill="#000000" fill-opacity="1"/></g><g transform="matrix(-1,0,0,1,80,0)"><path d="M40,12.20892333984375L41,12.20892333984375L41,19.20892333984375L42,19.20892333984375L42,10.20892333984375L41,10.20892333984375L40,11.20892333984375L40,12.20892333984375Z" fill="#000000" fill-opacity="1"/></g><g transform="matrix(-1,0,0,1,118,0)"><path d="M59,12.20892333984375L60,12.20892333984375L60,19.20892333984375L61,19.20892333984375L61,10.20892333984375L60,10.20892333984375L59,11.20892333984375L59,12.20892333984375Z" fill="#000000" fill-opacity="1"/></g><g transform="matrix(-1,0,0,1,110,0)"><rect x="55" y="10.20892333984375" width="5" height="9" rx="1" fill="#409EFF" fill-opacity="1"/><rect x="55.5" y="10.70892333984375" width="4" height="8" rx="0.5" fill-opacity="0" stroke-opacity="1" stroke="#000000" fill="none" stroke-width="1"/></g><g transform="matrix(-1,0,0,1,90,0)"><path d="M45,14.70892333984375L45.416667,14.70892333984375L45.416667,13.70892333984375L45,13.70892333984375L45,14.70892333984375ZM46.25,14.70892333984375L47.083330000000004,14.70892333984375L47.083330000000004,13.70892333984375L46.25,13.70892333984375L46.25,14.70892333984375ZM47.916669999999996,14.70892333984375L48.75,14.70892333984375L48.75,13.70892333984375L47.916669999999996,13.70892333984375L47.916669999999996,14.70892333984375ZM49.583330000000004,14.70892333984375L50,14.70892333984375L50,13.70892333984375L49.583330000000004,13.70892333984375L49.583330000000004,14.70892333984375Z" fill-rule="evenodd" fill="#409EFF" fill-opacity="1"/></g><g transform="matrix(-1,0,0,1,124,0)"><rect x="62.5" y="4.70892333984375" width="27" height="19" rx="2.5" fill-opacity="0" stroke-opacity="1" stroke="#000000" fill="none" stroke-width="1"/></g></g></svg>