<svg xmlns="http://www.w3.org/2000/svg" xmlns:xlink="http://www.w3.org/1999/xlink" fill="none" version="1.1" width="32" height="32" viewBox="0 0 32 32"><defs><clipPath id="master_svg0_33_818"><rect x="32" y="0" width="32" height="32" rx="0"/></clipPath></defs><g transform="matrix(-1,0,0,1,64,0)" clip-path="url(#master_svg0_33_818)"><rect x="32" y="0" width="32" height="32" rx="0" fill="#FFFFFF" fill-opacity="1"/><g transform="matrix(-1,0,0,1,114,0)"><path d="M57.648,14.6L58.308,14.6L58.308,17.4L57.648,17.4L57.648,14.6ZM60.044,17.451999999999998Q59.608,17.451999999999998,59.278,17.276Q58.948,17.1,58.774,16.778Q58.6,16.456,58.6,16.02Q58.6,15.592,58.778,15.256Q58.956,14.92,59.286,14.734Q59.616,14.548,60.044,14.548Q60.452,14.548,60.786,14.732Q61.12,14.916,61.302,15.252Q61.484,15.588000000000001,61.484,16.02Q61.484,16.488,61.286,16.818Q61.088,17.148,60.728,17.308Q60.824,17.496,60.932,17.752L60.34,17.752Q60.252,17.56,60.192,17.444Q60.1,17.451999999999998,60.044,17.451999999999998ZM59.232,16.02Q59.232,16.3,59.334,16.509999999999998Q59.436,16.72,59.616,16.838Q59.796,16.956,60.044,16.956Q60.288,16.956,60.466,16.838Q60.644,16.72,60.746,16.509999999999998Q60.848,16.3,60.848,16.02Q60.848,15.764,60.75,15.542Q60.652,15.32,60.47,15.176Q60.288,15.032,60.036,15.032Q59.8,15.032,59.62,15.17Q59.44,15.308,59.336,15.53Q59.232,15.752,59.232,16.02ZM64.172,17.451999999999998Q63.716,17.451999999999998,63.362,17.284Q63.008,17.116,62.806,16.796Q62.604,16.476,62.604,16.036Q62.604,15.572,62.8,15.238Q62.996,14.904,63.348,14.725999999999999Q63.7,14.548,64.152,14.548Q64.376,14.548,64.604,14.592Q64.832,14.636,64.98,14.704L64.98,15.2Q64.576,15.052,64.228,15.052Q63.812,15.052,63.554,15.296Q63.296,15.54,63.296,16.036Q63.296,16.3,63.424,16.502Q63.552,16.704,63.76,16.816Q63.968,16.928,64.208,16.944L64.296,16.948Q64.48,16.948,64.66,16.896Q64.84,16.844,64.98,16.756L64.98,17.308Q64.80799999999999,17.387999999999998,64.614,17.42Q64.42,17.451999999999998,64.172,17.451999999999998ZM66.316,17.451999999999998Q65.976,17.451999999999998,65.718,17.312Q65.46000000000001,17.172,65.32,16.914Q65.18,16.656,65.18,16.304Q65.18,15.764,65.484,15.475999999999999Q65.788,15.188,66.316,15.188Q66.84,15.188,67.144,15.475999999999999Q67.44800000000001,15.764,67.44800000000001,16.304Q67.44800000000001,16.656,67.30799999999999,16.914Q67.168,17.172,66.912,17.312Q66.656,17.451999999999998,66.316,17.451999999999998ZM65.812,16.304Q65.812,16.612000000000002,65.952,16.8Q66.092,16.988,66.316,16.988Q66.53999999999999,16.988,66.678,16.8Q66.816,16.612000000000002,66.816,16.304Q66.816,15.984,66.682,15.818Q66.548,15.652,66.316,15.652Q66.084,15.652,65.94800000000001,15.818Q65.812,15.984,65.812,16.304ZM68.288,15.236L68.288,15.464Q68.432,15.348,68.608,15.284Q68.784,15.22,68.964,15.22Q69.144,15.22,69.276,15.286Q69.408,15.352,69.484,15.468Q69.632,15.348,69.80799999999999,15.284Q69.984,15.22,70.164,15.22Q70.468,15.22,70.632,15.4Q70.79599999999999,15.58,70.79599999999999,15.868L70.79599999999999,17.4L70.156,17.4L70.156,15.975999999999999Q70.156,15.86,70.078,15.786Q70,15.712,69.872,15.712Q69.816,15.712,69.74,15.736Q69.664,15.76,69.592,15.8Q69.592,15.824,69.592,15.868L69.592,17.4L68.956,17.4L68.956,15.975999999999999Q68.956,15.86,68.878,15.786Q68.8,15.712,68.672,15.712Q68.596,15.712,68.484,15.756Q68.372,15.8,68.288,15.872L68.288,17.4L67.648,17.4L67.648,15.236L68.288,15.236ZM70.996,18.312Q71.044,18.176000000000002,71.06,17.932Q71.076,17.688,71.076,17.488L71.076,15.24L71.716,15.24L71.716,15.44Q71.848,15.32,72.006,15.254Q72.164,15.188,72.324,15.188Q72.62,15.188,72.842,15.332Q73.064,15.475999999999999,73.186,15.734Q73.30799999999999,15.992,73.30799999999999,16.323999999999998Q73.30799999999999,16.656,73.188,16.91Q73.068,17.164,72.844,17.308Q72.62,17.451999999999998,72.324,17.451999999999998Q71.964,17.451999999999998,71.716,17.244L71.716,17.488Q71.716,17.7,71.694,17.942Q71.672,18.184,71.636,18.312L70.996,18.312ZM71.716,16.724Q71.8,16.887999999999998,71.93,16.94Q72.06,16.992,72.168,16.992Q72.304,16.992,72.426,16.902Q72.548,16.812,72.622,16.66Q72.696,16.508,72.696,16.323999999999998Q72.696,16.136,72.622,15.982Q72.548,15.828,72.426,15.74Q72.304,15.652,72.168,15.652Q72.06,15.652,71.93,15.704Q71.8,15.756,71.716,15.92L71.716,16.724ZM74.27199999999999,16.744L74.27199999999999,17.4L73.616,17.4L73.616,16.744L74.27199999999999,16.744Z" fill="#000000" fill-opacity="1"/></g><g transform="matrix(-1,0,0,1,122,0)"><path d="M86.5,24L86.5,19L85.5,19L85.5,23L84,23L84,18.5L77.5,18.5L77.5,26.5L76,26.5L76,18.5L70.5,18.5L70.5,23.5L68.5,23.5L68.5,28.5L67,28.5L67,18.5L62.5,18.5L62.5,25.5L61,25.5L61,26.5L63.5,26.5L63.5,19.5L66,19.5L66,29.5L69.5,29.5L69.5,24.5L71.5,24.5L71.5,19.5L75,19.5L75,27.5L78.5,27.5L78.5,19.5L83,19.5L83,24L86.5,24Z" fill-rule="evenodd" fill="#000000" fill-opacity="1"/></g><g transform="matrix(1,0,0,-1,0,26)"><path d="M61.5,18L61.5,13L60.5,13L60.5,17L59,17L59,12.5L52.5,12.5L52.5,20.5L51,20.5L51,12.5L45.5,12.5L45.5,17.5L43.5,17.5L43.5,22.5L42,22.5L42,12.5L37.5,12.5L37.5,19.5L36,19.5L36,20.5L38.5,20.5L38.5,13.5L41,13.5L41,23.5L44.5,23.5L44.5,18.5L46.5,18.5L46.5,13.5L50,13.5L50,21.5L53.5,21.5L53.5,13.5L58,13.5L58,18L61.5,18Z" fill-rule="evenodd" fill="#000000" fill-opacity="1"/></g><g transform="matrix(-1,0,0,1,124,0)"><path d="M62,13.5L90,13.5L90,12.5L62,12.5L62,13.5ZM90,18.5L62,18.5L62,19.5L90,19.5L90,18.5Z" fill-rule="evenodd" fill="#409EFF" fill-opacity="1"/></g></g></svg>