<svg xmlns="http://www.w3.org/2000/svg" xmlns:xlink="http://www.w3.org/1999/xlink" fill="none" version="1.1" width="32" height="32" viewBox="0 0 32 32"><defs><clipPath id="master_svg0_33_766"><rect x="32" y="0" width="32" height="32" rx="0"/></clipPath></defs><g transform="matrix(-1,0,0,1,64,0)" clip-path="url(#master_svg0_33_766)"><rect x="32" y="0" width="32" height="32" rx="0" fill="#FFFFFF" fill-opacity="1"/><g transform="matrix(-1,0,0,1,120,0)"><path d="M60.474,21.6L61.134,21.6L61.134,24.4L60.474,24.4L60.474,21.6ZM62.99,24.451999999999998Q62.554,24.451999999999998,62.224000000000004,24.276Q61.894,24.1,61.72,23.778Q61.546,23.456,61.546,23.02Q61.546,22.592,61.724,22.256Q61.902,21.92,62.232,21.734Q62.562,21.548000000000002,62.99,21.548000000000002Q63.398,21.548000000000002,63.732,21.732Q64.066,21.916,64.248,22.252Q64.43,22.588,64.43,23.02Q64.43,23.488,64.232,23.818Q64.034,24.148,63.674,24.308Q63.77,24.496,63.878,24.752L63.286,24.752Q63.198,24.56,63.138,24.444Q63.046,24.451999999999998,62.99,24.451999999999998ZM62.178,23.02Q62.178,23.3,62.28,23.509999999999998Q62.382,23.72,62.562,23.838Q62.742,23.956,62.99,23.956Q63.234,23.956,63.412,23.838Q63.59,23.72,63.692,23.509999999999998Q63.794,23.3,63.794,23.02Q63.794,22.764,63.696,22.542Q63.598,22.32,63.416,22.176Q63.234,22.032,62.982,22.032Q62.746,22.032,62.566,22.17Q62.386,22.308,62.282,22.53Q62.178,22.752,62.178,23.02ZM65.87,21.6L67.726,21.6L67.726,22.14L66.53,22.14L66.53,22.748L67.562,22.748L67.562,23.252L66.53,23.252L66.53,24.4L65.87,24.4L65.87,21.6ZM68.686,22.24L68.686,22.472Q68.78999999999999,22.36,68.936,22.298000000000002Q69.082,22.236,69.226,22.236Q69.326,22.236,69.414,22.264L69.414,22.756Q69.30199999999999,22.728,69.202,22.728Q69.05,22.728,68.914,22.778Q68.778,22.828,68.686,22.936L68.686,24.4L68.04599999999999,24.4L68.04599999999999,22.24L68.686,22.24ZM71.642,24.284Q71.49,24.376,71.288,24.42Q71.086,24.464,70.898,24.464Q70.258,24.464,69.928,24.16Q69.598,23.856,69.598,23.308Q69.598,22.764,69.892,22.474Q70.186,22.184,70.694,22.184Q71.19800000000001,22.184,71.492,22.474Q71.786,22.764,71.786,23.308Q71.786,23.368,71.778,23.48L70.222,23.48Q70.31,23.996,70.898,23.996Q71.31,23.996,71.642,23.752L71.642,24.284ZM71.182,23.032Q71.13,22.832,71.002,22.736Q70.874,22.64,70.694,22.64Q70.526,22.64,70.408,22.74Q70.28999999999999,22.84,70.242,23.032L71.182,23.032ZM73.69800000000001,25.312Q73.662,25.184,73.64,24.942Q73.618,24.7,73.618,24.488L73.618,24.244Q73.37,24.451999999999998,73.01,24.451999999999998Q72.714,24.451999999999998,72.49,24.308Q72.266,24.164,72.146,23.91Q72.026,23.656,72.026,23.323999999999998Q72.026,22.992,72.148,22.734Q72.27,22.476,72.492,22.332Q72.714,22.188,73.01,22.188Q73.17,22.188,73.328,22.254Q73.486,22.32,73.618,22.44L73.618,22.24L74.258,22.24L74.258,24.488Q74.258,24.688,74.274,24.932Q74.28999999999999,25.176000000000002,74.338,25.312L73.69800000000001,25.312ZM72.638,23.323999999999998Q72.638,23.508,72.712,23.66Q72.786,23.812,72.908,23.902Q73.03,23.992,73.166,23.992Q73.274,23.992,73.404,23.94Q73.534,23.887999999999998,73.618,23.724L73.618,22.92Q73.534,22.756,73.404,22.704Q73.274,22.652,73.166,22.652Q73.03,22.652,72.908,22.74Q72.786,22.828,72.712,22.982Q72.638,23.136,72.638,23.323999999999998ZM75.44200000000001,23.744L75.44200000000001,24.4L74.786,24.4L74.786,23.744L75.44200000000001,23.744ZM77.362,24.451999999999998Q76.922,24.451999999999998,76.602,24.286Q76.282,24.12,76.108,23.8Q75.934,23.48,75.934,23.032Q75.934,22.576,76.108,22.24Q76.282,21.904,76.604,21.726Q76.926,21.548000000000002,77.362,21.548000000000002Q77.798,21.548000000000002,78.118,21.726Q78.438,21.904,78.612,22.24Q78.786,22.576,78.786,23.032Q78.786,23.484,78.612,23.802Q78.438,24.12,78.122,24.286Q77.806,24.451999999999998,77.362,24.451999999999998ZM76.634,23.032Q76.634,23.464,76.826,23.714Q77.018,23.964,77.362,23.964Q77.702,23.964,77.894,23.714Q78.086,23.464,78.086,23.032Q78.086,22.748,78.002,22.524Q77.918,22.3,77.752,22.172Q77.586,22.044,77.362,22.044Q77.138,22.044,76.974,22.172Q76.81,22.3,76.72200000000001,22.524Q76.634,22.748,76.634,23.032ZM79.354,22.728L78.974,22.728L78.974,22.24L79.354,22.24L79.354,21.958437Q79.354,21.704625,79.424,21.567875Q79.494,21.431062,79.664,21.375562Q79.834,21.32,80.11,21.32Q80.194,21.32,80.28999999999999,21.32Q80.386,21.32,80.462,21.332L80.462,21.816Q80.43,21.804,80.354,21.804Q80.27799999999999,21.804,80.218,21.804Q80.126,21.804,80.078,21.825812Q80.03,21.847625,80.012,21.907063Q79.994,21.9665,79.994,22.08144L79.994,22.24L80.52199999999999,22.24L80.52199999999999,22.728L79.994,22.728L79.994,24.4L79.354,24.4L79.354,22.728ZM81.614,24.448Q81.37,24.46,81.12,24.41Q80.87,24.36,80.686,24.256L80.686,23.68Q80.85,23.8,81.08,23.878Q81.31,23.956,81.486,23.944Q81.61,23.936,81.666,23.89Q81.72200000000001,23.844,81.73,23.796Q81.75,23.672,81.67,23.608Q81.59,23.544,81.37,23.484Q81.126,23.416,80.982,23.326Q80.838,23.236,80.764,23.122Q80.69,23.008,80.69,22.832Q80.69,22.648,80.786,22.502Q80.882,22.356,81.09,22.272Q81.298,22.188,81.538,22.188Q81.718,22.188,81.902,22.222Q82.086,22.256,82.21000000000001,22.312L82.21000000000001,22.828Q82.082,22.764,81.908,22.714Q81.73400000000001,22.664,81.606,22.664Q81.334,22.664,81.31,22.808Q81.298,22.892,81.388,22.956Q81.47800000000001,23.02,81.646,23.072Q81.886,23.148,82.03999999999999,23.228Q82.194,23.308,82.282,23.436Q82.37,23.564,82.37,23.764Q82.37,24.06,82.158,24.246Q81.946,24.432,81.614,24.448ZM83.446,23.744L83.446,24.4L82.78999999999999,24.4L82.78999999999999,23.744L83.446,23.744ZM63.336,28.444Q63.292,28.451999999999998,63.2,28.451999999999998Q62.66,28.451999999999998,62.24,28.22L62.24,27.631999999999998Q62.46,27.768,62.724000000000004,27.86Q62.988,27.951999999999998,63.204,27.951999999999998Q63.38,27.951999999999998,63.482,27.86387Q63.584,27.77569,63.584,27.6635Q63.584,27.50725,63.464,27.37706Q63.344,27.24681,63.08,27.16669Q62.775999999999996,27.0705,62.606,26.972369999999998Q62.436,26.87419,62.35,26.72594Q62.264,26.57769,62.264,26.34931Q62.264,26.132939999999998,62.368,25.95469Q62.472,25.77637,62.674,25.66819Q62.876,25.56,63.156,25.56Q63.192,25.548000000000002,63.268,25.548000000000002Q63.476,25.548000000000002,63.686,25.59Q63.896,25.631999999999998,64.04,25.695999999999998L64.04,26.212Q63.884,26.144,63.676,26.1Q63.468,26.056,63.308,26.056Q63.104,26.056,62.996,26.12825Q62.888,26.200499999999998,62.888,26.32894Q62.888,26.44531,63.004,26.53763Q63.12,26.62994,63.364,26.714190000000002Q63.656,26.7985,63.84,26.90487Q64.024,27.01119,64.128,27.18181Q64.232,27.35238,64.232,27.609189999999998Q64.232,27.854,64.12,28.04269Q64.008,28.23131,63.806,28.337690000000002Q63.604,28.444,63.336,28.444ZM65.252,26.240000000000002L65.252,28.4L64.612,28.4L64.612,26.240000000000002L65.252,26.240000000000002ZM64.612,25.323999999999998L65.252,25.323999999999998L65.252,25.964L64.612,25.964L64.612,25.323999999999998ZM66.656,29.311999999999998Q66.412,29.311999999999998,66.166,29.28Q65.92,29.247999999999998,65.724,29.188000000000002L65.724,28.664Q66.152,28.759999999999998,66.58,28.759999999999998Q66.852,28.759999999999998,66.992,28.64Q67.132,28.52,67.132,28.308Q66.912,28.451999999999998,66.608,28.451999999999998Q66.312,28.451999999999998,66.088,28.308Q65.864,28.164,65.744,27.91Q65.624,27.656,65.624,27.323999999999998Q65.624,26.992,65.746,26.734Q65.868,26.476,66.09,26.332Q66.312,26.188,66.608,26.188Q66.884,26.188,67.132,26.372L67.132,26.240000000000002L67.756,26.240000000000002L67.756,28.392Q67.756,29.311999999999998,66.656,29.311999999999998ZM66.236,27.323999999999998Q66.236,27.508,66.31,27.66Q66.384,27.812,66.506,27.902Q66.628,27.992,66.764,27.992Q66.864,27.992,66.988,27.945999999999998Q67.112,27.9,67.2,27.752L67.22,27.672L67.22,26.932000000000002Q67.136,26.759999999999998,67.004,26.706Q66.872,26.652,66.764,26.652Q66.628,26.652,66.506,26.740000000000002Q66.384,26.828,66.31,26.982Q66.236,27.136,66.236,27.323999999999998ZM68.94,27.744L68.94,28.4L68.284,28.4L68.284,27.744L68.94,27.744ZM71,28.451999999999998Q70.544,28.451999999999998,70.19,28.284Q69.836,28.116,69.634,27.796Q69.432,27.476,69.432,27.036Q69.432,26.572,69.628,26.238Q69.824,25.904,70.176,25.726Q70.528,25.548000000000002,70.98,25.548000000000002Q71.20400000000001,25.548000000000002,71.432,25.592Q71.66,25.636,71.80799999999999,25.704L71.80799999999999,26.2Q71.404,26.052,71.056,26.052Q70.64,26.052,70.382,26.296Q70.124,26.54,70.124,27.036Q70.124,27.3,70.252,27.502Q70.38,27.704,70.588,27.816Q70.79599999999999,27.928,71.036,27.944L71.124,27.948Q71.30799999999999,27.948,71.488,27.896Q71.668,27.844,71.80799999999999,27.756L71.80799999999999,28.308Q71.636,28.387999999999998,71.44200000000001,28.42Q71.248,28.451999999999998,71,28.451999999999998ZM73.264,28.451999999999998Q72.924,28.451999999999998,72.666,28.312Q72.408,28.172,72.268,27.914Q72.128,27.656,72.128,27.304000000000002Q72.128,26.764,72.432,26.476Q72.736,26.188,73.264,26.188Q73.788,26.188,74.092,26.476Q74.396,26.764,74.396,27.304000000000002Q74.396,27.656,74.256,27.914Q74.116,28.172,73.86,28.312Q73.604,28.451999999999998,73.264,28.451999999999998ZM72.76,27.304000000000002Q72.76,27.612000000000002,72.9,27.8Q73.03999999999999,27.988,73.264,27.988Q73.488,27.988,73.626,27.8Q73.764,27.612000000000002,73.764,27.304000000000002Q73.764,26.984,73.63,26.817999999999998Q73.496,26.652,73.264,26.652Q73.032,26.652,72.896,26.817999999999998Q72.76,26.984,72.76,27.304000000000002ZM75.356,26.236L75.356,26.464Q75.5,26.348,75.676,26.284Q75.852,26.22,76.032,26.22Q76.212,26.22,76.344,26.286Q76.476,26.352,76.55199999999999,26.468Q76.7,26.348,76.876,26.284Q77.05199999999999,26.22,77.232,26.22Q77.536,26.22,77.7,26.4Q77.864,26.58,77.864,26.868000000000002L77.864,28.4L77.224,28.4L77.224,26.976Q77.224,26.86,77.146,26.786Q77.068,26.712,76.94,26.712Q76.884,26.712,76.80799999999999,26.736Q76.732,26.759999999999998,76.66,26.8Q76.66,26.823999999999998,76.66,26.868000000000002L76.66,28.4L76.024,28.4L76.024,26.976Q76.024,26.86,75.946,26.786Q75.868,26.712,75.74,26.712Q75.664,26.712,75.55199999999999,26.756Q75.44,26.8,75.356,26.872L75.356,28.4L74.716,28.4L74.716,26.236L75.356,26.236ZM78.184,29.311999999999998Q78.232,29.176000000000002,78.248,28.932000000000002Q78.264,28.688,78.264,28.488L78.264,26.240000000000002L78.904,26.240000000000002L78.904,26.44Q79.036,26.32,79.194,26.253999999999998Q79.352,26.188,79.512,26.188Q79.80799999999999,26.188,80.03,26.332Q80.252,26.476,80.374,26.734Q80.496,26.992,80.496,27.323999999999998Q80.496,27.656,80.376,27.91Q80.256,28.164,80.032,28.308Q79.80799999999999,28.451999999999998,79.512,28.451999999999998Q79.152,28.451999999999998,78.904,28.244L78.904,28.488Q78.904,28.7,78.882,28.942Q78.86,29.183999999999997,78.824,29.311999999999998L78.184,29.311999999999998ZM78.904,27.724Q78.988,27.887999999999998,79.118,27.94Q79.248,27.992,79.356,27.992Q79.492,27.992,79.614,27.902Q79.736,27.812,79.81,27.66Q79.884,27.508,79.884,27.323999999999998Q79.884,27.136,79.81,26.982Q79.736,26.828,79.614,26.740000000000002Q79.492,26.652,79.356,26.652Q79.248,26.652,79.118,26.704Q78.988,26.756,78.904,26.92L78.904,27.724ZM81.58,27.744L81.58,28.4L80.924,28.4L80.924,27.744L81.58,27.744Z" fill="#000000" fill-opacity="1"/></g><g transform="matrix(-1,0,0,1,118,0)"><rect x="59" y="2" width="1" height="18" rx="0" fill="#000000" fill-opacity="1"/></g><g transform="matrix(0,1,1,0,18,-18)"><rect x="37" y="19" width="1" height="9" rx="0" fill="#000000" fill-opacity="1"/></g><g transform="matrix(-1,0,0,1,106.4697265625,0)"><path d="M65.10626328125,10.956176328125L69.07206328125,10.956176328125L69.07206328125,9.956176328125L65.10626328125,9.956176328125Q64.19166328125,9.956176328125,63.28596328125,9.476346328125Q62.72920328125,9.181426328125,61.76663328125,8.421996328125001Q61.27694328125,8.035646328125,61.03779328125,7.868806328125Q59.82711328125,7.024160328125,53.30893558125,6.047753328125L53.16079098125,7.036719328125Q59.44717328125,7.978406328125,60.465623281250004,8.688936328125Q60.68064328125,8.838946328125001,61.14723328125,9.207066328125Q62.18098328125,10.022646328125,62.81780328125,10.360006328125Q63.94316328125,10.956176328125,65.10626328125,10.956176328125Z" fill-rule="evenodd" fill="#409EFF" fill-opacity="1"/></g><g transform="matrix(-1,0,0,1,107.837158203125,0)"><path d="M65.7899791015625,13.41314654296875L69.7557791015625,13.41314654296875L69.7557791015625,12.41314654296875L65.7899791015625,12.41314654296875Q64.8753791015625,12.41314654296875,63.9696791015625,11.93331654296875Q63.4129191015625,11.63839654296875,62.4503491015625,10.878966542968751Q61.9606591015625,10.49261654296875,61.7215091015625,10.32577654296875Q60.5108291015625,9.48113054296875,53.9926514015625,8.50472354296875L53.8445068015625,9.49368954296875Q60.1308891015625,10.43537654296875,61.149339101562504,11.14590654296875Q61.3643591015625,11.295916542968751,61.8309491015625,11.66403654296875Q62.8646991015625,12.47961654296875,63.5015191015625,12.81697654296875Q64.6268791015625,13.41314654296875,65.7899791015625,13.41314654296875Z" fill-rule="evenodd" fill="#409EFF" fill-opacity="1"/></g><g transform="matrix(-1,0,0,1,108.9776611328125,0)"><path d="M66.36023056640624,15.8701167578125L70.32603056640625,15.8701167578125L70.32603056640625,14.8701167578125L66.36023056640624,14.8701167578125Q65.44563056640625,14.8701167578125,64.53993056640626,14.3902867578125Q63.98317056640625,14.0953667578125,63.02060056640625,13.335936757812501Q62.53091056640625,12.9495867578125,62.29176056640625,12.7827467578125Q61.08108056640625,11.9381007578125,54.56290286640625,10.9616937578125L54.41475826640625,11.9506597578125Q60.70114056640625,12.8923467578125,61.719590566406254,13.6028767578125Q61.93461056640625,13.752886757812501,62.40120056640625,14.1210067578125Q63.43495056640625,14.9365867578125,64.07177056640626,15.2739467578125Q65.19713056640624,15.8701167578125,66.36023056640624,15.8701167578125Z" fill-rule="evenodd" fill="#409EFF" fill-opacity="1"/></g><g transform="matrix(-1,0,0,1,110,0)"><ellipse cx="64" cy="11" rx="8.5" ry="8.5" fill-opacity="0" stroke-opacity="1" stroke="#000000" fill="none" stroke-width="1"/></g></g></svg>