<?xml version="1.0" standalone="no"?><!DOCTYPE svg PUBLIC "-//W3C//DTD SVG 1.1//EN" "http://www.w3.org/Graphics/SVG/1.1/DTD/svg11.dtd"><svg t="1694069445955" class="icon" viewBox="0 0 1024 1024" version="1.1" xmlns="http://www.w3.org/2000/svg" p-id="9565" xmlns:xlink="http://www.w3.org/1999/xlink" width="200" height="200"><path d="M64 551.488v-142.976l240-8 32-1.056v161.088l-32-1.056-240-8z m240-24v-94.944l-208 6.944v81.024l208 6.944zM960 359.552V280.448l-304-8.928v96.96l32-0.96 272-8z m-272-24v-31.072l240 7.04v16.96l-240 7.04zM960 679.552v-79.104l-304-8.928v96.96l32-0.96 272-8z m-272-24v-31.072l240 7.04v16.96l-240 7.04z" fill="#000000" p-id="9566"></path><path d="M437.376 867.072h-1.152V940.8h-20.352v-89.6h36.736l12.16 64.128 0.256 1.28 0.256-1.28 12.16-64.128h36.736v89.6h-20.352v-73.728H492.8l-15.36 73.728h-24.832l-15.232-73.728z m111.36 4.48v7.296q4.608-3.712 10.24-5.76 5.632-2.048 11.392-2.048t9.984 2.112q4.224 2.112 6.656 5.824 4.736-3.84 10.368-5.888 5.632-2.048 11.392-2.048 9.728 0 14.976 5.76 5.248 5.76 5.248 14.976V940.8h-20.48v-45.568q0-3.712-2.496-6.08t-6.592-2.368q-1.792 0-4.224 0.768-2.432 0.768-4.736 2.048v51.2h-20.352v-45.568q0-3.712-2.496-6.08t-6.592-2.368q-2.432 0-6.016 1.408t-6.272 3.712V940.8h-20.48v-69.248h20.48z m115.2 0.128v69.12h-20.48v-69.12h20.48z m-20.48-29.312h20.48v20.48h-20.48v-20.48z" fill="#000000" p-id="9567"></path><path d="M304 208h384v544h-384v-544z m32 32v480h320v-480h-320z" fill="#409EFF" p-id="9568"></path></svg>