<?xml version="1.0" standalone="no"?><!DOCTYPE svg PUBLIC "-//W3C//DTD SVG 1.1//EN" "http://www.w3.org/Graphics/SVG/1.1/DTD/svg11.dtd"><svg t="1694069454515" class="icon" viewBox="0 0 1024 1024" version="1.1" xmlns="http://www.w3.org/2000/svg" p-id="9983" xmlns:xlink="http://www.w3.org/1999/xlink" width="200" height="200"><path d="M452.864 867.072h-1.152V940.8h-20.352v-89.6h36.736l12.16 64.128 0.256 1.28 0.256-1.28 12.16-64.128h36.736v89.6h-20.352v-73.728h-1.024l-15.36 73.728h-24.832l-15.232-73.728z m124.16 20.224h-33.152v-15.616h55.424v15.616l-35.84 38.016h36.736v15.488h-59.008v-15.36l35.84-38.144z m54.912-15.616v69.12h-20.48v-69.12h20.48z m-20.48-29.312h20.48v20.48h-20.48v-20.48z" fill="#000000" p-id="9984"></path><path d="M959.04 261.536l-59.872 162.464H774.08l-72-144h-72.32l-48-104H442.24l-48 104h-72.352l-72 144H124.832l-59.84-162.464 30.016-11.072L147.2 392H230.08l72-144h71.68l48-104h180.448l48 104h71.648l72 144h82.944l52.16-141.536 30.016 11.072z" fill="#000000" p-id="9985"></path><path d="M959.04 690.464L899.136 528h-126.08l-72 184H322.88l-72-184h-126.08l-59.84 162.464 30.016 11.072L147.2 560h81.92l72 184H722.88l72-184h81.92l52.16 141.536 30.016-11.072z" fill="#409EFF" p-id="9986"></path></svg>