<svg xmlns="http://www.w3.org/2000/svg" xmlns:xlink="http://www.w3.org/1999/xlink" fill="none" version="1.1" width="32" height="32" viewBox="0 0 32 32"><defs><clipPath id="master_svg0_33_916"><rect x="32" y="0" width="32" height="32" rx="0"/></clipPath></defs><g transform="matrix(-1,0,0,1,64,0)" clip-path="url(#master_svg0_33_916)"><rect x="32" y="0" width="32" height="32" rx="0" fill="#FFFFFF" fill-opacity="1"/><g transform="matrix(-1,0,0,1,119,0)"><path d="M61.284,26.6Q61.724000000000004,26.6,61.978,26.836Q62.232,27.072,62.232,27.508Q62.232,27.94,61.978,28.176000000000002Q61.724000000000004,28.412,61.284,28.412L60.604,28.412L60.604,29.4L59.944,29.4L59.944,26.6L61.284,26.6ZM61.224,27.884Q61.424,27.884,61.532,27.776Q61.64,27.668,61.64,27.508Q61.64,27.344,61.532,27.236Q61.424,27.128,61.224,27.128L60.604,27.128L60.604,27.884L61.224,27.884ZM63.072,26.324L63.072,27.472Q63.216,27.352,63.392,27.286Q63.568,27.22,63.748,27.22Q64.056,27.22,64.238,27.4Q64.42,27.58,64.42,27.868L64.42,29.4L63.78,29.4L63.78,27.976Q63.78,27.86,63.684,27.786Q63.588,27.712,63.456,27.712Q63.38,27.712,63.268,27.76Q63.156,27.808,63.072,27.88L63.072,29.4L62.432,29.4L62.432,26.324L63.072,26.324ZM65.62,29.451999999999998Q65.316,29.451999999999998,65.09,29.308Q64.864,29.164,64.742,28.912Q64.62,28.66,64.62,28.323999999999998Q64.62,27.992,64.742,27.734Q64.864,27.476,65.086,27.332Q65.30799999999999,27.188,65.604,27.188Q65.74,27.188,65.878,27.238Q66.016,27.288,66.136,27.376L66.136,27.24L66.776,27.24L66.776,28.896Q66.776,29.22,66.856,29.4L66.256,29.4Q66.228,29.344,66.208,29.256Q65.96,29.451999999999998,65.62,29.451999999999998ZM65.232,28.323999999999998Q65.232,28.508,65.306,28.66Q65.38,28.812,65.502,28.902Q65.624,28.992,65.76,28.992Q65.856,28.992,65.976,28.95Q66.096,28.908,66.184,28.768L66.184,27.872Q66.096,27.732,65.978,27.692Q65.86,27.652,65.76,27.652Q65.624,27.652,65.502,27.74Q65.38,27.828,65.306,27.982Q65.232,28.136,65.232,28.323999999999998ZM67.924,29.448Q67.68,29.46,67.43,29.41Q67.18,29.36,66.996,29.256L66.996,28.68Q67.16,28.8,67.39,28.878Q67.62,28.956,67.79599999999999,28.944Q67.92,28.936,67.976,28.89Q68.032,28.844,68.03999999999999,28.796Q68.06,28.672,67.98,28.608Q67.9,28.544,67.68,28.484Q67.436,28.416,67.292,28.326Q67.148,28.236,67.074,28.122Q67,28.008,67,27.832Q67,27.648,67.096,27.502Q67.19200000000001,27.356,67.4,27.272Q67.608,27.188,67.848,27.188Q68.028,27.188,68.212,27.222Q68.396,27.256,68.52,27.312L68.52,27.828Q68.392,27.764,68.218,27.714Q68.044,27.664,67.916,27.664Q67.644,27.664,67.62,27.808Q67.608,27.892,67.69800000000001,27.956Q67.788,28.02,67.956,28.072Q68.196,28.148,68.35,28.228Q68.504,28.308,68.592,28.436Q68.68,28.564,68.68,28.764Q68.68,29.06,68.468,29.246Q68.256,29.432,67.924,29.448ZM70.816,29.284Q70.664,29.376,70.462,29.42Q70.26,29.464,70.072,29.464Q69.432,29.464,69.102,29.16Q68.772,28.856,68.772,28.308Q68.772,27.764,69.066,27.474Q69.36,27.184,69.868,27.184Q70.372,27.184,70.666,27.474Q70.96000000000001,27.764,70.96000000000001,28.308Q70.96000000000001,28.368,70.952,28.48L69.396,28.48Q69.484,28.996,70.072,28.996Q70.484,28.996,70.816,28.752L70.816,29.284ZM70.356,28.032Q70.304,27.832,70.176,27.736Q70.048,27.64,69.868,27.64Q69.7,27.64,69.582,27.74Q69.464,27.84,69.416,28.032L70.356,28.032ZM72.792,27.224L72.768,27.224L72.768,29.4L72.12,29.4L72.12,26.6L73.172,26.6L73.84,28.812L73.892,28.812L73.892,26.6L74.53999999999999,26.6L74.53999999999999,29.4L73.464,29.4L72.792,27.224ZM75.916,29.451999999999998Q75.576,29.451999999999998,75.318,29.312Q75.06,29.172,74.92,28.914Q74.78,28.656,74.78,28.304Q74.78,27.764,75.084,27.476Q75.388,27.188,75.916,27.188Q76.44,27.188,76.744,27.476Q77.048,27.764,77.048,28.304Q77.048,28.656,76.908,28.914Q76.768,29.172,76.512,29.312Q76.256,29.451999999999998,75.916,29.451999999999998ZM75.412,28.304Q75.412,28.612000000000002,75.55199999999999,28.8Q75.69200000000001,28.988,75.916,28.988Q76.14,28.988,76.27799999999999,28.8Q76.416,28.612000000000002,76.416,28.304Q76.416,27.984,76.282,27.818Q76.148,27.652,75.916,27.652Q75.684,27.652,75.548,27.818Q75.412,27.984,75.412,28.304ZM77.94,27.24L77.94,29.4L77.3,29.4L77.3,27.24L77.94,27.24ZM77.3,26.324L77.94,26.324L77.94,26.964L77.3,26.964L77.3,26.324ZM79.14,29.448Q78.896,29.46,78.646,29.41Q78.396,29.36,78.212,29.256L78.212,28.68Q78.376,28.8,78.606,28.878Q78.836,28.956,79.012,28.944Q79.136,28.936,79.19200000000001,28.89Q79.248,28.844,79.256,28.796Q79.276,28.672,79.196,28.608Q79.116,28.544,78.896,28.484Q78.652,28.416,78.508,28.326Q78.364,28.236,78.28999999999999,28.122Q78.21600000000001,28.008,78.21600000000001,27.832Q78.21600000000001,27.648,78.312,27.502Q78.408,27.356,78.616,27.272Q78.824,27.188,79.064,27.188Q79.244,27.188,79.428,27.222Q79.612,27.256,79.736,27.312L79.736,27.828Q79.608,27.764,79.434,27.714Q79.26,27.664,79.132,27.664Q78.86,27.664,78.836,27.808Q78.824,27.892,78.914,27.956Q79.004,28.02,79.172,28.072Q79.412,28.148,79.566,28.228Q79.72,28.308,79.80799999999999,28.436Q79.896,28.564,79.896,28.764Q79.896,29.06,79.684,29.246Q79.47200000000001,29.432,79.14,29.448ZM82.032,29.284Q81.88,29.376,81.678,29.42Q81.476,29.464,81.288,29.464Q80.648,29.464,80.318,29.16Q79.988,28.856,79.988,28.308Q79.988,27.764,80.282,27.474Q80.576,27.184,81.084,27.184Q81.588,27.184,81.882,27.474Q82.176,27.764,82.176,28.308Q82.176,28.368,82.168,28.48L80.612,28.48Q80.7,28.996,81.288,28.996Q81.7,28.996,82.032,28.752L82.032,29.284ZM81.572,28.032Q81.52,27.832,81.392,27.736Q81.264,27.64,81.084,27.64Q80.916,27.64,80.798,27.74Q80.68,27.84,80.632,28.032L81.572,28.032Z" fill="#000000" fill-opacity="1"/></g><g transform="matrix(-1,0,0,1,123,0)"><path d="M88,8.875L88,11.5L89,11.5L89,6.625Q89,5.17525,87.9749,4.150126Q86.9497,3.125,85.5,3.125L64.5,3.125Q63.05025,3.125,62.025126,4.150126Q61,5.17525,61,6.625L61,8.875L61,11.5L62,11.5L62,8.875L62,6.625Q62,5.58947,62.73223,4.8572299999999995Q63.46447,4.125,64.5,4.125L85.5,4.125Q86.5355,4.125,87.2678,4.8572299999999995Q88,5.58947,88,6.625L88,8.875ZM62,18.75L62,16.125L61,16.125L61,21Q61,22.4497,62.025126,23.4749Q63.05025,24.5,64.5,24.5L85.5,24.5Q86.9498,24.5,87.9749,23.4749Q89,22.4497,89,21L89,16.125L88,16.125L88,21Q88,22.0355,87.2678,22.7678Q86.5355,23.5,85.5,23.5L64.5,23.5Q63.46447,23.5,62.73223,22.7678Q62,22.0355,62,21L62,18.75Z" fill-rule="evenodd" fill="#000000" fill-opacity="1"/></g><g transform="matrix(-1,0,0,1,124,0)"><path d="M84.2658,14.5L90,14.5L90,13.5L84.7342,13.5L81.8618,10.05315L78.9651,16.812150000000003L77.0294,12.94077L73.1385,19.7499L69.11089,6.66019L65.69098,13.5L62,13.5L62,14.5L66.30902,14.5L68.88911,9.33981L72.8615,22.2501L76.9706,15.05923L79.0349,19.1878L82.1382,11.94685L84.2658,14.5Z" fill-rule="evenodd" fill="#409EFF" fill-opacity="1"/></g></g></svg>