<?xml version="1.0" standalone="no"?><!DOCTYPE svg PUBLIC "-//W3C//DTD SVG 1.1//EN" "http://www.w3.org/Graphics/SVG/1.1/DTD/svg11.dtd"><svg t="1694069449536" class="icon" viewBox="0 0 1024 1024" version="1.1" xmlns="http://www.w3.org/2000/svg" p-id="9705" xmlns:xlink="http://www.w3.org/1999/xlink" width="200" height="200"><path d="M208 683.04l-32 12.16V308.928L672 120.8v386.24l-464 176z m0-34.24l432-163.84v-317.76l-432 163.84v317.76z" fill="#000000" p-id="9706"></path><path d="M868.608 159.328l-160 48-9.216-30.656 160-48 9.216 30.656zM718.304 760.832l-96-192-28.608 14.336 96 192 28.608-14.336zM896 368h-192v-32h192v32zM335.84 914.24l32-224-31.68-4.48-32 224 31.68 4.48zM543.52 828.128l-48-192-31.04 7.744 48 192 31.04-7.744zM889.856 606.784l-192-80 12.288-29.568 192 80-12.288 29.568zM175.52 931.872l48-192-31.04-7.744-48 192 31.04 7.744z" fill="#409EFF" p-id="9707"></path></svg>