<?xml version="1.0" standalone="no"?><!DOCTYPE svg PUBLIC "-//W3C//DTD SVG 1.1//EN" "http://www.w3.org/Graphics/SVG/1.1/DTD/svg11.dtd"><svg t="1694069469339" class="icon" viewBox="0 0 1024 1024" version="1.1" xmlns="http://www.w3.org/2000/svg" p-id="10823" xmlns:xlink="http://www.w3.org/1999/xlink" width="200" height="200"><path d="M613.824 613.824Q656 571.648 656 512q0-59.648-42.176-101.824Q571.648 368 512 368q-59.648 0-101.824 42.176Q368 452.352 368 512q0 59.648 42.176 101.824Q452.352 656 512 656q59.648 0 101.824-42.176z m-22.624-181.024Q624 465.6 624 512q0 46.4-32.8 79.2Q558.4 624 512 624q-46.4 0-79.2-32.8Q400 558.4 400 512q0-46.4 32.8-79.2Q465.6 400 512 400q46.4 0 79.2 32.8z" fill="#409EFF" p-id="10824"></path><path d="M496 320V128h32v192h-32zM496 896v-192h32v192h-32zM704 496h192v32h-192v-32zM96 496h224v32H96v-32zM319.68 342.304L229.12 251.808l22.656-22.656 90.496 90.528-22.624 22.624zM772.192 794.88l-135.744-135.808 22.624-22.624 135.776 135.776-22.656 22.624z" fill="#000000" p-id="10825"></path><path d="M659.04 387.552l135.776-135.744-22.624-22.656-135.776 135.776 22.624 22.624zM296.992 749.6l90.528-90.528-22.624-22.624-90.528 90.528 22.624 22.624z" fill="#000000" p-id="10826"></path></svg>