<svg xmlns="http://www.w3.org/2000/svg" xmlns:xlink="http://www.w3.org/1999/xlink" fill="none" version="1.1" width="32" height="32" viewBox="0 0 32 32"><defs><clipPath id="master_svg0_33_695"><rect x="32" y="0" width="32" height="32" rx="0"/></clipPath></defs><g transform="matrix(-1,0,0,1,64,0)" clip-path="url(#master_svg0_33_695)"><rect x="32" y="0" width="32" height="32" rx="0" fill="#FFFFFF" fill-opacity="1"/><g transform="matrix(-1,0,0,1,122,0)"><path d="M62.852,14.6Q63.292,14.6,63.546,14.836Q63.8,15.072,63.8,15.508Q63.8,15.94,63.546,16.176000000000002Q63.292,16.412,62.852,16.412L62.172,16.412L62.172,17.4L61.511999,17.4L61.511999,14.6L62.852,14.6ZM62.792,15.884Q62.992,15.884,63.1,15.776Q63.208,15.668,63.208,15.508Q63.208,15.344,63.1,15.236Q62.992,15.128,62.792,15.128L62.172,15.128L62.172,15.884L62.792,15.884ZM65.624,17.404Q65.56,17.284,65.548,17.148Q65.4,17.28,65.194,17.366Q64.988,17.451999999999998,64.788,17.451999999999998Q64.48,17.451999999999998,64.298,17.272Q64.116,17.092,64.116,16.808L64.116,15.24L64.756,15.24L64.756,16.7Q64.756,16.816,64.834,16.89Q64.912,16.964,65.04,16.964Q65.124,16.964,65.266,16.904Q65.408,16.844,65.504,16.772L65.504,15.24L66.144,15.24L66.144,16.988Q66.144,17.12,66.16,17.21Q66.176,17.3,66.224,17.404L65.624,17.404ZM67.272,17.432Q66.912,17.432,66.728,17.23Q66.544,17.028,66.544,16.636L66.544,14.324L67.184,14.324L67.184,16.476Q67.184,16.636,67.208,16.72Q67.232,16.804,67.288,16.848Q67.332,16.884,67.386,16.894Q67.44,16.904,67.576,16.904L67.576,17.432L67.272,17.432ZM68.684,17.448Q68.44,17.46,68.19,17.41Q67.94,17.36,67.756,17.256L67.756,16.68Q67.92,16.8,68.15,16.878Q68.38,16.956,68.556,16.944Q68.68,16.936,68.736,16.89Q68.792,16.844,68.8,16.796Q68.82,16.672,68.74,16.608Q68.66,16.544,68.44,16.484Q68.196,16.416,68.05199999999999,16.326Q67.908,16.236,67.834,16.122Q67.76,16.008,67.76,15.832Q67.76,15.648,67.856,15.502Q67.952,15.356,68.16,15.272Q68.368,15.188,68.608,15.188Q68.788,15.188,68.972,15.222Q69.156,15.256,69.28,15.312L69.28,15.828Q69.152,15.764,68.978,15.714Q68.804,15.664,68.676,15.664Q68.404,15.664,68.38,15.808Q68.368,15.892,68.458,15.956Q68.548,16.02,68.716,16.072Q68.956,16.148,69.11,16.228Q69.264,16.308,69.352,16.436Q69.44,16.564,69.44,16.764Q69.44,17.06,69.228,17.246Q69.016,17.432,68.684,17.448ZM71.696,17.284Q71.544,17.376,71.342,17.42Q71.14,17.464,70.952,17.464Q70.312,17.464,69.982,17.16Q69.652,16.856,69.652,16.308Q69.652,15.764,69.946,15.474Q70.24,15.184,70.748,15.184Q71.252,15.184,71.54599999999999,15.474Q71.84,15.764,71.84,16.308Q71.84,16.368,71.832,16.48L70.276,16.48Q70.364,16.996,70.952,16.996Q71.364,16.996,71.696,16.752L71.696,17.284ZM71.236,16.032Q71.184,15.832,71.056,15.736Q70.928,15.64,70.748,15.64Q70.58,15.64,70.462,15.74Q70.344,15.84,70.29599999999999,16.032L71.236,16.032ZM74.248,17.444Q74.20400000000001,17.451999999999998,74.112,17.451999999999998Q73.572,17.451999999999998,73.152,17.22L73.152,16.632Q73.372,16.768,73.636,16.86Q73.9,16.951999999999998,74.116,16.951999999999998Q74.292,16.951999999999998,74.394,16.86387Q74.496,16.77569,74.496,16.6635Q74.496,16.50725,74.376,16.37706Q74.256,16.24681,73.992,16.16669Q73.688,16.0705,73.518,15.97238Q73.348,15.87419,73.262,15.72594Q73.176,15.57769,73.176,15.34931Q73.176,15.13294,73.28,14.954688Q73.384,14.776375,73.586,14.668188Q73.788,14.56,74.068,14.56Q74.104,14.548,74.18,14.548Q74.388,14.548,74.598,14.59Q74.80799999999999,14.632,74.952,14.696L74.952,15.212Q74.79599999999999,15.144,74.588,15.1Q74.38,15.056000000000001,74.22,15.056000000000001Q74.016,15.056000000000001,73.908,15.12825Q73.8,15.2005,73.8,15.32894Q73.8,15.44531,73.916,15.53763Q74.032,15.62994,74.276,15.71419Q74.568,15.7985,74.752,15.90488Q74.936,16.01119,75.03999999999999,16.18181Q75.144,16.35238,75.144,16.609189999999998Q75.144,16.854,75.032,17.04269Q74.92,17.23131,74.718,17.33769Q74.516,17.444,74.248,17.444ZM76.112,14.324L76.112,15.472Q76.256,15.352,76.432,15.286Q76.608,15.22,76.788,15.22Q77.096,15.22,77.27799999999999,15.4Q77.46000000000001,15.58,77.46000000000001,15.868L77.46000000000001,17.4L76.82,17.4L76.82,15.975999999999999Q76.82,15.86,76.724,15.786Q76.628,15.712,76.496,15.712Q76.42,15.712,76.30799999999999,15.76Q76.196,15.808,76.112,15.879999999999999L76.112,17.4L75.472,17.4L75.472,14.324L76.112,14.324ZM78.78,17.451999999999998Q78.476,17.451999999999998,78.25,17.308Q78.024,17.164,77.902,16.912Q77.78,16.66,77.78,16.323999999999998Q77.78,15.992,77.902,15.734Q78.024,15.475999999999999,78.246,15.332Q78.468,15.188,78.764,15.188Q78.9,15.188,79.038,15.238Q79.176,15.288,79.29599999999999,15.376L79.29599999999999,15.24L79.936,15.24L79.936,16.896Q79.936,17.22,80.01599999999999,17.4L79.416,17.4Q79.388,17.344,79.368,17.256Q79.12,17.451999999999998,78.78,17.451999999999998ZM78.392,16.323999999999998Q78.392,16.508,78.46600000000001,16.66Q78.53999999999999,16.812,78.662,16.902Q78.78399999999999,16.992,78.92,16.992Q79.01599999999999,16.992,79.136,16.95Q79.256,16.908,79.344,16.768L79.344,15.872Q79.256,15.732,79.138,15.692Q79.02,15.652,78.92,15.652Q78.78399999999999,15.652,78.662,15.74Q78.53999999999999,15.828,78.46600000000001,15.982Q78.392,16.136,78.392,16.323999999999998ZM80.256,18.312Q80.304,18.176000000000002,80.32,17.932Q80.336,17.688,80.336,17.488L80.336,15.24L80.976,15.24L80.976,15.44Q81.108,15.32,81.26599999999999,15.254Q81.424,15.188,81.584,15.188Q81.88,15.188,82.102,15.332Q82.324,15.475999999999999,82.446,15.734Q82.568,15.992,82.568,16.323999999999998Q82.568,16.656,82.44800000000001,16.91Q82.328,17.164,82.104,17.308Q81.88,17.451999999999998,81.584,17.451999999999998Q81.224,17.451999999999998,80.976,17.244L80.976,17.488Q80.976,17.7,80.95400000000001,17.942Q80.932,18.184,80.896,18.312L80.256,18.312ZM80.976,16.724Q81.06,16.887999999999998,81.19,16.94Q81.32,16.992,81.428,16.992Q81.564,16.992,81.686,16.902Q81.80799999999999,16.812,81.882,16.66Q81.956,16.508,81.956,16.323999999999998Q81.956,16.136,81.882,15.982Q81.80799999999999,15.828,81.686,15.74Q81.564,15.652,81.428,15.652Q81.32,15.652,81.19,15.704Q81.06,15.756,80.976,15.92L80.976,16.724ZM84.832,17.284Q84.68,17.376,84.47800000000001,17.42Q84.276,17.464,84.088,17.464Q83.44800000000001,17.464,83.118,17.16Q82.788,16.856,82.788,16.308Q82.788,15.764,83.082,15.474Q83.376,15.184,83.884,15.184Q84.388,15.184,84.682,15.474Q84.976,15.764,84.976,16.308Q84.976,16.368,84.968,16.48L83.412,16.48Q83.5,16.996,84.088,16.996Q84.5,16.996,84.832,16.752L84.832,17.284ZM84.372,16.032Q84.32,15.832,84.19200000000001,15.736Q84.064,15.64,83.884,15.64Q83.71600000000001,15.64,83.598,15.74Q83.48,15.84,83.432,16.032L84.372,16.032ZM85.936,15.24L85.936,15.472Q86.03999999999999,15.36,86.186,15.298Q86.332,15.236,86.476,15.236Q86.576,15.236,86.664,15.264L86.664,15.756Q86.55199999999999,15.728,86.452,15.728Q86.3,15.728,86.164,15.778Q86.02799999999999,15.828,85.936,15.936L85.936,17.4L85.29599999999999,17.4L85.29599999999999,15.24L85.936,15.24Z" fill="#409EFF" fill-opacity="1"/></g><g transform="matrix(-1,0,0,1,122,0)"><path d="M86.5,24L86.5,19L85.5,19L85.5,23L84,23L84,18.5L77.5,18.5L77.5,26.5L76,26.5L76,18.5L70.5,18.5L70.5,23.5L68.5,23.5L68.5,28.5L67,28.5L67,18.5L62.5,18.5L62.5,25.5L61,25.5L61,26.5L63.5,26.5L63.5,19.5L66,19.5L66,29.5L69.5,29.5L69.5,24.5L71.5,24.5L71.5,19.5L75,19.5L75,27.5L78.5,27.5L78.5,19.5L83,19.5L83,24L86.5,24Z" fill-rule="evenodd" fill="#409EFF" fill-opacity="1"/></g><g transform="matrix(1,0,0,-1,0,26)"><path d="M61.5,18L61.5,13L60.5,13L60.5,17L59,17L59,12.5L52.5,12.5L52.5,20.5L51,20.5L51,12.5L45.5,12.5L45.5,17.5L43.5,17.5L43.5,22.5L42,22.5L42,12.5L37.5,12.5L37.5,19.5L36,19.5L36,20.5L38.5,20.5L38.5,13.5L41,13.5L41,23.5L44.5,23.5L44.5,18.5L46.5,18.5L46.5,13.5L50,13.5L50,21.5L53.5,21.5L53.5,13.5L58,13.5L58,18L61.5,18Z" fill-rule="evenodd" fill="#409EFF" fill-opacity="1"/></g><g transform="matrix(-1,0,0,1,124,0)"><path d="M62,13.5L90,13.5L90,12.5L62,12.5L62,13.5ZM90,18.5L62,18.5L62,19.5L90,19.5L90,18.5Z" fill-rule="evenodd" fill="#000000" fill-opacity="1"/></g></g></svg>