<svg xmlns="http://www.w3.org/2000/svg" xmlns:xlink="http://www.w3.org/1999/xlink" fill="none" version="1.1" width="32" height="32" viewBox="0 0 32 32"><defs><clipPath id="master_svg0_33_828"><rect x="32" y="0" width="32" height="32" rx="0"/></clipPath></defs><g transform="matrix(-1,0,0,1,64,0)" clip-path="url(#master_svg0_33_828)"><rect x="32" y="0" width="32" height="32" rx="0" fill="#FFFFFF" fill-opacity="1"/><g transform="matrix(-1,0,0,1,124,0)"><rect x="62.5" y="4.5" width="27" height="23" rx="2.5" fill-opacity="0" stroke-opacity="1" stroke="#000000" fill="none" stroke-width="1"/></g><g transform="matrix(-1,0,0,1,119,0)"><path d="M70.5932,18.55056Q71.0227,17.40509,71.4932,14.5822L70.5068,14.4178Q70.0523,17.14489,69.6568,18.19944Q69.16911999999999,19.5,68.5,19.5Q67.77365,19.5,67.03191,17.925179999999997Q66.52542,16.84982,65.68145,13.983270000000001Q64.90898,11.35955,64.46494,10.37452Q63.61992,8.5,62.5,8.5Q60.87279,8.5,59.777752,11.64824Q59.4377675,12.62569,59.198504,13.74724Q59,14.67773,59,15L60,15Q60,14.78321,60.176496,13.95588Q60.402749,12.89532,60.72225,11.97676Q61.58373,9.5,62.5,9.5Q62.9738,9.5,63.55329,10.78549Q63.9691,11.70788,64.72217,14.265699999999999Q65.58791,17.206200000000003,66.12724,18.35128Q67.13928,20.5,68.5,20.5Q69.8621,20.5,70.5932,18.55056Z" fill-rule="evenodd" fill="#000000" fill-opacity="1"/></g><g transform="matrix(1,0,0,-1,0,40)"><path d="M47.593199999999996,29.55056Q48.0227,28.40509,48.4932,25.5822L47.5068,25.4178Q47.0523,28.14489,46.656800000000004,29.19944Q46.16912,30.5,45.5,30.5Q44.77365,30.5,44.031909999999996,28.925179999999997Q43.52542,27.84982,42.68145,24.98327Q41.90898,22.35955,41.46494,21.37452Q40.61992,19.5,39.5,19.5Q37.87279,19.5,36.777752,22.64824Q36.4377675,23.62569,36.198504,24.747239999999998Q36,25.67773,36,26L37,26Q37,25.78321,37.176496,24.95588Q37.402749,23.895319999999998,37.72225,22.97676Q38.58373,20.5,39.5,20.5Q39.9738,20.5,40.55329,21.78549Q40.9691,22.70788,41.72217,25.2657Q42.58791,28.206200000000003,43.12724,29.35128Q44.13928,31.5,45.5,31.5Q46.8621,31.5,47.593199999999996,29.55056Z" fill-rule="evenodd" fill="#000000" fill-opacity="1"/></g><g transform="matrix(-1,0,0,1,120,0)"><g><path d="M70.4977,11.02933Q71.1256,9.5,72,9.5L72,8.5Q70.4551,8.5,69.5726,10.64952Q69.10384,11.79122,68.50778,14.717839999999999Q67.9836,17.29146,67.62228,18.21704Q67.12144,19.5,66.5,19.5Q65.92399,19.5,65.43344,18.38201Q65.07307,17.56069,64.50219,15.21247Q63.7398,12.07656,63.11125,10.81805Q61.95351,8.500012,60.00000296699,8.5L59.99999703301,9.5Q61.33517,9.500008,62.21662,11.26487Q62.79476,12.42243,63.53049,15.44871Q64.12209,17.88216,64.51771,18.7838Q65.27073,20.5,66.5,20.5Q67.80456,20.5,68.55381,18.58069Q68.94635,17.57515,69.48766,14.91741Q70.0648,12.08351,70.4977,11.02933Z" fill-rule="evenodd" fill="#409EFF" fill-opacity="1"/></g><g transform="matrix(-1,0,0,1,168,0)"><path d="M94.4977,11.02933Q95.1256,9.5,96,9.5L96,8.5Q94.4551,8.5,93.5726,10.64952Q93.10384,11.79122,92.50778,14.717839999999999Q91.9836,17.29146,91.62228,18.21704Q91.12144,19.5,90.5,19.5Q89.92399,19.5,89.43344,18.38201Q89.07307,17.56069,88.50219,15.21247Q87.7398,12.07656,87.11125,10.81805Q85.95351,8.500012,84.00000296699,8.5L83.99999703301,9.5Q85.33517,9.500008,86.21662,11.26487Q86.79476,12.42243,87.53049,15.44871Q88.12209,17.88216,88.51771,18.7838Q89.27073,20.5,90.5,20.5Q91.80456,20.5,92.55381,18.58069Q92.94635,17.57515,93.48766,14.91741Q94.0648,12.08351,94.4977,11.02933Z" fill-rule="evenodd" fill="#409EFF" fill-opacity="1"/></g></g><g transform="matrix(-1,0,0,1,92,0)"><path d="M47.604,25.451999999999998Q47.168,25.451999999999998,46.838,25.276Q46.508,25.1,46.334,24.778Q46.16,24.456,46.16,24.02Q46.16,23.592,46.338,23.256Q46.516,22.92,46.846,22.734Q47.176,22.548000000000002,47.604,22.548000000000002Q48.012,22.548000000000002,48.346000000000004,22.732Q48.68,22.916,48.862,23.252Q49.044,23.588,49.044,24.02Q49.044,24.488,48.846000000000004,24.818Q48.648,25.148,48.288,25.308Q48.384,25.496,48.492,25.752L47.9,25.752Q47.812,25.56,47.752,25.444Q47.66,25.451999999999998,47.604,25.451999999999998ZM46.792,24.02Q46.792,24.3,46.894,24.509999999999998Q46.996,24.72,47.176,24.838Q47.356,24.956,47.604,24.956Q47.848,24.956,48.025999999999996,24.838Q48.204,24.72,48.306,24.509999999999998Q48.408,24.3,48.408,24.02Q48.408,23.764,48.31,23.542Q48.212,23.32,48.03,23.176Q47.848,23.032,47.596000000000004,23.032Q47.36,23.032,47.18,23.17Q47,23.308,46.896,23.53Q46.792,23.752,46.792,24.02ZM51.1,24.608L50.204,24.608L49.992,25.4L49.292,25.4L50.104,22.6L51.204,22.6L52.016,25.4L51.312,25.4L51.1,24.608ZM50.972,24.128L50.656,22.956L50.647999999999996,22.956L50.332,24.128L50.972,24.128ZM53.016,23.096L52.980000000000004,23.096L52.980000000000004,25.4L52.344,25.4L52.344,22.6L53.492,22.6L53.872,24.604L53.88,24.644L53.888,24.604L54.268,22.6L55.416,22.6L55.416,25.4L54.78,25.4L54.78,23.096L54.748,23.096L54.268,25.4L53.492,25.4L53.016,23.096Z" fill="#000000" fill-opacity="1"/></g></g></svg>