<?xml version="1.0" standalone="no"?><!DOCTYPE svg PUBLIC "-//W3C//DTD SVG 1.1//EN" "http://www.w3.org/Graphics/SVG/1.1/DTD/svg11.dtd"><svg t="1692365216993" class="icon" viewBox="0 0 1024 1024" version="1.1" xmlns="http://www.w3.org/2000/svg" p-id="4843" xmlns:xlink="http://www.w3.org/1999/xlink" width="200" height="200"><path d="M285.824 857.888q13.568 0 21.44 6.976 7.872 6.976 7.872 19.648 0 10.496-5.44 17.152-5.44 6.656-15.296 8.576 7.424 8.192 13.184 17.024 5.76 8.832 11.008 20.224h-19.456q-6.016-12.16-11.136-20.096-5.12-7.936-13.312-16.256h-9.216v36.352h-21.12v-89.6h41.472z m-1.536 38.528q6.528 0 10.112-3.456 3.584-3.456 3.584-8.448 0-5.12-3.648-8.512-3.648-3.392-10.048-3.392h-18.816v23.808h18.816z m106.112 47.36q-4.864 2.944-11.328 4.352-6.464 1.408-12.48 1.408-20.48 0-31.04-9.728-10.56-9.728-10.56-27.264 0-17.408 9.408-26.688 9.408-9.28 25.664-9.28 16.128 0 25.536 9.28 9.408 9.28 9.408 26.688 0 1.92-0.256 5.504H344.96q2.816 16.512 21.632 16.512 13.184 0 23.808-7.808v17.024z m-14.72-40.064q-1.664-6.4-5.76-9.472-4.096-3.072-9.856-3.072-5.376 0-9.152 3.2-3.776 3.2-5.312 9.344h30.08z m87.168 41.472q-9.856 3.968-20.224 3.968-10.88 0-20.032-4.416t-14.528-12.544q-5.376-8.128-5.376-18.752 0-11.136 5.12-19.456t14.016-12.736q8.896-4.416 19.904-4.416 9.984 0 20.224 3.584v15.744q-7.808-3.328-16-3.328-10.112 0-16.768 4.8-6.656 4.8-6.656 15.808 0 6.272 3.456 10.624t8.96 6.592q5.504 2.24 11.648 2.24 4.736 0 9.024-1.344 4.288-1.344 7.232-3.776v17.408z m73.088-1.408q-4.864 2.944-11.328 4.352-6.464 1.408-12.48 1.408-20.48 0-31.04-9.728-10.56-9.728-10.56-27.264 0-17.408 9.408-26.688 9.408-9.28 25.664-9.28 16.128 0 25.536 9.28 9.408 9.28 9.408 26.688 0 1.92-0.256 5.504h-49.792q2.816 16.512 21.632 16.512 13.184 0 23.808-7.808v17.024z m-14.72-40.064q-1.664-6.4-5.76-9.472-4.096-3.072-9.856-3.072-5.376 0-9.152 3.2-3.776 3.2-5.312 9.344h30.08z m51.712-25.344v69.12h-20.48v-69.12h20.48z m-20.48-29.312h20.48v20.48h-20.48v-20.48z m29.184 29.312h20.736l16.512 56.576h0.64l16.64-56.576h20.608l-21.888 69.12h-31.36l-21.888-69.12z m145.024 65.408q-4.864 2.944-11.328 4.352-6.464 1.408-12.48 1.408-20.48 0-31.04-9.728-10.56-9.728-10.56-27.264 0-17.408 9.408-26.688 9.408-9.28 25.664-9.28 16.128 0 25.536 9.28 9.408 9.28 9.408 26.688 0 1.92-0.256 5.504h-49.792q2.816 16.512 21.632 16.512 13.184 0 23.808-7.808v17.024z m-14.72-40.064q-1.664-6.4-5.76-9.472-4.096-3.072-9.856-3.072-5.376 0-9.152 3.2-3.776 3.2-5.312 9.344h30.08z m50.048-25.344v7.424q3.328-3.584 8-5.568 4.672-1.984 9.28-1.984 3.2 0 6.016 0.896v15.744q-3.584-0.896-6.784-0.896-4.864 0-9.216 1.6-4.352 1.6-7.296 5.056v46.848h-20.48v-69.12h20.48z" fill="#000000" p-id="4844"></path><path d="M64 768v-96a64 64 0 0 1 64-64h768a64 64 0 0 1 64 64v96a64 64 0 0 1-64 64H128a64 64 0 0 1-64-64z m32 0q0 13.248 9.376 22.624T128 800h768q13.248 0 22.624-9.376T928 768v-96q0-13.248-9.376-22.624T896 640H128q-13.248 0-22.624 9.376T96 672v96z" fill="#000000" p-id="4845"></path><path d="M304 688h192v64h-192v-64zM720 720q0 3.136-0.64 6.24-0.576 3.104-1.792 6.016-1.216 2.88-2.976 5.536-1.728 2.592-3.968 4.832-2.24 2.24-4.832 3.968-2.624 1.76-5.536 2.976-2.912 1.216-6.016 1.824-3.104 0.608-6.24 0.608t-6.24-0.64q-3.104-0.576-6.016-1.792-2.88-1.216-5.536-2.976-2.592-1.728-4.832-3.968-2.24-2.24-3.968-4.832-1.76-2.624-2.976-5.536-1.216-2.912-1.824-6.016-0.608-3.104-0.608-6.24t0.64-6.24q0.576-3.104 1.792-6.016 1.216-2.88 2.976-5.536 1.728-2.592 3.968-4.832 2.24-2.24 4.832-3.968 2.624-1.76 5.536-2.976 2.912-1.216 6.016-1.824 3.104-0.608 6.24-0.608t6.24 0.64q3.104 0.576 6.016 1.792 2.88 1.216 5.536 2.976 2.592 1.728 4.832 3.968 2.24 2.24 3.968 4.832 1.76 2.624 2.976 5.536 1.216 2.912 1.824 6.016 0.608 3.104 0.608 6.24z" fill="#409EFF" p-id="4846"></path><path d="M704 544a32 32 0 0 1 32-32h32a32 32 0 0 1 32 32v64h-96v-64zM224 544a32 32 0 0 1 32-32h32a32 32 0 0 1 32 32v64H224v-64zM736 256h32v256h-32V256zM256 288h32v224H256V288z" fill="#000000" p-id="4847"></path><path d="M611.68 149.792Q669.504 80 752 80t140.32 69.792l-24.64 20.416Q819.456 112 752 112q-67.456 0-115.68 58.208l-24.64-20.416zM675.68 213.792Q706.976 176 752 176q45.024 0 76.32 37.792l-24.64 20.416Q781.984 208 752 208q-29.952 0-51.68 26.208l-24.64-20.416z" fill="#409EFF" p-id="4848"></path></svg>