<?xml version="1.0" standalone="no"?><!DOCTYPE svg PUBLIC "-//W3C//DTD SVG 1.1//EN" "http://www.w3.org/Graphics/SVG/1.1/DTD/svg11.dtd"><svg t="1694069462323" class="icon" viewBox="0 0 1024 1024" version="1.1" xmlns="http://www.w3.org/2000/svg" p-id="10403" xmlns:xlink="http://www.w3.org/1999/xlink" width="200" height="200"><path d="M220.8 895.36h-0.64l-9.344 45.44h-24.192l-20.48-69.12h20.224l12.544 51.968h0.512l12.032-51.968h18.304l11.904 51.968h0.512l12.544-51.968h20.224l-20.48 69.12h-24.192L220.8 895.36z m91.904 47.104q-9.728 0-16.96-4.608-7.232-4.608-11.136-12.672-3.904-8.064-3.904-18.816 0-10.624 3.904-18.88 3.904-8.256 11.008-12.864 7.104-4.608 16.576-4.608 4.352 0 8.768 1.6t8.256 4.416v-4.352h20.48v52.992q0 10.368 2.56 16.128h-19.2q-0.896-1.792-1.536-4.608-7.936 6.272-18.816 6.272z m-12.416-36.096q0 5.888 2.368 10.752 2.368 4.864 6.272 7.744 3.904 2.88 8.256 2.88 3.072 0 6.912-1.344t6.656-5.824v-28.672q-2.816-4.48-6.592-5.76-3.776-1.28-6.976-1.28-4.352 0-8.256 2.816t-6.272 7.744q-2.368 4.928-2.368 10.944z m56.448-34.688h20.736l16.512 56.576h0.64l16.64-56.576h20.608l-21.888 69.12h-31.36l-21.888-69.12z m145.024 65.408q-4.864 2.944-11.328 4.352-6.464 1.408-12.48 1.408-20.48 0-31.04-9.728-10.56-9.728-10.56-27.264 0-17.408 9.408-26.688 9.408-9.28 25.664-9.28 16.128 0 25.536 9.28 9.408 9.28 9.408 26.688 0 1.92-0.256 5.504H456.32q2.816 16.512 21.632 16.512 13.184 0 23.808-7.808v17.024z m-14.72-40.064q-1.664-6.4-5.76-9.472-4.096-3.072-9.856-3.072-5.376 0-9.152 3.2-3.776 3.2-5.312 9.344h30.08z m60.032 72.96q-7.808 0-15.68-1.024t-14.144-2.944v-16.768q13.696 3.072 27.392 3.072 8.704 0 13.184-3.84 4.48-3.84 4.48-10.624-7.04 4.608-16.768 4.608-9.472 0-16.64-4.608-7.168-4.608-11.008-12.736-3.84-8.128-3.84-18.752 0-10.624 3.904-18.88 3.904-8.256 11.008-12.864 7.104-4.608 16.576-4.608 8.832 0 16.768 5.888v-4.224h19.968v68.864q0 29.44-35.2 29.44z m-13.44-63.616q0 5.888 2.368 10.752 2.368 4.864 6.272 7.744 3.904 2.88 8.256 2.88 3.2 0 7.168-1.472t6.784-6.208l0.64-2.56v-23.68q-2.688-5.504-6.912-7.232-4.224-1.728-7.68-1.728-4.352 0-8.256 2.816t-6.272 7.744q-2.368 4.928-2.368 10.944z m109.568 34.56q-2.048-3.84-2.432-8.192-4.736 4.224-11.328 6.976t-12.992 2.752q-9.856 0-15.68-5.76t-5.824-14.848V871.68h20.48v46.72q0 3.712 2.496 6.08t6.592 2.368q2.688 0 7.232-1.92 4.544-1.92 7.616-4.224V871.68h20.48v55.936q0 4.224 0.512 7.104t2.048 6.208h-19.2z m51.584-69.248v69.12h-20.48v-69.12h20.48z m-20.48-29.312h20.48v20.48h-20.48v-20.48z m63.872 100.096q-9.472 0-16.64-4.544-7.168-4.544-11.008-12.736-3.84-8.192-3.84-18.688 0-10.624 3.904-18.88 3.904-8.256 11.008-12.864 7.104-4.608 16.576-4.608 4.352 0 8.768 1.536t8.256 4.48v-33.792h20.48V924.8q0 10.24 2.56 16h-19.2q-0.896-1.792-1.536-4.608-8.064 6.272-19.328 6.272z m-11.904-35.968q0 5.888 2.368 10.752 2.368 4.864 6.272 7.744 3.904 2.88 8.256 2.88 3.456 0 7.616-1.664t6.848-6.912v-25.728q-2.688-5.376-6.848-7.04-4.16-1.664-7.616-1.664-4.352 0-8.256 2.816t-6.272 7.808q-2.368 4.992-2.368 11.008z m125.056 30.592q-4.864 2.944-11.328 4.352-6.464 1.408-12.48 1.408-20.48 0-31.04-9.728-10.56-9.728-10.56-27.264 0-17.408 9.408-26.688 9.408-9.28 25.664-9.28 16.128 0 25.536 9.28 9.408 9.28 9.408 26.688 0 1.92-0.256 5.504h-49.792q2.816 16.512 21.632 16.512 13.184 0 23.808-7.808v17.024z m-14.72-40.064q-1.664-6.4-5.76-9.472-4.096-3.072-9.856-3.072-5.376 0-9.152 3.2-3.776 3.2-5.312 9.344h30.08z" fill="#000000" p-id="10404"></path><path d="M96 496h432V768l24.736 13.408 368-240-1.088-27.456q-38.624-21.088-56.576-71.36-18.944-53.024-15.104-137.856L832 288h-160q-68.928 0-186.048-46.848l-14.016 1.024-384 224L96 496zM672 320h103.136l-235.648 144H155.2l326.176-190.272Q599.168 320 672 320z m-112 418.464V488.96l255.36-156.032q0.032 71.36 17.6 120.448 16.96 47.52 50.08 74.4L560 738.464z" fill="#409EFF" p-id="10405"></path><path d="M80 464v320h480v-320h-480z m32 32h416v256h-416v-256z" fill="#000000" p-id="10406"></path></svg>