<?xml version="1.0" standalone="no"?><!DOCTYPE svg PUBLIC "-//W3C//DTD SVG 1.1//EN" "http://www.w3.org/Graphics/SVG/1.1/DTD/svg11.dtd"><svg t="1694069467221" class="icon" viewBox="0 0 1024 1024" version="1.1" xmlns="http://www.w3.org/2000/svg" p-id="10683" xmlns:xlink="http://www.w3.org/1999/xlink" width="200" height="200"><path d="M421.888 871.68v7.424q3.328-3.584 8-5.568 4.672-1.984 9.28-1.984 3.2 0 6.016 0.896v15.744q-3.584-0.896-6.784-0.896-4.864 0-9.216 1.6-4.352 1.6-7.296 5.056V940.8h-20.48v-69.12h20.48z m53.888 0v69.12h-20.48v-69.12h20.48z m-20.48-29.312h20.48v20.48h-20.48v-20.48z m55.424 29.056v8.32q4.736-4.096 10.816-6.4 6.08-2.304 12.096-2.304 9.856 0 15.68 5.76t5.824 14.976v48.768h-20.48v-45.312q0-3.712-3.072-6.08t-7.296-2.368q-2.688 0-6.72 1.792t-6.848 4.352v47.616h-20.48v-69.12h20.48z m87.68 98.56q-7.808 0-15.68-1.024t-14.144-2.944v-16.768q13.696 3.072 27.392 3.072 8.704 0 13.184-3.84 4.48-3.84 4.48-10.624-7.04 4.608-16.768 4.608-9.472 0-16.64-4.608-7.168-4.608-11.008-12.736-3.84-8.128-3.84-18.752 0-10.624 3.904-18.88 3.904-8.256 11.008-12.864 7.104-4.608 16.576-4.608 8.832 0 16.768 5.888v-4.224h19.968v68.864q0 29.44-35.2 29.44z m-13.44-63.616q0 5.888 2.368 10.752 2.368 4.864 6.272 7.744 3.904 2.88 8.256 2.88 3.2 0 7.168-1.472t6.784-6.208l0.64-2.56v-23.68q-2.688-5.504-6.912-7.232-4.224-1.728-7.68-1.728-4.352 0-8.256 2.816t-6.272 7.744q-2.368 4.928-2.368 10.944z" fill="#000000" p-id="10684"></path><path d="M128 464q0-55.328 21.376-105.888 20.64-48.8 58.304-86.432Q245.312 234.016 294.08 213.376 344.672 192 400 192h224q55.328 0 105.888 21.376 48.8 20.64 86.432 58.304 37.664 37.632 58.304 86.432Q896 408.672 896 464t-21.376 105.888q-20.64 48.8-58.304 86.432-37.632 37.664-86.432 58.304Q679.328 736 624 736h-224q-55.328 0-105.888-21.376-48.8-20.64-86.432-58.304-37.664-37.632-58.304-86.432Q128 519.328 128 464z m32 0q0 99.424 70.304 169.696Q300.576 704 400 704h224q99.424 0 169.696-70.304Q864 563.424 864 464q0-99.424-70.304-169.696Q723.424 224 624 224h-224Q300.576 224 230.304 294.304 160 364.576 160 464z" fill="#000000" p-id="10685"></path><path d="M896 144H128v-32h768v32zM896 816H128v-32h768v32z" fill="#409EFF" p-id="10686"></path></svg>