<?xml version="1.0" standalone="no"?><!DOCTYPE svg PUBLIC "-//W3C//DTD SVG 1.1//EN" "http://www.w3.org/Graphics/SVG/1.1/DTD/svg11.dtd"><svg t="1694069459308" class="icon" viewBox="0 0 1024 1024" version="1.1" xmlns="http://www.w3.org/2000/svg" p-id="10264" xmlns:xlink="http://www.w3.org/1999/xlink" width="200" height="200"><path d="M358.592 942.336q-7.808 0.384-15.808-1.216t-13.888-4.928v-18.432q5.248 3.84 12.608 6.336 7.36 2.496 12.992 2.112 3.968-0.256 5.76-1.728 1.792-1.472 2.048-3.008 0.64-3.968-1.92-6.016t-9.6-3.968q-7.808-2.176-12.416-5.056-4.608-2.88-6.976-6.528-2.368-3.648-2.368-9.28 0-5.888 3.072-10.56 3.072-4.672 9.728-7.36 6.656-2.688 14.336-2.688 5.76 0 11.648 1.088t9.856 2.88v16.512q-4.096-2.048-9.664-3.648t-9.664-1.6q-8.704 0-9.472 4.608-0.384 2.688 2.496 4.736 2.88 2.048 8.256 3.712 7.68 2.432 12.608 4.992 4.928 2.56 7.744 6.656t2.816 10.496q0 9.472-6.784 15.424t-17.408 6.464z m71.04 0.128q-11.264 0-19.328-6.272-0.64 2.816-1.536 4.608h-19.2q2.56-5.76 2.56-16v-82.432h20.48v33.792q3.84-2.944 8.256-4.48 4.416-1.536 8.768-1.536 9.472 0 16.576 4.608 7.104 4.608 11.008 12.864 3.904 8.256 3.904 18.88 0 10.496-3.84 18.688-3.84 8.192-11.008 12.736-7.168 4.544-16.64 4.544z m-19.2-22.784q2.688 5.12 6.784 6.656 4.096 1.536 7.424 1.536 4.352 0 8.256-2.88t6.272-7.744q2.368-4.864 2.368-10.752 0-6.016-2.368-11.008-2.368-4.992-6.272-7.808-3.904-2.816-8.256-2.816-3.328 0-7.424 1.6t-6.784 6.592v26.624z m123.776 17.408q-4.864 2.944-11.328 4.352-6.464 1.408-12.48 1.408-20.48 0-31.04-9.728-10.56-9.728-10.56-27.264 0-17.408 9.408-26.688 9.408-9.28 25.664-9.28 16.128 0 25.536 9.28 9.408 9.28 9.408 26.688 0 1.92-0.256 5.504h-49.792q2.816 16.512 21.632 16.512 13.184 0 23.808-7.808v17.024z m-14.72-40.064q-1.664-6.4-5.76-9.472-4.096-3.072-9.856-3.072-5.376 0-9.152 3.2-3.776 3.2-5.312 9.344h30.08z m50.048-25.6v8.32q4.736-4.096 10.816-6.4 6.08-2.304 12.096-2.304 9.856 0 15.68 5.76t5.824 14.976v48.768h-20.48v-45.312q0-3.712-3.072-6.08t-7.296-2.368q-2.688 0-6.72 1.792t-6.848 4.352v47.616h-20.48v-69.12h20.48z m86.144 71.04q-9.472 0-16.64-4.544-7.168-4.544-11.008-12.736-3.84-8.192-3.84-18.688 0-10.624 3.904-18.88 3.904-8.256 11.008-12.864 7.104-4.608 16.576-4.608 4.352 0 8.768 1.536t8.256 4.48v-33.792h20.48V924.8q0 10.24 2.56 16h-19.2q-0.896-1.792-1.536-4.608-8.064 6.272-19.328 6.272z m-11.904-35.968q0 5.888 2.368 10.752 2.368 4.864 6.272 7.744 3.904 2.88 8.256 2.88 3.456 0 7.616-1.664t6.848-6.912v-25.728q-2.688-5.376-6.848-7.04-4.16-1.664-7.616-1.664-4.352 0-8.256 2.816t-6.272 7.808q-2.368 4.992-2.368 11.008z" fill="#000000" p-id="10265"></path><path d="M128 800h25.76q80.416 0 131.84-17.92Q496 708.96 496 496q0-253.184 265.76-298.784Q792.16 192 835.456 192H896v32h-60.544q-40.576 0-68.288 4.768Q528 269.76 528 496q0 235.712-231.872 316.32Q239.584 832 153.728 832H128v-32z" fill="#409EFF" p-id="10266"></path></svg>