<?xml version="1.0" standalone="no"?><!DOCTYPE svg PUBLIC "-//W3C//DTD SVG 1.1//EN" "http://www.w3.org/Graphics/SVG/1.1/DTD/svg11.dtd"><svg t="1692365231637" class="icon" viewBox="0 0 1024 1024" version="1.1" xmlns="http://www.w3.org/2000/svg" p-id="5151" xmlns:xlink="http://www.w3.org/1999/xlink" width="200" height="200"><path d="M108.16 948.896q-1.408 0.256-4.352 0.256-17.28 0-30.72-7.424v-18.816q7.04 4.352 15.488 7.296t15.36 2.944q5.632 0 8.896-2.816 3.264-2.816 3.264-6.4 0-5.024-3.84-9.184-3.84-4.16-12.288-6.72-9.728-3.104-15.168-6.24-5.44-3.136-8.192-7.872t-2.752-12.064q0-6.912 3.328-12.608 3.328-5.728 9.792-9.184 6.464-3.456 15.424-3.456 1.152-0.384 3.584-0.384 6.656 0 13.376 1.344t11.328 3.392v16.512q-4.992-2.176-11.648-3.584t-11.776-1.408q-6.528 0-9.984 2.304-3.456 2.304-3.456 6.4 0 3.744 3.712 6.72 3.712 2.944 11.52 5.632 9.344 2.688 15.232 6.08 5.888 3.424 9.216 8.896 3.328 5.44 3.328 13.664 0 7.84-3.584 13.888-3.584 6.016-10.048 9.44-6.464 3.392-15.04 3.392z m61.312-70.528v69.12h-20.48v-69.12h20.48z m-20.48-29.312h20.48v20.48h-20.48v-20.48zM214.4 976.64q-7.808 0-15.68-1.024t-14.144-2.944v-16.768q13.696 3.072 27.392 3.072 8.704 0 13.184-3.84 4.48-3.84 4.48-10.624-7.04 4.608-16.768 4.608-9.472 0-16.64-4.608-7.168-4.608-11.008-12.736-3.84-8.128-3.84-18.752 0-10.624 3.904-18.88 3.904-8.256 11.008-12.864 7.104-4.608 16.576-4.608 8.832 0 16.768 5.888v-4.224H249.6V947.2q0 29.44-35.2 29.44z m-13.44-63.616q0 5.888 2.368 10.752 2.368 4.864 6.272 7.744 3.904 2.88 8.256 2.88 3.2 0 7.168-1.472t6.784-6.208l0.64-2.56v-23.68q-2.688-5.504-6.912-7.232-4.224-1.728-7.68-1.728-4.352 0-8.256 2.816t-6.272 7.744q-2.368 4.928-2.368 10.944z m81.92-34.944v8.32q4.736-4.096 10.816-6.4 6.08-2.304 12.096-2.304 9.856 0 15.68 5.76t5.824 14.976V947.2h-20.48v-45.312q0-3.712-3.072-6.08t-7.296-2.368q-2.688 0-6.72 1.792t-6.848 4.352V947.2H262.4v-69.12h20.48z m86.656 71.04q-9.728 0-16.96-4.608-7.232-4.608-11.136-12.672-3.904-8.064-3.904-18.816 0-10.624 3.904-18.88 3.904-8.256 11.008-12.864 7.104-4.608 16.576-4.608 4.352 0 8.768 1.6t8.256 4.416v-4.352h20.48v52.992q0 10.368 2.56 16.128h-19.2q-0.896-1.792-1.536-4.608-7.936 6.272-18.816 6.272z m-12.416-36.096q0 5.888 2.368 10.752 2.368 4.864 6.272 7.744 3.904 2.88 8.256 2.88 3.072 0 6.912-1.344t6.656-5.824v-28.672q-2.816-4.48-6.592-5.76-3.776-1.28-6.976-1.28-4.352 0-8.256 2.816t-6.272 7.744q-2.368 4.928-2.368 10.944z m85.504 35.456q-11.52 0-17.408-6.464-5.888-6.464-5.888-19.008v-73.984h20.48v68.864q0 5.12 0.768 7.808 0.768 2.688 2.56 4.096 1.408 1.152 3.136 1.472 1.728 0.32 6.08 0.32v16.896h-9.728z m45.184 0.512q-7.808 0.384-15.808-1.216t-13.888-4.928v-18.432q5.248 3.84 12.608 6.336 7.36 2.496 12.992 2.112 3.968-0.256 5.76-1.728 1.792-1.472 2.048-3.008 0.64-3.968-1.92-6.016t-9.6-3.968q-7.808-2.176-12.416-5.056-4.608-2.88-6.976-6.528-2.368-3.648-2.368-9.28 0-5.888 3.072-10.56 3.072-4.672 9.728-7.36 6.656-2.688 14.336-2.688 5.76 0 11.648 1.088t9.856 2.88v16.512q-4.096-2.048-9.664-3.648t-9.664-1.6q-8.704 0-9.472 4.608-0.384 2.688 2.496 4.736 2.88 2.048 8.256 3.712 7.68 2.432 12.608 4.992 4.928 2.56 7.744 6.656t2.816 10.496q0 9.472-6.784 15.424t-17.408 6.464z m110.976-91.136q14.08 0 22.208 7.552 8.128 7.552 8.128 21.504 0 13.824-8.128 21.376-8.128 7.552-22.208 7.552h-21.76v31.616h-21.12v-89.6h42.88z m-1.92 41.088q6.4 0 9.856-3.456 3.456-3.456 3.456-8.576 0-5.248-3.456-8.704-3.456-3.456-9.856-3.456h-19.84v24.192h19.84z m76.288 50.176q-10.88 0-19.136-4.48-8.256-4.48-12.736-12.736t-4.48-19.52q0-17.28 9.728-26.496 9.728-9.216 26.624-9.216 16.768 0 26.496 9.216 9.728 9.216 9.728 26.496 0 11.264-4.48 19.52t-12.672 12.736q-8.192 4.48-19.072 4.48z m-16.128-36.736q0 9.856 4.48 15.872t11.648 6.016q7.168 0 11.584-6.016 4.416-6.016 4.416-15.872 0-10.24-4.288-15.552-4.288-5.312-11.712-5.312-7.424 0-11.776 5.312-4.352 5.312-4.352 15.552z m112.768-10.368h-0.64l-9.344 45.44h-24.192l-20.48-69.12h20.224l12.544 51.968h0.512l12.032-51.968h18.304l11.904 51.968h0.512l12.544-51.968h20.224l-20.48 69.12h-24.192l-9.472-45.44z m125.312 41.728q-4.864 2.944-11.328 4.352-6.464 1.408-12.48 1.408-20.48 0-31.04-9.728-10.56-9.728-10.56-27.264 0-17.408 9.408-26.688 9.408-9.28 25.664-9.28 16.128 0 25.536 9.28 9.408 9.28 9.408 26.688 0 1.92-0.256 5.504h-49.792q2.816 16.512 21.632 16.512 13.184 0 23.808-7.808v17.024z m-14.72-40.064q-1.664-6.4-5.76-9.472-4.096-3.072-9.856-3.072-5.376 0-9.152 3.2-3.776 3.2-5.312 9.344h30.08z m50.048-25.344v7.424q3.328-3.584 8-5.568 4.672-1.984 9.28-1.984 3.2 0 6.016 0.896v15.744q-3.584-0.896-6.784-0.896-4.864 0-9.216 1.6-4.352 1.6-7.296 5.056v46.848h-20.48v-69.12h20.48z" fill="#000000" p-id="5152"></path><path d="M64 768v-256a64 64 0 0 1 64-64h768a64 64 0 0 1 64 64v256a64 64 0 0 1-64 64H128a64 64 0 0 1-64-64z m32 0q0 13.248 9.376 22.624T128 800h768q13.248 0 22.624-9.376T928 768v-256q0-13.248-9.376-22.624T896 480H128q-13.248 0-22.624 9.376T96 512v256z" fill="#000000" p-id="5153"></path><path d="M864 752H483.648l-25.984-99.264-74.464 113.664-112.544-192.96-97.6 136.96-26.08-18.592 126.4-177.28 111.424 191.04 85.536-130.656 38.016 145.088H864v32z" fill="#409EFF" p-id="5154"></path><path d="M160 384a32 32 0 0 1 32-32h32a32 32 0 0 1 32 32v64H160v-64zM192 96h32v256H192V96z" fill="#000000" p-id="5155"></path><path d="M627.68 341.792Q685.504 272 768 272t140.32 69.792l-24.64 20.416Q835.456 304 768 304q-67.456 0-115.68 58.208l-24.64-20.416zM691.68 405.792Q722.976 368 768 368q45.024 0 76.32 37.792l-24.64 20.416Q797.984 400 768 400q-29.952 0-51.68 26.208l-24.64-20.416z" fill="#409EFF" p-id="5156"></path></svg>