<svg xmlns="http://www.w3.org/2000/svg" xmlns:xlink="http://www.w3.org/1999/xlink" fill="none" version="1.1" width="32" height="32" viewBox="0 0 32 32"><defs><clipPath id="master_svg0_33_857"><rect x="32" y="0" width="32" height="32" rx="0"/></clipPath></defs><g transform="matrix(-1,0,0,1,64,0)" clip-path="url(#master_svg0_33_857)"><rect x="32" y="0" width="32" height="32" rx="0" fill="#FFFFFF" fill-opacity="1"/><g transform="matrix(-1,0,0,1,118,0)"><path d="M60.408,28.444Q60.364,28.451999999999998,60.272,28.451999999999998Q59.732001,28.451999999999998,59.312001,28.22L59.312001,27.632Q59.532001,27.768,59.796001,27.86Q60.06,27.951999999999998,60.276,27.951999999999998Q60.452,27.951999999999998,60.554,27.86387Q60.656,27.77569,60.656,27.6635Q60.656,27.50725,60.536,27.37706Q60.416,27.24681,60.152,27.16669Q59.848001,27.0705,59.678001,26.97238Q59.508001,26.87419,59.422001,26.72594Q59.336001,26.57769,59.336001,26.34931Q59.336001,26.13294,59.440001,25.954688Q59.544001,25.776375,59.746001,25.668188Q59.948001,25.56,60.228,25.56Q60.264,25.548000000000002,60.34,25.548000000000002Q60.548,25.548000000000002,60.758,25.59Q60.968,25.632,61.112,25.696L61.112,26.212Q60.956,26.144,60.748,26.1Q60.54,26.056,60.38,26.056Q60.176,26.056,60.068,26.12825Q59.960001,26.200499999999998,59.960001,26.32894Q59.960001,26.44531,60.076,26.53763Q60.192,26.62994,60.436,26.71419Q60.728,26.7985,60.912,26.90488Q61.096000000000004,27.01119,61.2,27.18181Q61.304,27.35238,61.304,27.609189999999998Q61.304,27.854,61.192,28.04269Q61.08,28.23131,60.878,28.33769Q60.676,28.444,60.408,28.444ZM62.952,28.451999999999998Q62.82,28.872,62.492,29.08Q62.164,29.296,61.52,29.312L61.52,28.796Q61.792,28.796,61.992,28.736Q62.176,28.676000000000002,62.26,28.576Q62.348,28.476,62.392,28.316L62.444,28.132L62.092,28.132L61.312,26.24L61.964,26.24L62.548,27.756L62.972,26.24L63.636,26.24L62.952,28.451999999999998ZM64.356,26.232L64.356,26.492Q64.504,26.364,64.694,26.292Q64.884,26.22,65.072,26.22Q65.38,26.22,65.562,26.4Q65.744,26.58,65.744,26.868L65.744,28.392L65.104,28.392L65.104,26.976Q65.104,26.86,65.008,26.786Q64.912,26.712,64.78,26.712Q64.696,26.712,64.57,26.768Q64.444,26.824,64.356,26.904L64.356,28.392L63.716,28.392L63.716,26.232L64.356,26.232ZM67.824,28.328Q67.516,28.451999999999998,67.19200000000001,28.451999999999998Q66.852,28.451999999999998,66.566,28.314Q66.28,28.176000000000002,66.112,27.922Q65.944,27.668,65.944,27.336Q65.944,26.988,66.104,26.728Q66.264,26.468,66.542,26.33Q66.82,26.192,67.164,26.192Q67.476,26.192,67.79599999999999,26.304L67.79599999999999,26.796Q67.55199999999999,26.692,67.29599999999999,26.692Q66.98,26.692,66.772,26.842Q66.564,26.992,66.564,27.336Q66.564,27.532,66.672,27.668Q66.78,27.804,66.952,27.874Q67.124,27.944,67.316,27.944Q67.464,27.944,67.598,27.902Q67.732,27.86,67.824,27.784L67.824,28.328ZM68.80799999999999,27.744L68.80799999999999,28.4L68.152,28.4L68.152,27.744L68.80799999999999,27.744ZM69.26,25.6L71.116,25.6L71.116,26.14L69.92,26.14L69.92,26.748L70.952,26.748L70.952,27.252L69.92,27.252L69.92,28.4L69.26,28.4L69.26,25.6ZM71.956,26.24L71.956,26.472Q72.06,26.36,72.206,26.298000000000002Q72.352,26.236,72.496,26.236Q72.596,26.236,72.684,26.264L72.684,26.756Q72.572,26.728,72.472,26.728Q72.32,26.728,72.184,26.778Q72.048,26.828,71.956,26.936L71.956,28.4L71.316,28.4L71.316,26.24L71.956,26.24ZM73.748,28.451999999999998Q73.444,28.451999999999998,73.218,28.308Q72.992,28.164,72.87,27.912Q72.748,27.66,72.748,27.323999999999998Q72.748,26.992,72.87,26.734Q72.992,26.476,73.214,26.332Q73.436,26.188,73.732,26.188Q73.868,26.188,74.006,26.238Q74.144,26.288,74.264,26.376L74.264,26.24L74.904,26.24L74.904,27.896Q74.904,28.22,74.984,28.4L74.384,28.4Q74.356,28.344,74.336,28.256Q74.088,28.451999999999998,73.748,28.451999999999998ZM73.36,27.323999999999998Q73.36,27.508,73.434,27.66Q73.508,27.812,73.63,27.902Q73.752,27.992,73.888,27.992Q73.984,27.992,74.104,27.95Q74.224,27.908,74.312,27.768L74.312,26.872Q74.224,26.732,74.106,26.692Q73.988,26.652,73.888,26.652Q73.752,26.652,73.63,26.74Q73.508,26.828,73.434,26.982Q73.36,27.136,73.36,27.323999999999998ZM75.824,26.236L75.824,26.464Q75.968,26.348,76.144,26.284Q76.32,26.22,76.5,26.22Q76.68,26.22,76.812,26.286Q76.944,26.352,77.02,26.468Q77.168,26.348,77.344,26.284Q77.52,26.22,77.7,26.22Q78.004,26.22,78.168,26.4Q78.332,26.58,78.332,26.868L78.332,28.4L77.69200000000001,28.4L77.69200000000001,26.976Q77.69200000000001,26.86,77.614,26.786Q77.536,26.712,77.408,26.712Q77.352,26.712,77.276,26.736Q77.2,26.76,77.128,26.8Q77.128,26.824,77.128,26.868L77.128,28.4L76.492,28.4L76.492,26.976Q76.492,26.86,76.414,26.786Q76.336,26.712,76.208,26.712Q76.132,26.712,76.02,26.756Q75.908,26.8,75.824,26.872L75.824,28.4L75.184,28.4L75.184,26.236L75.824,26.236ZM80.576,28.284Q80.424,28.376,80.22200000000001,28.42Q80.02,28.464,79.832,28.464Q79.19200000000001,28.464,78.862,28.16Q78.532,27.856,78.532,27.308Q78.532,26.764,78.826,26.474Q79.12,26.184,79.628,26.184Q80.132,26.184,80.426,26.474Q80.72,26.764,80.72,27.308Q80.72,27.368,80.712,27.48L79.156,27.48Q79.244,27.996,79.832,27.996Q80.244,27.996,80.576,27.752L80.576,28.284ZM80.116,27.032Q80.064,26.832,79.936,26.736Q79.80799999999999,26.64,79.628,26.64Q79.46000000000001,26.64,79.342,26.74Q79.224,26.84,79.176,27.032L80.116,27.032Z" fill="#000000" fill-opacity="1"/></g><g transform="matrix(-1,0,0,1,111.092529296875,0)"><path d="M66.5851646484375,14.194669335937501L71.54136464843751,14.1946493359375L71.54136464843751,13.1946493359375L66.1946646484375,13.1946693359375Q66.1109646484375,13.1946693359375,66.0318646484375,13.2218993359375Q65.9527646484375,13.2491293359375,65.8868646484375,13.3006093359375Q65.8209646484375,13.352099335937499,65.7753646484375,13.422239335937501Q65.7297646484375,13.4923793359375,65.70956464843749,13.5735393359375L65.1724646484375,15.7241893359375L64.1266446484375,10.0993923359375Q64.1084646484375,10.0016113359375,64.0542546484375,9.9182313359375Q64.0000346484375,9.8348513359375,63.9180446484375,9.7785653359375Q63.8360446484375,9.7222803359375,63.7387546484375,9.701657335937501Q63.6414546484375,9.6810353359375,63.5436746484375,9.6992153359375Q63.4705846484375,9.7128043359375,63.4046146484375,9.7470673359375Q63.3386446484375,9.7813313359375,63.2854946484375,9.8333053359375Q63.2323446484375,9.8852793359375,63.1966146484375,9.9504683359375Q63.1608846484375,10.0156563359375,63.1456646484375,10.0884203359375L62.5031746484375,13.1600093359375L62.2890946484375,12.2644693359375Q62.2659746484375,12.167739335937501,62.2075946484375,12.087219335937501Q62.149204648437504,12.0066993359375,62.0644646484375,11.9546493359375Q61.9797146484375,11.9025993359375,61.8814946484375,11.8869493359375Q61.7832746484375,11.8712993359375,61.6865446484375,11.8944193359375Q61.6182246484375,11.9107493359375,61.5570546484375,11.9452793359375Q61.4958746484375,11.9797993359375,61.4465846484375,12.0298493359375Q61.3972846484375,12.079899335937501,61.3636846484375,12.1415893359375Q61.3300946484375,12.2032793359375,61.3147946484375,12.2718393359375L60.6898646484375,15.072769335937501L60.4701546484375,9.2958175359375Q60.4663746484375,9.1964333359375,60.4248546484375,9.1060603359375Q60.3833346484375,9.0156883359375,60.3103846484375,8.9480853359375Q60.2374346484375,8.8804823359375,60.1441646484375,8.8459413359375Q60.0509046484375,8.8114013359375,59.9515146484375,8.8151803359375Q59.8753746484375,8.8180763359375,59.8035546484375,8.8435203359375Q59.7317346484375,8.8689643359375,59.6707546484375,8.9146473359375Q59.6097646484375,8.9603293359375,59.5651646484375,9.0221033359375Q59.520554648437496,9.0838773359375,59.4963746484375,9.1561333359375L58.1447846484375,13.1946693359375L55.5462695643875,13.1946493359375L55.5462597324875,14.1946493359375L58.5046946484375,14.194669335937501Q58.5833246484375,14.1946793359375,58.6581546484375,14.1705393359375Q58.7329946484375,14.1464093359375,58.7968046484375,14.1004693359375Q58.8606246484375,14.0545393359375,58.9072646484375,13.9912293359375Q58.9538946484375,13.9279193359375,58.9788546484375,13.853359335937501L59.5750146484375,12.072019335937501L59.8373346484375,18.9694993359375Q59.8404846484375,19.052269335937503,59.8701546484375,19.1295993359375Q59.8998146484375,19.206929335937502,59.9528346484375,19.2705593359375Q60.0058546484375,19.334219335937497,60.0765546484375,19.3773193359375Q60.1472646484375,19.420419335937503,60.2280946484375,19.4385193359375Q60.3251646484375,19.4601193359375,60.4231346484375,19.4430193359375Q60.5211046484375,19.4259193359375,60.6050546484375,19.3725193359375Q60.6890046484375,19.3192193359375,60.7461646484375,19.2378393359375Q60.8033246484375,19.156449335937502,60.824974648437504,19.0593793359375L61.8195946484375,14.6015193359375L62.0494046484375,15.5628693359375Q62.0659346484375,15.6320093359375,62.1010846484375,15.6938093359375Q62.1362346484375,15.7556093359375,62.187214648437504,15.8051593359375Q62.2381946484375,15.8547193359375,62.3009746484375,15.8880893359375Q62.3637446484375,15.9214693359375,62.4333346484375,15.9360293359375Q62.5306846484375,15.9563893359375,62.6284146484375,15.9379493359375Q62.7261446484375,15.9194993359375,62.8093846484375,15.8650693359375Q62.8926146484375,15.810629335937499,62.9486846484375,15.7284793359375Q63.0047546484375,15.646339335937501,63.0251146484375,15.548989335937499L63.6062146484375,12.7708693359375L64.6093146484375,18.1659293359375Q64.6224546484375,18.2365993359375,64.6549746484375,18.3006993359375Q64.6874846484375,18.3648093359375,64.73674464843751,18.417159335937498Q64.7859946484375,18.469509335937502,64.8480046484375,18.5058593359375Q64.9100146484375,18.5422193359375,64.9797546484375,18.5596293359375Q65.0275346484375,18.5715693359375,65.0767246484375,18.5739493359375Q65.1259046484375,18.5763293359375,65.1746146484375,18.5690593359375Q65.2233246484375,18.5617993359375,65.2696746484375,18.545179335937497Q65.3160346484375,18.5285593359375,65.3582546484375,18.5032093359375Q65.4004746484375,18.477859335937502,65.4369446484375,18.444759335937498Q65.4734046484375,18.4116593359375,65.5027146484375,18.372089335937503Q65.5320146484375,18.3325093359375,65.5530646484375,18.2879793359375Q65.5740646484375,18.2434493359375,65.5859646484375,18.195669335937502L66.5851646484375,14.194669335937501Z" fill-rule="evenodd" fill="#409EFF" fill-opacity="1"/></g><g transform="matrix(-1,0,0,1,119.794921875,0)"></g><g transform="matrix(-0.8453143239021301,0.5342692732810974,0.5342692732810974,0.8453143239021301,101.48908901274262,-29.383883732385584)"><path d="M57.81070396875,8.983017421875001L59.16661296875,10.291767421875L59.86109296875,9.572267421875L56.73779296875,6.557577421875L56.73779296875,7.735107421875Q56.73779296875,10.054297421874999,57.63394696875,12.173047421875001Q58.49937296875,14.219137421875,60.07707296875,15.796837421875Q61.65478296875,17.374537421875,63.70087296875,18.239907421875Q65.81961296875,19.136107421875,68.13879296875,19.136107421875Q70.45799296875,19.136107421875,72.57679296875,18.239907421875Q74.62289296875,17.374537421875,76.20059296875,15.796837421875Q77.77829296875001,14.219127421875001,78.64369296875,12.173047421875001Q79.08239296875,11.135787421875,79.30819296875,10.032277421875L78.32849296875,9.831797421875Q78.12259296875,10.837857421875,77.72269296875,11.783487421875Q76.93319296875,13.649937421875,75.49349296875,15.089727421875Q74.05369296875,16.529517421875,72.18719296875,17.318947421875002Q70.25519296875,18.136107421875,68.13879296875,18.136107421875Q66.02240296875,18.136107421875,64.09042296875,17.318947421875002Q62.22396296875,16.529507421875,60.78418296875,15.089727421875Q59.34439296875,13.649937421875,58.55495296875,11.783487421875Q57.98188196875,10.428607421875,57.81070396875,8.983017421875001Z" fill-rule="evenodd" fill="#000000" fill-opacity="1"/></g><g transform="matrix(0.8453143239021301,-0.5342692732810974,-0.5342692732810974,-0.8453143239021301,16.324701754332636,56.38393601779535)"><path d="M39.56851646875,20.512802578125L40.92442546875,21.821552578125L41.61890546875,21.102052578125L38.49560546875,18.087362578125L38.49560546875,19.264892578125Q38.49560546875,21.584082578125,39.39175946875,23.702832578125Q40.25718546875,25.748922578125,41.83488546875,27.326622578125Q43.41259546875,28.904322578125,45.45868546875,29.769692578125Q47.57742546875,30.665892578125,49.896605468749996,30.665892578125Q52.21580546875,30.665892578125,54.33460546875,29.769692578125Q56.38070546875,28.904322578125,57.95840546875,27.326622578125Q59.53610546875,25.748912578125,60.40150546875,23.702832578125Q60.84020546875,22.665572578125,61.06600546875,21.562062578125L60.08630546875,21.361582578125Q59.88040546875,22.367642578125,59.480505468749996,23.313272578125Q58.69100546875,25.179722578125002,57.251305468750004,26.619512578125Q55.81150546875,28.059302578125,53.94500546875,28.848732578125002Q52.01300546875,29.665892578125,49.896605468749996,29.665892578125Q47.78021546875,29.665892578125,45.84823546875,28.848732578125002Q43.98177546875,28.059292578125,42.54199546875,26.619512578125Q41.10220546875,25.179722578125002,40.31276546875,23.313272578125Q39.73969446875,21.958392578125,39.56851646875,20.512802578125Z" fill-rule="evenodd" fill="#000000" fill-opacity="1"/></g></g></svg>