<?xml version="1.0" standalone="no"?><!DOCTYPE svg PUBLIC "-//W3C//DTD SVG 1.1//EN" "http://www.w3.org/Graphics/SVG/1.1/DTD/svg11.dtd"><svg t="1692365238085" class="icon" viewBox="0 0 1024 1024" version="1.1" xmlns="http://www.w3.org/2000/svg" p-id="5305" xmlns:xlink="http://www.w3.org/1999/xlink" width="200" height="200"><path d="M156.224 857.888h67.328v17.28h-23.04v72.32h-21.248v-72.32h-23.04v-17.28z m96.384 20.48v7.424q3.328-3.584 8-5.568 4.672-1.984 9.28-1.984 3.2 0 6.016 0.896v15.744q-3.584-0.896-6.784-0.896-4.864 0-9.216 1.6-4.352 1.6-7.296 5.056v46.848h-20.48v-69.12h20.48z m61.184 70.784q-9.728 0-16.96-4.608-7.232-4.608-11.136-12.672-3.904-8.064-3.904-18.816 0-10.624 3.904-18.88 3.904-8.256 11.008-12.864 7.104-4.608 16.576-4.608 4.352 0 8.768 1.6t8.256 4.416v-4.352h20.48v52.992q0 10.368 2.56 16.128h-19.2q-0.896-1.792-1.536-4.608-7.936 6.272-18.816 6.272z m-12.416-36.096q0 5.888 2.368 10.752 2.368 4.864 6.272 7.744 3.904 2.88 8.256 2.88 3.072 0 6.912-1.344t6.656-5.824v-28.672q-2.816-4.48-6.592-5.76-3.776-1.28-6.976-1.28-4.352 0-8.256 2.816t-6.272 7.744q-2.368 4.928-2.368 10.944z m82.688-34.944v8.32q4.736-4.096 10.816-6.4 6.08-2.304 12.096-2.304 9.856 0 15.68 5.76t5.824 14.976V947.2h-20.48v-45.312q0-3.712-3.072-6.08t-7.296-2.368q-2.688 0-6.72 1.792t-6.848 4.352V947.2h-20.48v-69.12h20.48z m84.992 70.912q-7.808 0.384-15.808-1.216t-13.888-4.928v-18.432q5.248 3.84 12.608 6.336 7.36 2.496 12.992 2.112 3.968-0.256 5.76-1.728 1.792-1.472 2.048-3.008 0.64-3.968-1.92-6.016t-9.6-3.968q-7.808-2.176-12.416-5.056-4.608-2.88-6.976-6.528-2.368-3.648-2.368-9.28 0-5.888 3.072-10.56 3.072-4.672 9.728-7.36 6.656-2.688 14.336-2.688 5.76 0 11.648 1.088t9.856 2.88v16.512q-4.096-2.048-9.664-3.648t-9.664-1.6q-8.704 0-9.472 4.608-0.384 2.688 2.496 4.736 2.88 2.048 8.256 3.712 7.68 2.432 12.608 4.992 4.928 2.56 7.744 6.656t2.816 10.496q0 9.472-6.784 15.424t-17.408 6.464z m54.016-70.784v7.296q4.608-3.712 10.24-5.76 5.632-2.048 11.392-2.048t9.984 2.112q4.224 2.112 6.656 5.824 4.736-3.84 10.368-5.888 5.632-2.048 11.392-2.048 9.728 0 14.976 5.76 5.248 5.76 5.248 14.976v49.024h-20.48v-45.568q0-3.712-2.496-6.08t-6.592-2.368q-1.792 0-4.224 0.768-2.432 0.768-4.736 2.048v51.2h-20.352v-45.568q0-3.712-2.496-6.08t-6.592-2.368q-2.432 0-6.016 1.408t-6.272 3.712v48.896h-20.48v-69.248h20.48z m115.2 0.128v69.12h-20.48v-69.12h20.48z m-20.48-29.312h20.48v20.48h-20.48v-20.48z m40.32 29.312v-19.712h19.2v19.712h13.312v15.616h-13.312v29.696q0 3.712 0.576 5.632 0.576 1.92 2.112 2.624 1.536 0.704 4.48 0.704 1.92 0 3.264-0.128 1.344-0.128 2.368-0.384v15.744q-5.376 0.64-9.984 0.64-8.832 0-13.184-1.792-4.352-1.792-6.592-6.208-2.24-4.416-2.24-12.608v-33.92h-9.984v-15.616h9.984z m46.848 0v-19.712h19.2v19.712h13.312v15.616h-13.312v29.696q0 3.712 0.576 5.632 0.576 1.92 2.112 2.624 1.536 0.704 4.48 0.704 1.92 0 3.264-0.128 1.344-0.128 2.368-0.384v15.744q-5.376 0.64-9.984 0.64-8.832 0-13.184-1.792-4.352-1.792-6.592-6.208-2.24-4.416-2.24-12.608v-33.92h-9.984v-15.616h9.984z m104.32 65.408q-4.864 2.944-11.328 4.352-6.464 1.408-12.48 1.408-20.48 0-31.04-9.728-10.56-9.728-10.56-27.264 0-17.408 9.408-26.688 9.408-9.28 25.664-9.28 16.128 0 25.536 9.28 9.408 9.28 9.408 26.688 0 1.92-0.256 5.504H763.84q2.816 16.512 21.632 16.512 13.184 0 23.808-7.808v17.024z m-14.72-40.064q-1.664-6.4-5.76-9.472-4.096-3.072-9.856-3.072-5.376 0-9.152 3.2-3.776 3.2-5.312 9.344h30.08z m50.048-25.344v7.424q3.328-3.584 8-5.568 4.672-1.984 9.28-1.984 3.2 0 6.016 0.896v15.744q-3.584-0.896-6.784-0.896-4.864 0-9.216 1.6-4.352 1.6-7.296 5.056v46.848h-20.48v-69.12h20.48z" fill="#000000" p-id="5306"></path><path d="M820.992 235.072q-60.48-57.344-136.96-88.96-74.08-30.656-154.496-33.76-80.16-3.136-156.224 21.472-78.08 25.28-142.208 76.736-14.528 11.648-28.096 24.512l-22.016-23.232q14.528-13.76 30.08-26.24 68.704-55.136 152.384-82.24 81.472-26.336 167.328-23.008 86.144 3.36 165.44 36.16 81.984 33.92 146.784 95.328l-22.016 23.232z" fill="#409EFF" p-id="5307"></path><path d="M276.672 321.472q47.872-47.872 110.112-73.088Q446.88 224 512 224t125.216 24.384q62.24 25.216 110.08 73.088l-22.624 22.624q-43.264-43.264-99.488-66.08Q570.88 256 512 256q-58.88 0-113.184 22.016-56.224 22.816-99.52 66.08l-22.624-22.624zM372.672 425.696Q430.4 368 512 368t139.328 57.696l-22.656 22.624Q580.352 400 512 400t-116.672 48.32l-22.656-22.624z" fill="#409EFF" p-id="5308"></path><path d="M552 520q0 1.952-0.192 3.936-0.192 1.92-0.576 3.84-0.384 1.952-0.96 3.84t-1.312 3.68q-0.768 1.824-1.696 3.552-0.928 1.728-2.016 3.36-1.088 1.664-2.336 3.168-1.248 1.504-2.624 2.88-1.408 1.408-2.912 2.656-1.504 1.28-3.168 2.336-1.6 1.088-3.36 2.016-1.728 0.96-3.52 1.696-1.824 0.736-3.712 1.312-1.888 0.576-3.84 0.96-1.92 0.384-3.84 0.576-1.984 0.192-3.936 0.192t-3.936-0.192q-1.92-0.192-3.84-0.576-1.952-0.384-3.84-0.96t-3.68-1.312q-1.824-0.768-3.552-1.696-1.728-0.928-3.36-2.016-1.664-1.088-3.168-2.336-1.504-1.248-2.88-2.624-1.408-1.408-2.656-2.912-1.28-1.504-2.336-3.168-1.088-1.6-2.016-3.36-0.96-1.728-1.696-3.52-0.736-1.824-1.312-3.712-0.576-1.888-0.96-3.84-0.384-1.92-0.576-3.84-0.192-1.984-0.192-3.936t0.192-3.936q0.192-1.92 0.576-3.84 0.384-1.952 0.96-3.84t1.312-3.68q0.768-1.824 1.696-3.552 0.928-1.728 2.016-3.36 1.088-1.664 2.336-3.168 1.248-1.504 2.624-2.88 1.408-1.408 2.912-2.656 1.504-1.28 3.168-2.336 1.6-1.088 3.36-2.016 1.728-0.96 3.52-1.696 1.824-0.736 3.712-1.312 1.888-0.576 3.84-0.96 1.92-0.384 3.84-0.576Q510.08 480 512 480t3.936 0.192q1.92 0.192 3.84 0.576 1.952 0.384 3.84 0.96t3.68 1.312q1.824 0.768 3.552 1.696 1.728 0.928 3.36 2.016 1.664 1.088 3.168 2.336 1.504 1.248 2.88 2.624 1.408 1.408 2.656 2.912 1.28 1.504 2.336 3.168 1.088 1.6 2.016 3.36 0.96 1.728 1.696 3.52 0.736 1.824 1.312 3.712 0.576 1.888 0.96 3.84 0.384 1.92 0.576 3.84 0.192 1.984 0.192 3.936zM304 688h192v64h-192v-64zM720 720q0 3.136-0.64 6.24-0.576 3.104-1.792 6.016-1.216 2.88-2.976 5.536-1.728 2.592-3.968 4.832-2.24 2.24-4.832 3.968-2.624 1.76-5.536 2.976-2.912 1.216-6.016 1.824-3.104 0.608-6.24 0.608t-6.24-0.64q-3.104-0.576-6.016-1.792-2.88-1.216-5.536-2.976-2.592-1.728-4.832-3.968-2.24-2.24-3.968-4.832-1.76-2.624-2.976-5.536-1.216-2.912-1.824-6.016-0.608-3.104-0.608-6.24t0.64-6.24q0.576-3.104 1.792-6.016 1.216-2.88 2.976-5.536 1.728-2.592 3.968-4.832 2.24-2.24 4.832-3.968 2.624-1.76 5.536-2.976 2.912-1.216 6.016-1.824 3.104-0.608 6.24-0.608t6.24 0.64q3.104 0.576 6.016 1.792 2.88 1.216 5.536 2.976 2.592 1.728 4.832 3.968 2.24 2.24 3.968 4.832 1.76 2.624 2.976 5.536 1.216 2.912 1.824 6.016 0.608 3.104 0.608 6.24z" fill="#409EFF" p-id="5309"></path><path d="M64 768v-96a64 64 0 0 1 64-64h768a64 64 0 0 1 64 64v96a64 64 0 0 1-64 64H128a64 64 0 0 1-64-64z m32 0q0 13.248 9.376 22.624T128 800h768q13.248 0 22.624-9.376T928 768v-96q0-13.248-9.376-22.624T896 640H128q-13.248 0-22.624 9.376T96 672v96z" fill="#000000" p-id="5310"></path></svg>