<?xml version="1.0" standalone="no"?><!DOCTYPE svg PUBLIC "-//W3C//DTD SVG 1.1//EN" "http://www.w3.org/Graphics/SVG/1.1/DTD/svg11.dtd"><svg t="1694069464616" class="icon" viewBox="0 0 1024 1024" version="1.1" xmlns="http://www.w3.org/2000/svg" p-id="10543" xmlns:xlink="http://www.w3.org/1999/xlink" width="200" height="200"><path d="M277.504 942.464q-4.224 13.44-14.72 20.096-10.496 6.912-31.104 7.424v-16.512q8.704 0 15.104-1.92 5.888-1.92 8.576-5.12 2.816-3.2 4.224-8.32l1.664-5.888h-11.264l-24.96-60.544h20.864l18.688 48.512 13.568-48.512h21.248l-21.888 70.784z m69.632-48.384v14.848H307.84v-14.848h39.296z m42.752 48.256q-7.808 0.384-15.808-1.216t-13.888-4.928v-18.432q5.248 3.84 12.608 6.336 7.36 2.496 12.992 2.112 3.968-0.256 5.76-1.728 1.792-1.472 2.048-3.008 0.64-3.968-1.92-6.016t-9.6-3.968q-7.808-2.176-12.416-5.056-4.608-2.88-6.976-6.528-2.368-3.648-2.368-9.28 0-5.888 3.072-10.56 3.072-4.672 9.728-7.36 6.656-2.688 14.336-2.688 5.76 0 11.648 1.088t9.856 2.88v16.512q-4.096-2.048-9.664-3.648t-9.664-1.6q-8.704 0-9.472 4.608-0.384 2.688 2.496 4.736 2.88 2.048 8.256 3.712 7.68 2.432 12.608 4.992 4.928 2.56 7.744 6.656t2.816 10.496q0 9.472-6.784 15.424t-17.408 6.464z m30.976 27.648q1.536-4.352 2.048-12.16t0.512-14.208V871.68h20.48v6.4q4.224-3.84 9.28-5.952 5.056-2.112 10.176-2.112 9.472 0 16.576 4.608 7.104 4.608 11.008 12.864 3.904 8.256 3.904 18.88 0 10.624-3.84 18.752-3.84 8.128-11.008 12.736-7.168 4.608-16.64 4.608-11.52 0-19.456-6.656v7.808q0 6.784-0.704 14.528-0.704 7.744-1.856 11.84h-20.48z m23.04-50.816q2.688 5.248 6.848 6.912 4.16 1.664 7.616 1.664 4.352 0 8.256-2.88t6.272-7.744q2.368-4.864 2.368-10.752 0-6.016-2.368-10.944-2.368-4.928-6.272-7.744-3.904-2.816-8.256-2.816-3.456 0-7.616 1.664t-6.848 6.912v25.728z m83.84 22.656q-11.52 0-17.408-6.464-5.888-6.464-5.888-19.008v-73.984h20.48v68.864q0 5.12 0.768 7.808 0.768 2.688 2.56 4.096 1.408 1.152 3.136 1.472 1.728 0.32 6.08 0.32v16.896h-9.728z m39.552-70.144v69.12h-20.48v-69.12h20.48z m-20.48-29.312h20.48v20.48h-20.48v-20.48z m40.32 29.312v-19.712h19.2v19.712h13.312v15.616h-13.312v29.696q0 3.712 0.576 5.632 0.576 1.92 2.112 2.624 1.536 0.704 4.48 0.704 1.92 0 3.264-0.128 1.344-0.128 2.368-0.384v15.744q-5.376 0.64-9.984 0.64-8.832 0-13.184-1.792-4.352-1.792-6.592-6.208-2.24-4.416-2.24-12.608v-33.92h-9.984v-15.616h9.984z m46.848 0v-19.712h19.2v19.712h13.312v15.616h-13.312v29.696q0 3.712 0.576 5.632 0.576 1.92 2.112 2.624 1.536 0.704 4.48 0.704 1.92 0 3.264-0.128 1.344-0.128 2.368-0.384v15.744q-5.376 0.64-9.984 0.64-8.832 0-13.184-1.792-4.352-1.792-6.592-6.208-2.24-4.416-2.24-12.608v-33.92H624v-15.616h9.984z m104.32 65.408q-4.864 2.944-11.328 4.352-6.464 1.408-12.48 1.408-20.48 0-31.04-9.728-10.56-9.728-10.56-27.264 0-17.408 9.408-26.688 9.408-9.28 25.664-9.28 16.128 0 25.536 9.28 9.408 9.28 9.408 26.688 0 1.92-0.256 5.504h-49.792q2.816 16.512 21.632 16.512 13.184 0 23.808-7.808v17.024z m-14.72-40.064q-1.664-6.4-5.76-9.472-4.096-3.072-9.856-3.072-5.376 0-9.152 3.2-3.776 3.2-5.312 9.344h30.08z m50.048-25.344v7.424q3.328-3.584 8-5.568 4.672-1.984 9.28-1.984 3.2 0 6.016 0.896v15.744q-3.584-0.896-6.784-0.896-4.864 0-9.216 1.6-4.352 1.6-7.296 5.056V940.8h-20.48v-69.12h20.48z" fill="#000000" p-id="10544"></path><path d="M768 240h160v32h-160v-32z m160 512h-160v-32h160v32z" fill="#409EFF" p-id="10545"></path><path d="M96 480h283.584l396.288-237.728 16.448 27.456L415.104 496l377.216 226.272-16.448 27.456L379.584 512H96v-32z" fill="#000000" p-id="10546"></path></svg>